<?xml version="1.0" encoding="UTF-8"?>
<svg xmlns="http://www.w3.org/2000/svg" viewBox="0 0 188.32 188.32">
  <defs>
    <style>
      .cls-1 {
        fill: #f7fffa;
      }

      .cls-2 {
        fill: #e55041;
      }

      .cls-3 {
        fill: #6c4b41;
      }

      .cls-4 {
        fill: #a90d00;
      }

      .cls-5 {
        fill: #bcedf4;
      }

      .cls-6 {
        fill: #cc691f;
      }

      .cls-7 {
        fill: #ca2f16;
      }

      .cls-8 {
        fill: #954714;
      }

      .cls-9 {
        fill: #2c2c2c;
      }

      .cls-10 {
        fill: #4d2a22;
      }

      .cls-11 {
        fill: #4f0200;
      }

      .cls-12 {
        fill: #fca691;
        mix-blend-mode: multiply;
        opacity: .61;
      }

      .cls-13 {
        isolation: isolate;
      }
    </style>
  </defs>
  <g class="cls-13">
    <g id="Layer_2" data-name="Layer 2">
      <g id="OBJECTS">
        <g>
          <circle class="cls-5" cx="94.16" cy="94.16" r="94.16" transform="translate(-7.34 180.36) rotate(-85.34)"/>
          <g>
            <g>
              <g>
                <path class="cls-7" d="M94.16,188.32c15.53,0,30.17-3.79,43.09-10.45-.91-3.95-3.61-14.21-8.33-20.45-7.96-10.51-52.09-13.64-62.32-1.71-5.31,6.2-9.26,19.26-10.69,24.49,11.69,5.21,24.63,8.12,38.25,8.12Z"/>
                <path class="cls-9" d="M94.16,188.32c4.06,0,8.07-.27,11.99-.77-.6-6.13-6.22-25.13-6.22-25.13,0,0-5.18,.28-5.05,.08,0,0-5.71,21.02-6.28,25.65,1.84,.11,3.69,.17,5.56,.17Z"/>
                <path class="cls-9" d="M101.51,155.59c.6,.77,.43,7.27-.43,7.61-.86,.34-7.22,.93-8.08,.07-.86-.86-1.04-7.51-1.04-7.51,0,0,8.95-.95,9.55-.17Z"/>
                <path class="cls-2" d="M97.3,154.82c-.36-.12-5.49,9.18-8.34,7.4-2.86-1.78-7.36-11.52-5.33-13.42,2.02-1.9,26.67-1.72,27.1,.86,.33,2.01-1.81,14.1-4.9,13.51-3.09-.6-8.52-8.35-8.52-8.35Z"/>
                <g>
                  <path class="cls-4" d="M65.53,157.07c-.28,.38-.55,.78-.82,1.2-.04,.07-.08,.14-.13,.2-.24,.38-.48,.77-.72,1.18-.05,.09-.11,.18-.16,.27-.26,.45-.51,.91-.75,1.37-.06,.11-.11,.22-.17,.32-.22,.43-.44,.86-.65,1.31-.03,.07-.07,.14-.1,.21-.23,.49-.46,.99-.69,1.49-.06,.13-.12,.26-.17,.39-.22,.5-.44,1-.65,1.51-.02,.05-.04,.11-.07,.16-.2,.47-.38,.95-.57,1.42-.05,.13-.1,.25-.15,.38-.19,.5-.38,1-.57,1.49-.04,.1-.07,.2-.11,.31-.16,.44-.32,.88-.47,1.31-.03,.1-.07,.19-.1,.29-.17,.49-.33,.97-.49,1.44-.04,.11-.07,.22-.11,.33-.15,.45-.29,.9-.43,1.33,0,.03-.02,.05-.03,.08-.15,.46-.29,.91-.42,1.34-.03,.09-.05,.17-.08,.26-.13,.43-.25,.84-.37,1.24,0,0,0,.02,0,.03-.12,.41-.23,.8-.34,1.17,0,.02-.01,.04-.02,.07-.11,.37-.2,.72-.29,1.04,5,2.23,10.24,4,15.65,5.34,.13-14.86-2.23-25.95-4.12-30.69-.3,.28-.59,.56-.84,.86-.3,.35-.59,.72-.88,1.11-.06,.09-.13,.17-.19,.26Z"/>
                  <path class="cls-4" d="M136.83,176.16s-.01-.05-.02-.07c-.08-.31-.16-.64-.25-.98-.01-.05-.03-.1-.04-.15-.09-.34-.19-.68-.29-1.05,0-.01,0-.03-.01-.04-.1-.36-.21-.73-.32-1.1-.03-.09-.05-.18-.08-.26-.11-.38-.23-.76-.36-1.16-.02-.05-.03-.11-.05-.16-.11-.35-.23-.71-.35-1.07-.03-.1-.07-.2-.1-.3-.13-.4-.27-.8-.42-1.21-.03-.09-.07-.19-.1-.28-.13-.37-.27-.74-.42-1.12-.03-.07-.05-.14-.08-.21-.16-.41-.33-.83-.5-1.25-.04-.11-.09-.22-.14-.33-.18-.42-.36-.85-.55-1.27-.02-.04-.04-.08-.05-.12-.18-.4-.36-.79-.55-1.18-.05-.09-.09-.19-.14-.28-.2-.41-.41-.82-.62-1.22-.04-.08-.08-.15-.12-.23-.2-.36-.4-.72-.61-1.07-.04-.06-.07-.13-.11-.19-.23-.39-.47-.76-.71-1.13-.05-.08-.11-.16-.16-.24-.25-.37-.51-.74-.77-1.09,0,0,0,0,0,0-.27-.35-.57-.69-.92-1.02-.06-.06-.14-.12-.21-.18-.3-.28-.63-.56-.98-.82-.05-.04-.11-.08-.16-.12-.4-.29-.82-.58-1.28-.85-.02-.01-.04-.02-.06-.03-.5-.3-1.03-.59-1.59-.87,0,0,0,0,0,0-2.99,7.25-2.4,20.47-1.1,30.42,5.08-1.61,9.99-3.64,14.66-6.05-.11-.48-.25-1.06-.41-1.71Z"/>
                </g>
              </g>
              <polygon class="cls-6" points="100.83 142.02 101.63 151.98 97.38 154.99 93.48 152.18 93 141.93 100.83 142.02"/>
              <polygon class="cls-8" points="100.83 142.02 93 141.93 93.32 148.78 101.4 149.06 100.83 142.02"/>
            </g>
            <g>
              <path class="cls-6" d="M162.23,105.8c-.33,9.55-7.71,17.05-16.46,16.74-8.76-.31-15.58-8.3-15.25-17.85,.33-9.55,7.7-17.05,16.46-16.74,8.76,.31,15.58,8.3,15.25,17.85Z"/>
              <path class="cls-8" d="M158.98,105.47c-.2,5.63-4.54,10.05-9.71,9.87-5.16-.18-9.19-4.89-8.99-10.53,.2-5.63,4.54-10.05,9.71-9.87,5.16,.18,9.19,4.89,8.99,10.53Z"/>
              <path class="cls-6" d="M57.06,100.56c-.33,9.55-7.7,17.05-16.46,16.74-8.76-.31-15.58-8.3-15.25-17.85,.34-9.55,7.71-17.05,16.46-16.74,8.76,.31,15.58,8.3,15.25,17.85Z"/>
              <path class="cls-8" d="M50.26,100.18c-.2,5.63-4.54,10.05-9.71,9.87-5.16-.18-9.19-4.89-8.99-10.53,.2-5.63,4.54-10.05,9.71-9.87,5.16,.18,9.19,4.89,8.99,10.53Z"/>
              <path class="cls-6" d="M106.69,45.39l-19.7,4.37c-42.39,2.87-42.9,21.37-43.72,44.7l-.24,6.97c-.82,23.33,17.43,42.9,40.76,43.72l18.13,.64c23.33,.82,42.9-17.43,43.72-40.76l.24-6.97c.82-23.33,8.3-51.52-39.19-52.67Z"/>
              <path class="cls-11" d="M108.25,76.01c2-.26,4.04-.21,6.04,0,.98,.1,1.96,.27,2.92,.49s2.04,.75,3.02,.53c.69-.16,.8-1,.39-1.48-.67-.78-2.09-.94-3.06-1.14-1.04-.22-2.11-.36-3.17-.46-2.15-.18-4.26,.02-6.38,.38-.94,.16-.73,1.8,.23,1.68h0Z"/>
              <path class="cls-11" d="M77.19,73.76c-2.16-.17-4.28-.13-6.41,.25-1.05,.19-2.08,.44-3.09,.76s-2.24,.6-2.86,1.49c-.43,.61,.17,1.25,.76,1.33,.54,.07,.97-.16,1.46-.34,.46-.18,.93-.34,1.4-.49,.94-.3,1.9-.56,2.88-.75,1.92-.38,3.9-.6,5.86-.53,1.11,.04,1.09-1.63,0-1.71h0Z"/>
              <path class="cls-10" d="M158.65,48.01c-4.22-15.81-21.87-18.71-21.87-18.71,0,0-6.06-14.76-24.77-17.92-20.8-3.52-32.41,6.32-38.47,9.49-6.06,3.16-31.35-3.26-36.63,10.8-3.45,9.19-.52,14.6,3.41,17.75-4.09,8.9-6.11,20.31-5.3,34.81,0,0,4.48,2.61,5.33,8.58,1.21,8.48,4.56,10.15,4.6-.63,.04-11.29,4.62-26.59,10.69-33.17,11.62,6.27,30.43-2.08,34.49-4.03,.08,0,.16,0,.24,0l-11.83,8.3c16.6,2.37,32.94-10.54,32.94-10.54-4.22,5.01-11.33,11.33-11.33,11.33,13.06,0,21.35-7.63,24.79-11.61,1.47,.32,2.95,.75,4.46,1.34,15.02,5.8,13.56,50.82,15.98,50.82s.72-15.83,10.28-13.96c0,0,7.85-24.45,2.99-42.66Z"/>
              <path class="cls-3" d="M72.9,38.22c3.21,2.27-3.21,6.99-6.42,5.86-3.21-1.13,3.21-8.12,6.42-5.86Z"/>
              <path class="cls-3" d="M69.78,29.43c3.32,4.07-6.13,11.42-11.14,8.63-5.01-2.78,7.72-12.83,11.14-8.63Z"/>
              <path class="cls-3" d="M72.9,38.22c3.21,2.27-3.21,6.99-6.42,5.86-3.21-1.13,3.21-8.12,6.42-5.86Z"/>
              <path class="cls-3" d="M69.78,29.43c3.32,4.07-6.13,11.42-11.14,8.63-5.01-2.78,7.72-12.83,11.14-8.63Z"/>
              <path class="cls-11" d="M81.38,115.83c3.69,2.1,7.91,3.03,12.14,2.84,2.04-.09,4.08-.45,6.03-1.06s4.09-1.36,5.6-2.65c.32-.27-.09-.69-.42-.54-1.88,.88-3.53,1.97-5.55,2.58-1.9,.58-3.87,.9-5.86,.97-4.05,.15-8.07-.78-11.67-2.63-.33-.17-.62,.31-.29,.5h0Z"/>
              <path class="cls-11" d="M103.97,114.07s.06,0,.08,0c.08,0-.03,0,.03,0,.05,.01,.09,.02,.14,.03,.03,0,.05,.02,.08,.03,.07,.03-.02-.01,.03,.01,.04,.02,.08,.04,.12,.06,.04,.03,.09,.06,.13,.08,.02,.01,.01,0-.01-.01,.01,0,.02,.02,.04,.03,.02,.02,.04,.03,.05,.05,.04,.03,.07,.07,.11,.11,.02,.02,.04,.04,.05,.06-.03-.04,0,0,.01,.01,.06,.08,.11,.17,.16,.27,0,.01,.03,.08,0,.01,0,.02,.02,.04,.02,.07,.02,.05,.03,.1,.05,.16,0,.02,0,.05,.01,.07,.02,.08,0-.07,0,.01,0,.05,0,.11,0,.16,0,.02,0,.05,0,.07,0,.01-.01,.09,0,.01,0,.04-.02,.08-.02,.13,0,.09,.04,.16,.1,.22,.08,.1,.24,.1,.34,.04,.18-.09,.19-.32,.19-.5,0-.13-.01-.26-.04-.38-.06-.25-.17-.49-.33-.7-.32-.42-.81-.69-1.34-.7-.15,0-.29,.13-.29,.29s.13,.28,.29,.29h0Z"/>
              <path class="cls-11" d="M81.17,116.83c-.03-.11-.04-.16-.04-.27,0-.02,0-.04,0-.07,0,.05,0-.03,0-.03,0-.05,.02-.09,.03-.14s.03-.09,.05-.14c.03-.08-.03,.06,0-.02,.01-.02,.02-.05,.03-.07,.01-.02,.07-.15,.04-.09-.02,.04,.01-.02,.02-.03,.02-.05,.05-.1,.08-.14,.03-.04,.05-.08,.08-.12,.02-.03,.03-.04,0,0,.02-.02,.03-.04,.05-.06,.03-.04,.07-.07,.1-.11,.02-.02,.04-.04,.06-.05,.04-.03,.04-.02,0,0,.09-.04,.17-.09,.26-.13,.08-.04-.07,.03,0,0,.03,0,.05-.02,.07-.03,.05-.02,.1-.03,.16-.04,.22-.05,.36-.31,.29-.52s-.29-.37-.52-.29c-.5,.17-.92,.55-1.16,1.02-.12,.24-.19,.48-.19,.75,0,.13,.02,.26,.04,.38,0-.03,0,.07,.01,.08,0,.03,0,.05,.01,.08,.01,.06,.03,.12,.05,.18,.1,.28,.52,.17,.44-.12h0Z"/>
              <path class="cls-11" d="M89.42,122.39c1.44,.52,2.97,.74,4.5,.65,.74-.04,1.48-.15,2.19-.31s1.56-.33,2.14-.75c.17-.12,.15-.49-.12-.46-.66,.08-1.31,.38-1.97,.53-.74,.16-1.49,.25-2.24,.28-1.47,.06-2.93-.11-4.35-.46-.35-.09-.47,.41-.15,.53h0Z"/>
              <g>
                <g>
                  <path class="cls-1" d="M113.53,112.65h0c5.87,0,10.62-4.77,10.62-10.64v-5.63c-.01-5.87-4.78-10.62-10.65-10.61h0c-5.87,0-10.62,4.77-10.62,10.64v5.63c.01,5.87,4.78,10.62,10.65,10.61Z"/>
                  <path class="cls-10" d="M102.88,96.41c0-3.18,1.39-6.02,3.6-7.97,.84-.3,1.72-.48,2.64-.48,5.18,0,9.38,5.17,9.39,11.55,0,6.39-4.18,11.57-9.36,11.58-.47,0-.93-.06-1.38-.14-2.93-1.89-4.88-5.17-4.88-8.92v-5.63Z"/>
                </g>
                <g>
                  <path class="cls-1" d="M73.91,112.65h0c-5.87,.08-10.69-4.61-10.78-10.48l-.08-5.63c-.08-5.87,4.61-10.69,10.48-10.78h0c5.87-.08,10.69,4.61,10.78,10.48l.08,5.63c.08,5.87-4.61,10.69-10.48,10.78Z"/>
                  <path class="cls-10" d="M84.31,96.24c-.05-3.18-1.49-6-3.72-7.91-.84-.29-1.73-.45-2.65-.44-5.18,.07-9.3,5.31-9.21,11.7,.09,6.39,4.36,11.51,9.54,11.43,.47,0,.93-.07,1.38-.16,2.9-1.93,4.8-5.25,4.75-8.99l-.08-5.63Z"/>
                </g>
              </g>
              <path class="cls-11" d="M94.29,102.29c-.43,.83-.9,1.65-1.3,2.49l.78-.1c-.37-.47-.75-.94-1.16-1.37-.2-.21-.41-.42-.62-.63s-.46-.41-.58-.68c-.14-.31-.65-.22-.72,.09-.09,.36-.11,.75-.16,1.12-.04,.34-.06,.68-.07,1.02s-.02,.68-.01,1.02c0,.38-.04,.81,.14,1.16s.65,.21,.76-.1,.03-.73,.03-1.06,0-.68,0-1.02c.01-.68,.09-1.36,.09-2.04l-.59,.34c.25,.13,.44,.39,.61,.6s.35,.46,.51,.69c.34,.48,.69,.95,1.01,1.45,.2,.31,.66,.34,.86,0,.47-.81,.87-1.66,1.3-2.49,.13-.24,.06-.54-.18-.68-.23-.13-.56-.06-.68,.18h0Z"/>
              <path class="cls-12" d="M71.82,121.65c-.62,3.96-5.33,6.5-10.53,5.69-5.2-.81-8.91-4.68-8.29-8.63,.62-3.96,5.33-6.5,10.53-5.69,5.2,.81,8.91,4.68,8.29,8.63Z"/>
              <path class="cls-12" d="M135.52,116.72c.81,3.92-2.7,7.96-7.85,9.03-5.15,1.07-9.99-1.24-10.8-5.16-.81-3.92,2.7-7.96,7.85-9.03,5.15-1.07,9.99,1.24,10.8,5.16Z"/>
            </g>
          </g>
        </g>
      </g>
    </g>
  </g>
</svg>