<?xml version="1.0" encoding="UTF-8"?>
<svg xmlns="http://www.w3.org/2000/svg" viewBox="0 0 188.32 188.32">
  <defs>
    <style>
      .cls-1 {
        fill: #f7fffa;
      }

      .cls-2 {
        fill: #681900;
      }

      .cls-3 {
        fill: #ffac9f;
      }

      .cls-4 {
        fill: #6c4b41;
      }

      .cls-5 {
        fill: #65b0d1;
      }

      .cls-6 {
        fill: #bcedf4;
      }

      .cls-7 {
        fill: #cc691f;
      }

      .cls-8 {
        fill: #ca2f16;
      }

      .cls-9 {
        fill: #954714;
      }

      .cls-10 {
        fill: #346c84;
      }

      .cls-11 {
        fill: #4d2a22;
      }

      .cls-12 {
        fill: #487c98;
      }

      .cls-13 {
        fill: #4f0200;
      }

      .cls-14 {
        fill: #fca691;
        mix-blend-mode: multiply;
        opacity: .61;
      }

      .cls-15 {
        isolation: isolate;
      }
    </style>
  </defs>
  <g class="cls-15">
    <g id="Layer_2" data-name="Layer 2">
      <g id="OBJECTS">
        <g>
          <circle class="cls-6" cx="94.16" cy="94.16" r="94.16" transform="translate(-39 94.16) rotate(-45)"/>
          <g>
            <g>
              <g>
                <path class="cls-12" d="M94.16,188.32c15.53,0,30.18-3.79,43.09-10.45-.91-3.95-3.61-14.21-8.33-20.45-7.96-10.51-52.09-13.64-62.32-1.71-5.31,6.2-9.26,19.26-10.69,24.49,11.69,5.21,24.63,8.12,38.25,8.12Z"/>
                <path class="cls-8" d="M94.16,188.32c4.06,0,8.07-.27,11.99-.77-.6-6.13-6.22-25.13-6.22-25.13,0,0-5.18,.28-5.05,.08,0,0-5.71,21.02-6.28,25.65,1.84,.11,3.69,.17,5.56,.17Z"/>
                <path class="cls-8" d="M101.51,155.59c.6,.77,.43,7.27-.43,7.62-.86,.34-7.22,.93-8.08,.07s-1.04-7.51-1.04-7.51c0,0,8.95-.95,9.55-.17Z"/>
                <path class="cls-5" d="M97.3,154.82c-.36-.12-5.49,9.18-8.34,7.4s-7.36-11.52-5.33-13.42c2.02-1.9,26.67-1.72,27.1,.86,.33,2.01-1.81,14.1-4.9,13.51s-8.52-8.35-8.52-8.35Z"/>
                <g>
                  <path class="cls-10" d="M65.53,157.07c-.28,.38-.55,.78-.82,1.2-.04,.07-.08,.14-.13,.2-.24,.38-.48,.77-.72,1.18-.05,.09-.11,.18-.16,.27-.26,.45-.51,.91-.75,1.37-.06,.11-.11,.22-.17,.32-.22,.43-.44,.86-.65,1.31-.03,.07-.07,.14-.1,.21-.23,.49-.46,.99-.69,1.49-.06,.13-.12,.26-.17,.39-.22,.5-.44,1-.65,1.51-.02,.05-.04,.11-.07,.16-.2,.47-.39,.95-.57,1.42-.05,.13-.1,.25-.15,.38-.19,.5-.38,1-.57,1.49-.04,.1-.07,.2-.11,.31-.16,.44-.32,.88-.47,1.31-.03,.1-.07,.19-.1,.29-.17,.49-.33,.97-.49,1.44-.04,.11-.07,.22-.11,.33-.15,.45-.29,.9-.43,1.33,0,.03-.02,.05-.03,.08-.15,.46-.29,.91-.42,1.34-.03,.09-.05,.17-.08,.26-.13,.43-.25,.84-.37,1.24,0,0,0,.02,0,.03-.12,.41-.23,.8-.34,1.17,0,.02-.01,.04-.02,.07-.11,.37-.2,.72-.29,1.04,5,2.23,10.24,4,15.65,5.34,.13-14.86-2.23-25.95-4.12-30.69-.3,.28-.59,.56-.84,.86-.3,.35-.59,.72-.88,1.11-.06,.09-.13,.17-.19,.26Z"/>
                  <path class="cls-10" d="M136.83,176.16s-.01-.05-.02-.07c-.08-.31-.16-.64-.25-.98-.01-.05-.03-.1-.04-.15-.09-.34-.19-.68-.29-1.05,0-.01,0-.03-.01-.04-.1-.36-.21-.73-.32-1.1-.03-.09-.05-.18-.08-.26-.11-.38-.23-.76-.36-1.16-.02-.05-.03-.11-.05-.16-.11-.35-.23-.71-.35-1.07-.03-.1-.07-.2-.1-.3-.13-.4-.27-.8-.42-1.21-.03-.09-.07-.19-.1-.28-.13-.37-.27-.74-.42-1.12-.03-.07-.05-.14-.08-.21-.16-.41-.33-.83-.5-1.25-.04-.11-.09-.22-.14-.33-.18-.42-.36-.85-.55-1.27-.02-.04-.04-.08-.05-.12-.18-.4-.36-.79-.55-1.18-.05-.09-.09-.19-.14-.28-.2-.41-.41-.82-.62-1.22-.04-.08-.08-.15-.12-.23-.2-.36-.4-.72-.61-1.07-.04-.06-.07-.13-.11-.19-.23-.39-.47-.76-.71-1.13-.05-.08-.11-.16-.16-.24-.25-.37-.51-.74-.77-1.09,0,0,0,0,0,0-.27-.35-.57-.69-.92-1.02-.06-.06-.14-.12-.21-.18-.3-.28-.63-.56-.98-.82-.05-.04-.11-.08-.16-.12-.4-.29-.82-.58-1.28-.85-.02-.01-.04-.02-.06-.03-.5-.3-1.03-.59-1.59-.87,0,0,0,0,0,0-2.99,7.25-2.4,20.47-1.1,30.42,5.08-1.61,9.99-3.64,14.66-6.05-.11-.48-.25-1.06-.41-1.71Z"/>
                </g>
              </g>
              <polygon class="cls-7" points="100.83 142.02 101.63 151.98 97.38 154.99 93.48 152.18 93 141.93 100.83 142.02"/>
              <polygon class="cls-9" points="100.83 142.02 93 141.93 93.32 148.78 101.4 149.06 100.83 142.02"/>
            </g>
            <g>
              <path class="cls-7" d="M162.23,105.8c-.33,9.55-7.7,17.05-16.46,16.74-8.76-.31-15.58-8.3-15.25-17.85,.33-9.55,7.7-17.05,16.46-16.74,8.76,.31,15.58,8.3,15.25,17.85Z"/>
              <path class="cls-9" d="M158.98,105.47c-.2,5.63-4.54,10.05-9.71,9.87-5.16-.18-9.19-4.89-8.99-10.53,.2-5.63,4.54-10.05,9.71-9.87,5.16,.18,9.19,4.89,8.99,10.53Z"/>
              <path class="cls-7" d="M57.06,100.56c-.33,9.55-7.7,17.05-16.46,16.74-8.76-.31-15.58-8.3-15.25-17.85,.34-9.55,7.71-17.05,16.46-16.74,8.76,.31,15.58,8.3,15.25,17.85Z"/>
              <path class="cls-9" d="M50.26,100.18c-.2,5.63-4.54,10.05-9.71,9.87-5.16-.18-9.19-4.89-8.99-10.53,.2-5.63,4.54-10.05,9.71-9.87,5.16,.18,9.19,4.89,8.99,10.53Z"/>
              <path class="cls-7" d="M106.69,45.39l-23.62-.76c-42.39,2.87-38.98,26.51-39.8,49.84l-.24,6.97c-.82,23.33,17.43,42.9,40.76,43.72l18.13,.64c23.33,.82,42.9-17.43,43.72-40.76l.24-6.97c.82-23.33,8.3-51.52-39.19-52.67Z"/>
              <path class="cls-13" d="M108.83,80.63c2-.26,4.04-.21,6.04,0,.98,.1,1.96,.27,2.92,.49s2.04,.75,3.02,.53c.69-.16,.8-1,.39-1.48-.67-.78-2.09-.94-3.06-1.14-1.04-.22-2.11-.36-3.17-.46-2.15-.18-4.26,.02-6.38,.38-.94,.16-.73,1.8,.23,1.68h0Z"/>
              <path class="cls-13" d="M77.77,78.38c-2.16-.17-4.28-.13-6.41,.25-1.05,.19-2.08,.44-3.09,.76s-2.24,.6-2.86,1.49c-.43,.61,.17,1.25,.76,1.33,.54,.07,.97-.16,1.46-.34,.46-.18,.93-.34,1.4-.49,.94-.3,1.9-.56,2.88-.75,1.92-.38,3.9-.6,5.86-.53,1.11,.04,1.09-1.63,0-1.71h0Z"/>
              <g>
                <path class="cls-2" d="M84.7,114.38c8.22-1.43,9.11,4.69,12.41,3.81,3.3-.87,6.68-6.3,11.62-3.16,4.94,3.14,4.77,21.14-17.24,18.91-15.4-1.56-15.02-18.14-6.79-19.57Z"/>
                <path class="cls-3" d="M111.35,121.04c-2.32-.46-4.78-.6-7.33-.31-8.27,.93-14.89,5.88-17.23,12.12,1.37,.53,2.93,.92,4.71,1.1,15.32,1.55,20.06-6.7,19.85-12.91Z"/>
                <path class="cls-1" d="M81.85,115.7c2.14,5.4,8.52,8.89,15.59,8.1,5.58-.63,10.14-3.76,12.26-7.86-.29-.36-.62-.67-.97-.89-4.94-3.14-8.33,2.28-11.62,3.16-3.3,.87-4.18-5.24-12.41-3.81-1.1,.19-2.05,.66-2.85,1.32Z"/>
              </g>
              <path class="cls-11" d="M165.28,64.12c0-4.25-2.71-7.96-6.72-9.89,1.77-2.02,2.86-4.67,2.86-7.57,0-6.35-5.15-11.5-11.5-11.5-1.02,0-2.01,.15-2.95,.4,0-.08,.01-.15,.01-.23,0-4.45-3.49-8.07-7.91-8.37,0-.09,.02-.19,.02-.28,0-6.35-6.01-11.5-13.43-11.5-3.58,0-6.83,1.21-9.24,3.16-.02-6.66-6.7-12.06-14.94-12.06-3.61,0-6.92,1.03-9.5,2.76-2.15-2.4-5.45-3.93-9.14-3.93-6.49,0-11.75,4.74-11.75,10.58,0,.53,.06,1.05,.14,1.55-4.32,.32-7.94,2.5-9.52,5.49-1.99-.85-4.25-1.33-6.65-1.33-7.82,0-14.18,5.08-14.49,11.44-.18,0-.35-.02-.53-.02-6.12,0-11.08,4.17-11.08,9.32,0,2.49,1.17,4.74,3.06,6.41-3.28,1.41-5.58,4.58-5.58,8.28,0,3.34,1.88,6.25,4.66,7.82-1.5,1.13-2.48,2.91-2.48,4.94,0,2.16,1.1,4.06,2.77,5.17-2.59,1.9-4.29,5.12-4.29,8.77,0,5.84,4.36,10.58,9.74,10.58,.49,0,.97-.05,1.44-.13-.06,.69-.1,1.39-.1,2.12,0,5.68,2.06,10.28,4.6,10.28s4.6-4.6,4.6-10.28c0-1.13-.08-2.21-.23-3.23,1.96-1.38,3.29-3.95,3.29-6.91s-1.21-5.31-3.04-6.73c1.35-1.18,2.2-2.84,2.2-4.69s-.93-3.64-2.37-4.82c3.43-1.29,5.89-4.76,5.89-8.86,0-.52-.05-1.03-.13-1.53,.13,0,.25,.02,.38,.02,3.57,0,6.59-2.11,7.69-5.04,1.44,.64,3.08,1.01,4.81,1.01,1.83,0,3.55-.41,5.04-1.12,1.27,3.48,4.81,5.98,8.98,5.98,.59,0,1.16-.06,1.72-.15,1.66,4.21,5.79,7.2,10.62,7.2,5.61,0,10.27-4.02,11.23-9.32,.77,.16,1.56,.25,2.37,.25,4.1,0,7.68-2.15,9.64-5.35,1.51,.74,3.22,1.16,5.05,1.16s3.58-.43,5.1-1.18c.73,2.24,2.25,4.06,4.2,5.11-1.56,1.8-2.5,4.05-2.5,6.48,0,4.23,2.8,7.88,6.85,9.63-.73,1.48-1.14,3.17-1.14,4.97,0,3.88,1.92,7.26,4.77,9.05,.42,1.48,1.39,2.81,2.74,3.86-.09,1.23,.07,2.46,.56,3.61,.2,.48,.49,.92,.8,1.34,.17,5.33,2.16,9.53,4.59,9.53,2.25,0,4.12-3.6,4.52-8.36,1.11-1.21,1.68-2.94,1.46-4.52,3.12-1.13,5.37-3.4,5.82-6.11,3.74-2.58,4.99-7.99,2.71-12.73-.26-.54-.56-1.04-.89-1.52,3.13-2.07,5.16-5.33,5.16-9Z"/>
              <path class="cls-4" d="M149.7,42.02c6,.41,8.27,9.92,3.51,10.75-4.76,.83-9.51-11.16-3.51-10.75Z"/>
              <path class="cls-4" d="M143.08,47.4c3.1,.21,6.41,8.48,2.07,8.68-4.34,.21-5.17-8.89-2.07-8.68Z"/>
              <path class="cls-4" d="M137.7,51.12c2.07-.62,5.38,6.2,2.27,6.62-3.1,.41-4.34-6-2.27-6.62Z"/>
              <path class="cls-4" d="M53.31,26.77c5.8,1.93,5.07,9.42-4.35,9.91-9.42,.48-1.45-11.84,4.35-9.91Z"/>
              <path class="cls-4" d="M62.25,32.81c2.17,2.9-.72,7.97-5.32,6.52-4.59-1.45,3.14-9.42,5.32-6.52Z"/>
              <path class="cls-4" d="M67.42,37.24c2.82,.81,1.41,5.65-1.61,5.24-3.02-.4-1.21-6.05,1.61-5.24Z"/>
              <g>
                <g>
                  <path class="cls-1" d="M113.53,112.65h0c5.87,0,10.62-4.77,10.62-10.64v-5.63c-.01-5.87-4.78-10.62-10.65-10.61h0c-5.87,0-10.62,4.77-10.62,10.64v5.63c.01,5.87,4.78,10.62,10.65,10.61Z"/>
                  <path class="cls-11" d="M102.88,96.41c0-3.18,1.39-6.02,3.6-7.97,.84-.3,1.72-.48,2.64-.48,5.18,0,9.38,5.17,9.39,11.55,0,6.39-4.18,11.57-9.36,11.58-.47,0-.93-.06-1.38-.14-2.93-1.89-4.88-5.17-4.88-8.92v-5.63Z"/>
                </g>
                <g>
                  <path class="cls-1" d="M73.91,112.65h0c-5.87,.08-10.69-4.61-10.78-10.48l-.08-5.63c-.08-5.87,4.61-10.69,10.48-10.78h0c5.87-.08,10.69,4.61,10.78,10.48l.08,5.63c.08,5.87-4.61,10.69-10.48,10.78Z"/>
                  <path class="cls-11" d="M84.31,96.24c-.04-3.18-1.49-6-3.72-7.92-.84-.29-1.73-.45-2.65-.44-5.18,.07-9.3,5.31-9.21,11.7,.09,6.39,4.36,11.51,9.54,11.43,.47,0,.93-.07,1.38-.16,2.9-1.93,4.8-5.25,4.75-8.99l-.08-5.63Z"/>
                </g>
              </g>
              <path class="cls-13" d="M94.29,102.29c-.43,.83-.9,1.65-1.3,2.49l.78-.1c-.37-.47-.75-.94-1.16-1.37-.2-.21-.41-.42-.62-.63s-.46-.41-.58-.68c-.14-.31-.65-.22-.72,.09-.09,.36-.11,.75-.16,1.12-.04,.34-.06,.68-.07,1.02s-.02,.68-.01,1.02c0,.38-.04,.81,.14,1.16s.65,.21,.76-.1,.03-.73,.03-1.06,0-.68,0-1.02c.01-.68,.09-1.36,.09-2.04l-.59,.34c.25,.13,.44,.39,.61,.6s.35,.46,.51,.69c.34,.48,.69,.95,1.01,1.45,.2,.31,.66,.34,.86,0,.47-.81,.87-1.66,1.3-2.49,.12-.24,.06-.54-.18-.68-.23-.13-.56-.06-.68,.18h0Z"/>
              <path class="cls-14" d="M71.83,121.65c-.62,3.96-5.33,6.5-10.53,5.69-5.2-.81-8.91-4.68-8.29-8.63,.62-3.96,5.33-6.5,10.53-5.69,5.2,.81,8.91,4.68,8.29,8.63Z"/>
              <path class="cls-14" d="M135.52,116.72c.81,3.92-2.7,7.96-7.85,9.03-5.15,1.07-9.99-1.24-10.8-5.16-.81-3.92,2.7-7.96,7.85-9.03,5.15-1.07,9.99,1.24,10.8,5.16Z"/>
            </g>
          </g>
        </g>
      </g>
    </g>
  </g>
</svg>