<?xml version="1.0" encoding="UTF-8"?>
<svg xmlns="http://www.w3.org/2000/svg" viewBox="0 0 188.32 188.32">
  <defs>
    <style>
      .cls-1 {
        fill: #f7fffa;
      }

      .cls-2 {
        fill: #f58345;
      }

      .cls-3 {
        fill: #f9f1e4;
      }

      .cls-4 {
        fill: #eea47d;
      }

      .cls-5 {
        fill: #fdc59d;
      }

      .cls-6 {
        fill: #6c4b41;
      }

      .cls-7 {
        fill: #bcedf4;
      }

      .cls-8 {
        fill: #d2580f;
      }

      .cls-9 {
        fill: #4d2a22;
      }

      .cls-10 {
        fill: #4f0200;
      }

      .cls-11 {
        fill: #7c5850;
      }

      .cls-12 {
        fill: #fca691;
        mix-blend-mode: multiply;
        opacity: .61;
      }

      .cls-13 {
        isolation: isolate;
      }
    </style>
  </defs>
  <g class="cls-13">
    <g id="Layer_2" data-name="Layer 2">
      <g id="OBJECTS">
        <g>
          <circle class="cls-7" cx="94.16" cy="94.16" r="94.16" transform="translate(-39 94.16) rotate(-45)"/>
          <g>
            <g>
              <g>
                <path class="cls-8" d="M94.16,188.32c15.53,0,30.17-3.79,43.09-10.45-.91-3.95-3.61-14.21-8.33-20.45-7.96-10.51-52.09-13.64-62.32-1.71-5.31,6.2-9.26,19.26-10.69,24.49,11.69,5.21,24.63,8.12,38.25,8.12Z"/>
                <path class="cls-3" d="M75.24,150.61c3.32,9.26,10.82,27.13,20.96,32.62,0,0,17.02-12.42,21.73-31.98-12.27-3.77-30.96-4.47-42.69-.63Z"/>
                <path class="cls-9" d="M99.66,161.92s-5.18,.28-5.05,.08c0,0-2.44,8.97-4.29,16.48,1.84,1.98,3.79,3.64,5.87,4.76,0,0,3.33-2.43,7.46-6.84-1.79-7.06-3.99-14.47-3.99-14.47Z"/>
                <path class="cls-9" d="M101.25,155.09c.6,.77,.43,7.27-.43,7.62-.86,.34-7.22,.93-8.08,.07-.86-.86-1.04-7.51-1.04-7.51,0,0,8.95-.95,9.55-.17Z"/>
                <path class="cls-1" d="M97.53,155.07c-.36-.12-6.39,8.71-9.25,6.93-2.86-1.78-7.36-11.52-5.33-13.42,2.02-1.9,26.67-1.72,27.1,.86,.33,2.01-1.81,14.1-4.9,13.51-3.09-.59-7.61-7.87-7.61-7.87Z"/>
                <g>
                  <path class="cls-2" d="M65.53,157.07c-.28,.38-.55,.78-.82,1.2-.04,.07-.08,.14-.13,.2-.24,.38-.48,.77-.72,1.18-.05,.09-.11,.18-.16,.27-.26,.45-.51,.91-.75,1.37-.06,.11-.11,.22-.17,.32-.22,.43-.44,.86-.65,1.31-.03,.07-.07,.14-.1,.21-.23,.49-.46,.99-.69,1.49-.06,.13-.12,.26-.17,.39-.22,.5-.44,1-.65,1.51-.02,.05-.04,.11-.07,.16-.2,.47-.39,.95-.57,1.42-.05,.13-.1,.25-.15,.38-.19,.5-.38,1-.57,1.49-.04,.1-.07,.2-.11,.31-.16,.44-.32,.88-.47,1.31-.03,.1-.07,.19-.1,.29-.17,.49-.33,.97-.49,1.44-.04,.11-.07,.22-.11,.33-.15,.45-.29,.9-.43,1.33,0,.03-.02,.05-.03,.08-.15,.46-.29,.91-.42,1.34-.03,.09-.05,.17-.08,.26-.13,.43-.25,.84-.37,1.24,0,0,0,.02,0,.03-.12,.41-.23,.8-.34,1.17,0,.02-.01,.04-.02,.07-.11,.37-.2,.72-.29,1.04,5,2.23,10.24,4,15.65,5.34,.13-14.86-2.23-25.95-4.12-30.69-.3,.28-.59,.56-.84,.86-.3,.35-.59,.72-.88,1.11-.06,.09-.13,.17-.19,.26Z"/>
                  <path class="cls-2" d="M136.83,176.16s-.01-.05-.02-.07c-.08-.31-.16-.64-.25-.98-.01-.05-.03-.1-.04-.15-.09-.34-.19-.68-.29-1.05,0-.01,0-.03-.01-.04-.1-.36-.21-.73-.32-1.1-.03-.09-.05-.18-.08-.26-.11-.38-.23-.76-.36-1.16-.02-.05-.03-.11-.05-.16-.11-.35-.23-.71-.35-1.07-.03-.1-.07-.2-.1-.3-.13-.4-.28-.8-.42-1.21-.03-.09-.07-.19-.1-.28-.13-.37-.27-.74-.42-1.12-.03-.07-.05-.14-.08-.21-.16-.41-.33-.83-.5-1.25-.04-.11-.09-.22-.14-.33-.18-.42-.36-.85-.55-1.27-.02-.04-.04-.08-.05-.12-.18-.4-.36-.79-.55-1.18-.05-.09-.09-.19-.14-.28-.2-.41-.41-.82-.62-1.22-.04-.08-.08-.15-.12-.23-.2-.36-.4-.72-.61-1.07-.04-.06-.07-.13-.11-.19-.23-.39-.47-.76-.71-1.13-.05-.08-.11-.16-.16-.24-.25-.37-.51-.74-.77-1.09,0,0,0,0,0,0-.27-.35-.57-.69-.92-1.02-.06-.06-.14-.12-.21-.18-.3-.28-.63-.56-.98-.82-.05-.04-.11-.08-.16-.12-.4-.29-.82-.58-1.28-.85-.02-.01-.04-.02-.06-.03-.5-.3-1.03-.59-1.59-.87,0,0,0,0,0,0-2.99,7.25-2.4,20.47-1.1,30.42,5.08-1.61,9.99-3.64,14.66-6.05-.11-.48-.25-1.06-.41-1.71Z"/>
                </g>
              </g>
              <polygon class="cls-5" points="100.83 142.02 101.63 151.98 97.51 156.03 93.48 152.18 93 141.93 100.83 142.02"/>
              <polygon class="cls-4" points="100.83 142.02 93 141.93 93.32 148.78 101.4 149.06 100.83 142.02"/>
            </g>
            <g>
              <path class="cls-5" d="M162.23,105.8c-.33,9.55-7.71,17.05-16.46,16.74-8.76-.31-15.58-8.3-15.25-17.85,.33-9.55,7.7-17.05,16.46-16.74,8.76,.31,15.58,8.3,15.25,17.85Z"/>
              <path class="cls-4" d="M158.98,105.47c-.2,5.63-4.54,10.05-9.71,9.87-5.16-.18-9.19-4.89-8.99-10.53,.2-5.63,4.54-10.05,9.71-9.87,5.16,.18,9.19,4.89,8.99,10.53Z"/>
              <path class="cls-5" d="M57.06,100.56c-.33,9.55-7.7,17.05-16.46,16.74-8.76-.31-15.58-8.3-15.25-17.85,.34-9.55,7.71-17.05,16.46-16.74,8.76,.31,15.58,8.3,15.25,17.85Z"/>
              <path class="cls-4" d="M50.26,100.18c-.2,5.63-4.54,10.05-9.71,9.87-5.16-.18-9.19-4.89-8.99-10.53,.2-5.63,4.54-10.05,9.71-9.87,5.16,.18,9.19,4.89,8.99,10.53Z"/>
              <path class="cls-5" d="M105.12,50.39l-18.13-.64c-49.72,.96-42.9,21.37-43.72,44.7l-.24,6.97c-.82,23.33,17.43,42.9,40.76,43.72l18.13,.64c23.33,.82,42.9-17.43,43.72-40.76l.24-6.97c.82-23.33,11.94-53.01-40.76-47.66Z"/>
              <path class="cls-10" d="M109.98,74.5c2-.26,4.04-.21,6.04,0,.98,.1,1.96,.27,2.92,.49s2.04,.75,3.02,.53c.69-.16,.8-1,.39-1.48-.67-.78-2.09-.94-3.06-1.14-1.04-.22-2.11-.36-3.17-.46-2.15-.18-4.26,.02-6.38,.38-.94,.16-.73,1.8,.23,1.68h0Z"/>
              <path class="cls-10" d="M79.21,72.82c-2.12-.36-4.23-.57-6.38-.38-1.06,.09-2.12,.24-3.17,.46-.97,.2-2.39,.36-3.06,1.14-.41,.48-.3,1.32,.39,1.48,.99,.23,2.05-.31,3.02-.53s1.94-.39,2.92-.49c2-.2,4.05-.25,6.04,0,.95,.12,1.18-1.52,.23-1.68h0Z"/>
              <path class="cls-6" d="M155.82,37.08c-14.81-22.03-43.14-19.03-49.16-18.11-1.22-6.03-4.46-12.37-12.67-12.6-15.78-.43-38.38,20.9-49.47,24.73-9.68,3.35-18.5,15.8-19.19,29.85-.85,17.48,13.86,48.16,18.76,43.92,2.06-1.78,1.64-10.41,2.2-21.09,2.12-11.3,3.44-23.22,9.74-26.67,1.28-.7,2.61-1.26,3.99-1.7,11.36,11.5,26.29,2.98,26.29,2.98l-14.93,11.94c21.32,1.71,27.29-9.81,27.29-9.81-1.71,5.12-14.07,14.07-14.07,14.07,19.1-3.65,25.43-14.7,27.53-21.82,6.64-1.17,11.56-1.55,18.53,1.35,15.35,6.4,12.29,50.49,14.72,50.49s.72-15.83,10.28-13.96c0,0,1.16-6.58,1.12-15.59,4.9-9.01,9-23.2-.96-38Z"/>
              <path class="cls-11" d="M72.9,38.22c3.21,2.27-3.21,6.99-6.42,5.86-3.21-1.13,3.21-8.12,6.42-5.86Z"/>
              <path class="cls-11" d="M69.78,29.43c3.32,4.07-6.13,11.42-11.14,8.63s7.72-12.83,11.14-8.63Z"/>
              <path class="cls-10" d="M83.8,115.2c3.46-.18,6.93-.33,10.39-.44,1.7-.05,3.4-.09,5.1-.11s3.56,.07,5.3-.12c.39-.04,.4-.58,0-.61-1.75-.15-3.55,.02-5.3,.07s-3.4,.11-5.1,.18c-3.47,.13-6.93,.28-10.39,.48-.36,.02-.36,.58,0,.56h0Z"/>
              <path class="cls-10" d="M91.23,118.59h3.43c.56,0,1.12,.01,1.68,.01s1.18,.05,1.75-.01c.37-.04,.37-.53,0-.57-.57-.07-1.18-.01-1.75-.01h-1.68c-1.14,0-2.29,0-3.43,.01-.37,0-.37,.57,0,.57h0Z"/>
              <g>
                <g>
                  <path class="cls-1" d="M113.53,112.65h0c5.87,0,10.62-4.77,10.62-10.64v-5.63c-.01-5.87-4.78-10.62-10.65-10.61h0c-5.87,0-10.62,4.77-10.62,10.64v5.63c.01,5.87,4.78,10.62,10.65,10.61Z"/>
                  <path class="cls-6" d="M102.88,96.41c0-3.18,1.39-6.02,3.6-7.97,.84-.3,1.72-.48,2.64-.48,5.18,0,9.38,5.17,9.39,11.55,0,6.39-4.18,11.57-9.36,11.58-.47,0-.93-.06-1.38-.14-2.93-1.89-4.88-5.17-4.88-8.92v-5.63Z"/>
                </g>
                <g>
                  <path class="cls-1" d="M73.91,112.65h0c-5.87,.08-10.69-4.61-10.78-10.48l-.08-5.63c-.08-5.87,4.61-10.69,10.48-10.78h0c5.87-.08,10.69,4.61,10.78,10.48l.08,5.63c.08,5.87-4.61,10.69-10.48,10.78Z"/>
                  <path class="cls-6" d="M84.31,96.24c-.04-3.18-1.49-6-3.72-7.91-.84-.29-1.73-.45-2.65-.44-5.18,.07-9.3,5.31-9.21,11.7,.09,6.39,4.36,11.51,9.54,11.43,.47,0,.93-.07,1.38-.16,2.9-1.93,4.8-5.25,4.75-8.99l-.08-5.63Z"/>
                </g>
              </g>
              <path class="cls-9" d="M152.6,82.31c-4.93-1.97-38.18-11.43-54.8,6.89,0,0-.13,.72-.25,1.94-2.27-.37-4.33-.34-5.78-.21-.06-.52-.11-.81-.11-.81-13.87-20.54-50.33-9.78-55.26-7.81-4.93,1.97-5.17,6.65-3.2,10.59,1.97,3.94,7.39,1.72,7.39,1.72-.99,21.93,6.93,28.9,27.59,27.84,20.62-1.06,23.75-17.16,23.86-26.24,2.17-.5,3.98-.41,5.29-.17,.1,9.43,3.27,25.37,23.49,26.41,20.67,1.06,28.58-5.91,27.59-27.84,0,0,5.42,2.22,7.39-1.72,1.97-3.94,1.72-8.62-3.2-10.59ZM58.08,117.29c-16.51-3.94-13.62-30.44-13.62-30.44,30.12-9.51,43.03,3.3,43.03,3.3,1.48,20.94-12.9,31.08-29.4,27.13Zm72.84,0c-16.51,3.94-30.88-6.19-29.4-27.13,0,0,12.91-12.81,43.03-3.3,0,0,2.89,26.49-13.62,30.44Z"/>
              <path class="cls-10" d="M95.59,100.99c-.43,.83-.9,1.65-1.3,2.49l.78-.1c-.37-.47-.75-.94-1.16-1.37-.2-.21-.41-.42-.62-.63s-.46-.41-.58-.68c-.14-.31-.65-.22-.72,.09-.09,.36-.11,.75-.16,1.12-.04,.34-.06,.68-.07,1.02s-.02,.68-.01,1.02c0,.38-.04,.81,.14,1.16s.65,.21,.76-.1,.03-.73,.03-1.06,0-.68,0-1.02c.01-.68,.09-1.36,.09-2.04l-.59,.34c.25,.13,.44,.39,.61,.6s.35,.46,.51,.69c.34,.48,.69,.95,1.01,1.45,.2,.31,.66,.34,.86,0,.47-.81,.87-1.66,1.3-2.49,.13-.24,.06-.54-.18-.68-.23-.13-.56-.06-.68,.18h0Z"/>
              <path class="cls-12" d="M73.67,122.44c-.62,3.96-5.33,6.5-10.53,5.69-5.2-.81-8.91-4.68-8.29-8.63,.62-3.96,5.33-6.5,10.53-5.69,5.2,.81,8.91,4.68,8.29,8.63Z"/>
              <path class="cls-12" d="M135.25,117.51c.81,3.92-2.7,7.96-7.85,9.03-5.15,1.07-9.99-1.24-10.8-5.16-.81-3.92,2.7-7.96,7.85-9.03,5.15-1.07,9.99,1.24,10.8,5.16Z"/>
            </g>
          </g>
        </g>
      </g>
    </g>
  </g>
</svg>