<?xml version="1.0" encoding="UTF-8"?>
<svg xmlns="http://www.w3.org/2000/svg" viewBox="0 0 188.32 188.32">
  <defs>
    <style>
      .cls-1 {
        stroke-width: 1.5px;
      }

      .cls-1, .cls-2 {
        fill: none;
        stroke: #4d2a22;
        stroke-miterlimit: 10;
      }

      .cls-3 {
        fill: #f7fffa;
      }

      .cls-4 {
        fill: #f9f1e4;
      }

      .cls-5 {
        fill: #eea47d;
      }

      .cls-6 {
        fill: #e55041;
      }

      .cls-7 {
        fill: #fdc59d;
      }

      .cls-8 {
        fill: #a90d00;
      }

      .cls-9 {
        fill: #bcedf4;
      }

      .cls-10 {
        fill: #ca2f16;
      }

      .cls-11 {
        fill: #38aa6f;
      }

      .cls-12 {
        fill: #4d2a22;
      }

      .cls-13 {
        fill: #4f0200;
      }

      .cls-14 {
        fill: #7c5850;
      }

      .cls-15 {
        fill: #7c0e09;
      }

      .cls-16 {
        fill: #fca691;
        mix-blend-mode: multiply;
        opacity: .61;
      }

      .cls-2 {
        stroke-width: 2px;
      }

      .cls-17 {
        isolation: isolate;
      }
    </style>
  </defs>
  <g class="cls-17">
    <g id="Layer_2" data-name="Layer 2">
      <g id="OBJECTS">
        <g>
          <circle class="cls-9" cx="94.16" cy="94.16" r="94.16" transform="translate(-10.57 11.92) rotate(-6.86)"/>
          <g>
            <path class="cls-12" d="M28.09,61.2c-3.53,8.06-6.47,17.62-7.99,28.76,0,0-16.88,11.98-9.66,27.46,5.93,12.71,23.3,12.29,23.3,12.29,0,0,8.05,20.76,27.96,22.88,0,0,38.69,1.78,60.74,.45,21.45-1.3,30.35-25.02,30.35-25.02,0,0,20.15,4.08,21.25-22.3,.7-16.75-13.28-28.87-13.28-28.87,0,0-1.23-42.54-31.77-55.18-12.33-5.1-40.08-6.09-56.94-3.09-22.37,3.97-34.85,21.82-43.96,42.64Z"/>
            <g>
              <g>
                <path class="cls-11" d="M94.16,188.32c15.53,0,30.17-3.79,43.09-10.45-.91-3.95-3.61-14.21-8.33-20.45-7.96-10.51-52.09-13.64-62.32-1.71-5.31,6.2-9.26,19.26-10.69,24.49,11.69,5.21,24.63,8.12,38.25,8.12Z"/>
                <path class="cls-6" d="M78.5,149.71c-5.23,1.24-9.5,3.2-11.9,6-5.31,6.2-9.26,19.26-10.69,24.49,6.51,2.9,13.42,5.06,20.6,6.43-2.95-13.36,.14-29.37,1.99-36.92Z"/>
                <path class="cls-6" d="M114.69,186.05c7.94-1.77,15.51-4.55,22.56-8.18-.91-3.95-3.61-14.21-8.33-20.45-2.53-3.34-8.71-5.93-16.3-7.53,1.83,7.5,4.79,23.02,2.07,36.17Z"/>
                <path class="cls-4" d="M97.73,155.95c-.36-.12-6.39,8.71-9.25,6.93-2.86-1.78-7.36-11.52-5.33-13.42,2.02-1.9,26.67-1.72,27.1,.86,.33,2.01-1.81,14.1-4.9,13.51-3.09-.59-7.61-7.87-7.61-7.87Z"/>
                <g>
                  <path class="cls-10" d="M65.53,157.07c-.28,.38-.55,.78-.82,1.2-.04,.07-.08,.14-.13,.2-.24,.38-.48,.77-.72,1.18-.05,.09-.11,.18-.16,.27-.26,.45-.51,.91-.75,1.37-.06,.11-.11,.22-.17,.32-.22,.43-.44,.86-.65,1.31-.03,.07-.07,.14-.1,.21-.23,.49-.46,.99-.69,1.49-.06,.13-.12,.26-.17,.39-.22,.5-.44,1-.65,1.51-.02,.05-.04,.11-.07,.16-.2,.47-.38,.95-.57,1.42-.05,.13-.1,.25-.15,.38-.19,.5-.38,1-.57,1.49-.04,.1-.07,.2-.11,.31-.16,.44-.32,.88-.47,1.31-.03,.1-.07,.19-.1,.29-.17,.49-.33,.97-.49,1.44-.04,.11-.07,.22-.11,.33-.15,.45-.29,.9-.43,1.33,0,.03-.02,.05-.03,.08-.15,.46-.29,.91-.42,1.34-.03,.09-.05,.17-.08,.26-.13,.43-.25,.84-.37,1.24,0,0,0,.02,0,.03-.12,.41-.23,.8-.34,1.17,0,.02-.01,.04-.02,.07-.11,.37-.2,.72-.29,1.04,5,2.23,10.24,4,15.65,5.34,.13-14.86-2.23-25.95-4.12-30.69-.3,.28-.59,.56-.84,.86-.3,.35-.59,.72-.88,1.11-.06,.09-.13,.17-.19,.26Z"/>
                  <path class="cls-10" d="M136.83,176.16s-.01-.05-.02-.07c-.08-.31-.16-.64-.25-.98-.01-.05-.03-.1-.04-.15-.09-.34-.19-.68-.29-1.05,0-.01,0-.03-.01-.04-.1-.36-.21-.73-.32-1.1-.03-.09-.05-.18-.08-.26-.11-.38-.23-.76-.36-1.16-.02-.05-.03-.11-.05-.16-.11-.35-.23-.71-.35-1.07-.03-.1-.07-.2-.1-.3-.13-.4-.27-.8-.42-1.21-.03-.09-.07-.19-.1-.28-.13-.37-.27-.74-.42-1.12-.03-.07-.05-.14-.08-.21-.16-.41-.33-.83-.5-1.25-.04-.11-.09-.22-.14-.33-.18-.42-.36-.85-.55-1.27-.02-.04-.04-.08-.05-.12-.18-.4-.36-.79-.55-1.18-.05-.09-.09-.19-.14-.28-.2-.41-.41-.82-.62-1.22-.04-.08-.08-.15-.12-.23-.2-.36-.4-.72-.61-1.07-.04-.06-.07-.13-.11-.19-.23-.39-.47-.76-.71-1.13-.05-.08-.11-.16-.16-.24-.25-.37-.51-.74-.77-1.09,0,0,0,0,0,0-.27-.35-.57-.69-.92-1.02-.06-.06-.14-.12-.21-.18-.3-.28-.63-.56-.98-.82-.05-.04-.11-.08-.16-.12-.4-.29-.82-.58-1.28-.85-.02-.01-.04-.02-.06-.03-.5-.3-1.03-.59-1.59-.87,0,0,0,0,0,0-2.99,7.25-2.4,20.47-1.1,30.42,5.08-1.61,9.99-3.64,14.66-6.05-.11-.48-.25-1.06-.41-1.71Z"/>
                </g>
              </g>
              <polygon class="cls-7" points="100.83 142.02 101.63 151.98 97.53 155.88 93.48 152.18 93 141.93 100.83 142.02"/>
              <polygon class="cls-5" points="100.83 142.02 93 141.93 93.32 148.78 101.4 149.06 100.83 142.02"/>
            </g>
            <g>
              <path class="cls-7" d="M162.23,105.8c-.33,9.55-7.71,17.05-16.46,16.74-8.76-.31-15.58-8.3-15.25-17.85,.33-9.55,7.7-17.05,16.46-16.74,8.76,.31,15.58,8.3,15.25,17.85Z"/>
              <path class="cls-5" d="M158.98,105.47c-.2,5.63-4.54,10.05-9.71,9.87-5.16-.18-9.19-4.89-8.99-10.53,.2-5.63,4.54-10.05,9.71-9.87,5.16,.18,9.19,4.89,8.99,10.53Z"/>
              <path class="cls-7" d="M57.06,100.56c-.33,9.55-7.7,17.05-16.46,16.74-8.76-.31-15.58-8.3-15.25-17.85,.34-9.55,7.71-17.05,16.46-16.74,8.76,.31,15.58,8.3,15.25,17.85Z"/>
              <path class="cls-5" d="M50.26,100.18c-.2,5.63-4.54,10.05-9.71,9.87-5.16-.18-9.19-4.89-8.99-10.53,.2-5.63,4.54-10.05,9.71-9.87,5.16,.18,9.19,4.89,8.99,10.53Z"/>
              <path class="cls-7" d="M105.12,50.39l-18.13-.64c-42.39,2.87-42.9,21.37-43.72,44.7l-.24,6.97c-.82,23.33,17.43,42.9,40.76,43.72l18.13,.64c23.33,.82,42.9-17.43,43.72-40.76l.24-6.97c.82-23.33,6.73-46.52-40.76-47.66Z"/>
              <line class="cls-2" x1="42.49" y1="88.3" x2="49.1" y2="90.76"/>
              <line class="cls-2" x1="137.41" y1="89.59" x2="145.7" y2="84.93"/>
              <path class="cls-13" d="M109.37,78.23c1.96-.06,3.93,.18,5.85,.57,.96,.19,1.9,.45,2.82,.75,.46,.15,.92,.31,1.38,.49,.51,.2,.97,.45,1.54,.38,.6-.07,1.19-.72,.76-1.33-.61-.88-1.83-1.16-2.82-1.49s-2.08-.6-3.14-.79c-2.13-.4-4.24-.44-6.4-.28-1.09,.08-1.11,1.74,0,1.71h0Z"/>
              <path class="cls-13" d="M78.94,77.89c-2.16-.23-4.27-.26-6.42,.07-1.05,.16-2.09,.38-3.12,.67s-2.23,.53-2.89,1.41c-.32,.43,0,1.21,.53,1.3,1,.16,1.97-.39,2.92-.67s1.98-.53,3-.7c1.96-.34,3.99-.5,5.97-.37,1.11,.07,1.07-1.6,0-1.71h0Z"/>
              <g>
                <path class="cls-13" d="M85.95,107.66c3.73,4.89,11.25,4.6,14.98-.15,.32-.41-.25-.99-.57-.57-1.65,2.12-4.18,3.47-6.88,3.55s-5.32-1.17-7.17-3.09c-.17-.17-.5,.06-.34,.27h0Z"/>
                <path class="cls-13" d="M90.43,113.86c1.06,.47,2.25,.72,3.41,.61,.58-.05,1.15-.17,1.7-.36,.26-.09,.52-.2,.77-.32s.58-.24,.65-.54c.03-.14-.04-.29-.19-.33-.26-.07-.46,.08-.69,.19-.24,.12-.49,.21-.74,.29-.5,.16-1.03,.27-1.55,.31-1.07,.09-2.12-.03-3.12-.42-.32-.12-.55,.42-.23,.56h0Z"/>
                <path class="cls-13" d="M99.99,107.41s.04-.02,.06-.03c.03-.02-.07,.03-.02,0,0,0,.02,0,.03-.01,.05-.02,.09-.02,.14-.03-.1,.03-.03,0,0,0,.02,0,.05,0,.07,0,.01,0,.03,0,.04,0,.03,0-.09-.02-.03,0,.02,0,.05,0,.07,.01s.05,.01,.07,.02c.02,0,.09,.04,.03,.01s.01,0,.03,.02c.02,.01,.04,.02,.06,.04,0,0,.06,.04,.06,.04,0,0-.07-.06-.04-.03,0,0,.02,.02,.03,.03,.04,.03,.07,.07,.1,.11l-.06-.08c.05,.07,.09,.15,.15,.21,.12,.12,.33,.16,.48,.06s.24-.27,.18-.45c-.06-.19-.24-.35-.42-.46-.13-.08-.27-.13-.42-.15-.31-.05-.65-.02-.92,.17-.13,.09-.2,.27-.11,.41s.27,.19,.41,.11h0Z"/>
                <path class="cls-13" d="M104.79,122.91c.64,0,.64-.99,0-.99s-.64,.99,0,.99h0Z"/>
              </g>
              <g>
                <circle class="cls-10" cx="149.81" cy="116.91" r="4.5"/>
                <path class="cls-8" d="M148.15,117.77s.62-1.8,2.2-2.59c0,0,1.13,1.35,1.47,3.04,0,0-1.63,.9-3.66-.45Z"/>
                <path class="cls-15" d="M149.19,116.72s.5-.5,1.49-.32c0,0,0,1.17-.54,1.44,0,0-.86-.23-.95-1.13Z"/>
                <path class="cls-8" d="M147.92,114.77s2.57-2.15,4.7,.63c0,0-1.85-1.12-4.7-.63Z"/>
                <path class="cls-8" d="M153.26,117.49s.77,3.66-4.11,2.48c0,0,2.48-.23,4.11-2.48Z"/>
                <path class="cls-8" d="M147.12,115.46s-1.76,2.3,1.31,4.02c0,0-1.22-2.89-1.31-4.02Z"/>
              </g>
              <g>
                <path class="cls-10" d="M42.42,112.87c0,2.48-2.01,4.5-4.5,4.5s-4.5-2.01-4.5-4.5,2.01-4.5,4.5-4.5,4.5,2.01,4.5,4.5Z"/>
                <path class="cls-8" d="M36.26,113.73s.62-1.8,2.2-2.59c0,0,1.13,1.35,1.47,3.04,0,0-1.63,.9-3.66-.45Z"/>
                <path class="cls-15" d="M37.31,112.68s.5-.5,1.49-.32c0,0,0,1.17-.54,1.44,0,0-.86-.23-.95-1.13Z"/>
                <path class="cls-8" d="M36.03,110.73s2.57-2.15,4.7,.63c0,0-1.85-1.12-4.7-.63Z"/>
                <path class="cls-8" d="M41.37,113.45s.77,3.66-4.11,2.48c0,0,2.48-.23,4.11-2.48Z"/>
                <path class="cls-8" d="M35.23,111.42s-1.76,2.3,1.31,4.02c0,0-1.22-2.89-1.31-4.02Z"/>
              </g>
              <path class="cls-12" d="M125.7,25.21c-41.99-9.12-94.29-5.52-90.69,59.02,0,0,2.86,3.08,5.33,8.58,1,2.23,4.27,1.8,4.6-.63,.73-5.42,8.57-25.5,10.21-31.41,5.32,.78,10.65,1.3,15.88,1.64-4.28,2.5-9.02,4.5-13.68,4.95,0,0,28.9,10.15,41.92-4.27,0,0-8.77,13.49-29.7,12.56,0,0,32.06,16.22,60.12-15.61,.07,0,.13-.01,.2-.02,.05,1.81,.82,16.29,12.19,24.93,1.49,10.25,2.1,19.67,3.28,19.67,2.42,0,.72-15.83,10.28-13.96,0,0,10.04-56.77-29.96-65.45Z"/>
              <path class="cls-14" d="M72.9,38.22c3.21,2.27-3.21,6.99-6.42,5.86-3.21-1.13,3.21-8.12,6.42-5.86Z"/>
              <path class="cls-14" d="M69.78,29.43c3.32,4.07-6.13,11.42-11.14,8.63-5.01-2.78,7.72-12.83,11.14-8.63Z"/>
              <g>
                <g>
                  <path class="cls-3" d="M113.53,112.65h0c5.87,0,10.62-4.77,10.62-10.64v-5.63c-.01-5.87-4.78-10.62-10.65-10.61h0c-5.87,0-10.62,4.77-10.62,10.64v5.63c.01,5.87,4.78,10.62,10.65,10.61Z"/>
                  <path class="cls-12" d="M102.88,96.41c0-3.18,1.39-6.02,3.6-7.97,.84-.3,1.72-.48,2.64-.48,5.18,0,9.38,5.17,9.39,11.55,0,6.39-4.18,11.57-9.36,11.58-.47,0-.93-.06-1.38-.14-2.93-1.89-4.88-5.17-4.88-8.92v-5.63Z"/>
                </g>
                <g>
                  <path class="cls-3" d="M73.91,112.65h0c-5.87,.08-10.69-4.61-10.78-10.48l-.08-5.63c-.08-5.87,4.61-10.69,10.48-10.78h0c5.87-.08,10.69,4.61,10.78,10.48l.08,5.63c.08,5.87-4.61,10.69-10.48,10.78Z"/>
                  <path class="cls-12" d="M84.31,96.24c-.05-3.18-1.49-6-3.72-7.92-.84-.29-1.73-.45-2.65-.44-5.18,.07-9.3,5.31-9.21,11.7,.09,6.39,4.36,11.51,9.54,11.43,.47,0,.93-.07,1.38-.16,2.9-1.93,4.8-5.25,4.75-8.99l-.08-5.63Z"/>
                </g>
              </g>
              <g>
                <path class="cls-2" d="M89.24,97.27c0,11.4-9.24,20.64-20.64,20.64s-20.64-9.24-20.64-20.64,8.67-15.83,20.07-15.83,21.2,4.43,21.2,15.83Z"/>
                <path class="cls-2" d="M97.48,97.27c0,11.4,9.24,20.64,20.64,20.64s20.64-9.24,20.64-20.64-8.67-15.83-20.07-15.83-21.2,4.43-21.2,15.83Z"/>
                <path class="cls-1" d="M88.72,101.25s3.76-2.72,9.45,.13"/>
              </g>
              <path class="cls-13" d="M94.29,100.99c-.43,.83-.9,1.65-1.3,2.49l.78-.1c-.37-.47-.75-.94-1.16-1.37-.2-.21-.41-.42-.62-.63s-.46-.41-.58-.68c-.14-.31-.65-.22-.72,.09-.09,.36-.11,.75-.16,1.12-.04,.34-.06,.68-.07,1.02s-.02,.68-.01,1.02c0,.38-.04,.81,.14,1.16s.65,.21,.76-.1,.03-.73,.03-1.06,0-.68,0-1.02c.01-.68,.09-1.36,.09-2.04l-.59,.34c.25,.13,.44,.39,.61,.6s.35,.46,.51,.69c.34,.48,.69,.95,1.01,1.45,.2,.31,.66,.34,.86,0,.47-.81,.87-1.66,1.3-2.49,.13-.24,.06-.54-.18-.68-.23-.13-.56-.06-.68,.18h0Z"/>
              <path class="cls-16" d="M73.4,121.35c-.62,3.96-5.33,6.5-10.53,5.69-5.2-.81-8.91-4.68-8.29-8.63,.62-3.96,5.33-6.5,10.53-5.69,5.2,.81,8.91,4.68,8.29,8.63Z"/>
              <path class="cls-16" d="M134.98,116.43c.81,3.92-2.7,7.96-7.85,9.03-5.15,1.07-9.99-1.24-10.8-5.16-.81-3.92,2.7-7.96,7.85-9.03,5.15-1.07,9.99,1.24,10.8,5.16Z"/>
            </g>
          </g>
        </g>
      </g>
    </g>
  </g>
</svg>