<svg width="63" height="18" viewBox="0 0 63 18" fill="none" xmlns="http://www.w3.org/2000/svg">
<rect x="0.5" y="0.664185" width="62" height="16.134" rx="4.5" fill="white" stroke="#F05A23"/>
<path d="M20.5393 6.969C20.4313 7.311 20.3623 7.539 20.3323 7.653L19.6213 9.876H21.8803L21.1693 7.653C21.0073 7.173 20.8633 6.726 20.7373 6.312C20.6833 6.51 20.6173 6.729 20.5393 6.969ZM18.3343 12L20.3683 5.889H21.1693L23.2033 12H22.5823L22.0153 10.335H19.4773L18.9463 12H18.3343ZM26.0782 11.865C25.8682 12.003 25.6222 12.072 25.3402 12.072C24.9682 12.072 24.6982 11.961 24.5302 11.739C24.3682 11.511 24.2872 11.145 24.2872 10.641V8.148H23.6572V7.725H24.3322V6.366L24.8902 6.213V7.725H25.8172V8.148H24.8902V10.911C24.8902 11.385 25.0822 11.622 25.4662 11.622C25.5922 11.622 25.7602 11.574 25.9702 11.478L26.0782 11.865ZM29.7488 7.725H30.3428V12H29.7668V11.199C29.6588 11.481 29.4638 11.703 29.1818 11.865C28.8998 12.021 28.5968 12.099 28.2728 12.099C27.9068 12.099 27.6218 12.021 27.4178 11.865C27.2258 11.727 27.0878 11.535 27.0038 11.289C26.9258 11.061 26.8808 10.815 26.8688 10.551C26.8628 10.479 26.8598 10.356 26.8598 10.182V7.725H27.4538V10.308C27.4538 10.758 27.5228 11.094 27.6608 11.316C27.8048 11.532 28.0418 11.64 28.3718 11.64C28.7738 11.64 29.0948 11.514 29.3348 11.262C29.5388 11.058 29.6678 10.815 29.7218 10.533C29.7398 10.419 29.7488 10.302 29.7488 10.182V7.725ZM32.2918 7.725V8.526C32.3698 8.346 32.4808 8.19 32.6248 8.058C32.7688 7.926 32.9218 7.836 33.0838 7.788C33.2278 7.746 33.3868 7.725 33.5608 7.725V8.265C33.0988 8.265 32.7718 8.421 32.5798 8.733C32.3998 9.015 32.3098 9.363 32.3098 9.777V12H31.7158V7.725H32.2918ZM36.499 12V5.898H37.381L39.334 10.308L41.341 5.898H42.133V12H41.584V6.672L39.595 10.956H39.037L37.084 6.654V12H36.499ZM46.2793 9.507C46.2673 8.553 45.8863 8.076 45.1363 8.076C44.7523 8.076 44.4643 8.217 44.2723 8.499C44.0803 8.763 43.9663 9.099 43.9303 9.507H46.2793ZM46.4503 8.22C46.7143 8.592 46.8463 9.069 46.8463 9.651C46.8463 9.765 46.8433 9.846 46.8373 9.894H43.9213C43.9213 10.404 44.0173 10.815 44.2093 11.127C44.4193 11.481 44.7403 11.658 45.1723 11.658C45.7303 11.658 46.0903 11.412 46.2523 10.92L46.7113 11.028C46.6453 11.256 46.5313 11.454 46.3693 11.622C46.2133 11.79 46.0333 11.91 45.8293 11.982C45.6433 12.048 45.4303 12.087 45.1903 12.099H45.1723C44.5363 12.099 44.0623 11.871 43.7503 11.415C43.4623 11.007 43.3183 10.488 43.3183 9.858C43.3183 9.186 43.4803 8.649 43.8043 8.247C44.1343 7.839 44.5843 7.635 45.1543 7.635C45.7363 7.635 46.1683 7.83 46.4503 8.22ZM47.9226 12V7.725H48.4986V7.86V8.121V8.418V8.535C48.6126 8.229 48.8226 7.998 49.1286 7.842C49.4166 7.704 49.7046 7.635 49.9926 7.635C50.3166 7.635 50.5806 7.698 50.7846 7.824C50.9946 7.956 51.1386 8.109 51.2166 8.283C51.3066 8.493 51.3666 8.7 51.3966 8.904C51.4086 9.072 51.4146 9.18 51.4146 9.228V9.561V12H50.8296V9.489C50.8296 9.153 50.7936 8.868 50.7216 8.634C50.6436 8.412 50.4996 8.262 50.2896 8.184C50.1876 8.142 50.0586 8.121 49.9026 8.121C49.4886 8.121 49.1706 8.232 48.9486 8.454C48.7566 8.646 48.6246 8.94 48.5526 9.336C48.5226 9.528 48.5076 9.72 48.5076 9.912V12H47.9226ZM55.4997 7.725H56.0937V12H55.5177V11.199C55.4097 11.481 55.2147 11.703 54.9327 11.865C54.6507 12.021 54.3477 12.099 54.0237 12.099C53.6577 12.099 53.3727 12.021 53.1687 11.865C52.9767 11.727 52.8387 11.535 52.7547 11.289C52.6767 11.061 52.6317 10.815 52.6197 10.551C52.6137 10.479 52.6107 10.356 52.6107 10.182V7.725H53.2047V10.308C53.2047 10.758 53.2737 11.094 53.4117 11.316C53.5557 11.532 53.7927 11.64 54.1227 11.64C54.5247 11.64 54.8457 11.514 55.0857 11.262C55.2897 11.058 55.4187 10.815 55.4727 10.533C55.4907 10.419 55.4997 10.302 55.4997 10.182V7.725Z" fill="#F05A23"/>
<path d="M11.75 6.25L13.75 8.25M7 13H9L14.25 7.75C14.5152 7.48478 14.6642 7.12507 14.6642 6.75C14.6642 6.37493 14.5152 6.01522 14.25 5.75C13.9848 5.48478 13.6251 5.33578 13.25 5.33578C12.8749 5.33578 12.5152 5.48478 12.25 5.75L7 11V13Z" stroke="#F05A23" stroke-width="2" stroke-linecap="round" stroke-linejoin="round"/>
</svg>
