<svg width="412" height="458" viewBox="0 0 412 458" fill="none" xmlns="http://www.w3.org/2000/svg">
<path d="M428.238 171.606L400 187.906C393.553 185.348 387.102 182.792 381.202 180.453C381.296 186.231 381.395 192.41 381.5 198.586L353.262 214.887C355.414 211.354 357.954 208.015 359.651 204.254C366.21 189.728 364.615 174.75 353.034 160.073C335.523 137.885 306.673 136.733 291.538 145.867C287.194 148.491 283.871 152.403 280.311 155.528C277.966 144.914 270.582 136.248 260.261 129.256C243.427 117.85 223.938 116.489 209.316 126.1C197.039 134.171 192.604 146.328 194.375 161.197C194.941 165.95 196.47 170.741 197.537 175.451C167.934 153.364 139.845 160.061 128.318 175.922C116.43 192.273 123.241 221.657 145.679 234.64C137.43 234.944 130.742 237.46 125.437 242.25C113.346 253.175 108.791 267.028 115.776 283.917C122.853 301.028 136.882 311.357 155.802 315.294C163.963 316.992 171.74 316.254 179.448 315.216L151.209 331.517C144.632 329.026 138.055 326.536 132.06 324.265C132.266 329.978 132.487 336.087 132.709 342.196L104.471 358.497C104.92 357.746 105.301 356.941 105.832 356.251C119.225 338.822 116.668 315.951 99.373 298.683C82.0552 281.384 49.9126 279.372 35.7571 294.734C34.2712 296.35 33.0492 298.183 31.6068 300.049C28.1265 289.31 24.6942 284.014 16.9263 277.275C-0.406139 262.24 -23.6471 259.006 -39.9064 270.018C-54.3872 279.822 -57.6187 294.558 -53.3272 312.085C-52.7502 314.433 -52.0374 316.775 -51.3876 319.117C-58.8079 309.431 -66.232 299.74 -73.6523 290.054C-71.8744 284.41 -70.1014 278.769 -68.4765 273.603C-74.7517 272.781 -81.4956 271.897 -88.2395 271.013C-95.6598 261.328 -103.084 251.637 -110.504 241.951C-103.458 246.758 -96.2333 251.129 -88.0777 253.728C-69.8749 259.523 -50.9072 254.897 -41.4428 242.193C-32.0666 229.611 -33.4296 209.831 -44.5593 195.074C-48.2093 190.236 -52.7597 186.359 -58.5743 182.894C-50.7331 182.653 -44.7262 180.32 -39.4414 176.467C-26.9065 167.33 -22.0574 150.012 -27.9083 134.557C-33.8902 118.766 -50.1165 105.715 -67.7441 102.384C-76.1276 100.799 -84.1589 101.048 -92.5648 102.605C-84.8588 93.0406 -80.5795 82.5775 -82.4028 69.9137C-84.2305 57.1802 -90.8941 46.2915 -102.548 37.8067C-113.254 30.0102 -124.976 27.2379 -137.106 28.3065C-149.281 29.3798 -158.982 33.9755 -164.833 44.3122C-166.489 36.0182 -170.526 29.2644 -176.735 23.5049C-190.507 10.7354 -206.223 4.43654 -223.346 8.27205C-240.538 12.1262 -249.676 23.2768 -251.265 40.0203C-252.003 47.6729 -250.052 55.3705 -247.547 63.0666L-269.812 34.0041C-268.135 28.2375 -266.458 22.4708 -264.923 17.2056C-271.154 16.4879 -277.775 15.728 -284.399 14.9632L-306.664 -14.0992C-303.681 -12.2222 -300.78 -10.2041 -297.712 -8.49153C-281.436 0.5915 -265.399 3.01957 -250.266 -4.15527C-223.353 -16.9159 -228.533 -50.486 -245.745 -66.5737C-248.324 -68.9872 -251.298 -71.0357 -254.087 -73.2558C-251.821 -73.6168 -249.526 -73.8288 -247.361 -74.3485C-229.243 -78.6719 -218.071 -98.3678 -222.892 -117.373C-228.182 -138.219 -250.153 -154.507 -273.86 -154.958C-278.701 -155.054 -283.438 -154.408 -288.229 -154.099C-278.818 -159.532 -269.402 -164.968 -259.991 -170.4L-241.194 -162.931C-241.292 -168.714 -241.391 -174.901 -241.49 -181.08C-232.079 -186.513 -222.663 -191.948 -213.252 -197.381C-215.009 -194.661 -216.951 -192.044 -218.495 -189.202C-226.97 -173.592 -224.049 -155.115 -211.414 -140.584C-195.963 -122.808 -169.934 -118.849 -152.629 -127.588C-147.429 -130.214 -143.48 -134.005 -140.706 -139.256C-139.942 -136.856 -139.463 -134.957 -138.739 -133.114C-131.787 -115.497 -108.66 -101.22 -88.8354 -102.272C-67.7748 -103.387 -53.0639 -118.867 -54.0975 -139.509C-54.4013 -145.607 -56.156 -151.857 -57.2069 -157.848C-46.6183 -149.847 -34.5723 -144.269 -21.1484 -143.896C-7.52285 -143.515 3.39292 -147.974 10.8826 -157.537C17.8201 -166.391 19.0569 -177.012 15.9424 -188.685C12.8459 -200.289 6.24246 -210.063 -5.88851 -217.181C3.01137 -217.434 9.84944 -220.203 15.1784 -225.245C26.8811 -236.329 31.2127 -250.161 23.986 -266.954C16.7345 -283.798 2.89458 -293.926 -15.7836 -297.785C-23.957 -299.463 -31.7274 -298.735 -39.4418 -297.715C-30.0307 -303.147 -20.6148 -308.583 -11.2037 -314.015C-4.63023 -311.53 1.94329 -309.045 8.32833 -306.631C8.01896 -309.372 7.53846 -312.419 7.36401 -315.433C7.18734 -318.532 7.30905 -321.609 7.29708 -324.695C16.7081 -330.128 26.1241 -335.563 35.5351 -340.996C35.0854 -340.245 34.6924 -339.447 34.1722 -338.742C29.2533 -332.065 26.2106 -324.571 25.727 -315.945C24.7005 -297.661 37.8814 -278.394 56.4512 -270.808C76.1527 -262.763 100.165 -267.403 107.951 -282.253C107.993 -282.335 108.296 -282.279 108.558 -282.286C109.009 -280.79 109.394 -279.278 109.928 -277.794C116.224 -260.29 139.051 -245.471 158.864 -245.996C180.952 -246.577 196.323 -262.524 194.891 -284.007C194.504 -289.811 192.599 -295.743 191.393 -301.616L213.658 -272.553C211.875 -266.906 210.093 -261.259 208.468 -256.094C214.77 -255.273 221.505 -254.391 228.245 -253.512L250.51 -224.45C246.301 -227.029 242.244 -229.933 237.868 -232.126C220.957 -240.597 204.813 -241.46 190.647 -232.885C169.027 -219.798 172.886 -193.285 184.363 -177.846C188.039 -172.901 192.591 -168.866 198.649 -165.403C187.338 -165.017 179.583 -160.439 173.572 -153.326C160.586 -137.968 163.04 -115.746 179.934 -99.4598C193.455 -86.4303 209.348 -82.5029 226.363 -84.1514C228.259 -84.3351 230.12 -84.6728 232.349 -84.9906C213.514 -61.493 222.989 -35.2301 241.396 -21.1113C252.178 -12.8388 264.195 -9.70131 276.676 -10.778C288.961 -11.8356 299.023 -16.2271 304.677 -26.5446C305.546 -23.9532 306.015 -21.7091 307.039 -19.6403C315.243 -3.10117 329.238 6.50429 347.418 9.60316C372.193 13.8232 392.151 -2.58999 391.252 -26.201C391.012 -32.5449 388.839 -39.1026 387.552 -45.5576L409.817 -16.4951C408.134 -10.7179 406.46 -4.93843 404.936 0.313381C411.126 1.02513 417.77 1.78659 424.404 2.54578L446.669 31.6082C441.582 28.6621 436.665 25.2781 431.377 22.8386C403.711 10.0897 375.504 21.4442 371.881 46.632C369.789 61.1511 377.352 80.894 393.915 90.2958C394.015 90.3535 394.007 90.6182 394.073 90.8692C393.001 90.9822 391.921 91.0852 390.856 91.216C370.552 93.7587 357.148 115.473 363.184 136.018C369.049 155.974 389.367 171.222 411.997 172.338C417.468 172.605 422.826 171.883 428.234 171.608L428.238 171.606ZM190.688 39.257C201.151 38.131 206.731 35.7629 212.745 30.0294C229.017 14.5153 227.083 -10.2906 207.868 -27.9392C195.022 -39.7395 180.018 -43.458 164.091 -42.242C161.709 -42.0598 159.392 -41.6472 156.866 -41.316C176.964 -66.4176 163.87 -93.5182 146.712 -105.85C135.875 -113.636 124.102 -116.538 111.863 -115.457C99.6695 -114.38 89.9826 -109.757 84.2077 -99.4492C82.2106 -109.324 76.6462 -116.945 68.7671 -123.454C49.0566 -139.732 23.9124 -141.051 8.15606 -126.377C-1.59637 -117.293 -4.02662 -105.259 -1.46194 -91.5635C-0.787907 -87.9707 0.431977 -84.3894 1.41872 -80.7458C-28.494 -103.211 -56.2556 -95.6188 -67.1688 -81.4781C-74.0261 -72.5837 -75.4457 -62.0082 -72.3825 -50.3564C-69.3098 -38.674 -62.7242 -28.7304 -50.5721 -21.7038C-61.487 -20.7363 -67.9877 -17.7281 -74.2725 -10.9276C-88.9564 4.96347 -86.2196 29.2409 -67.6274 45.7097C-54.0705 57.7139 -38.6513 61.3153 -22.2813 59.5403C-20.5194 59.347 -18.7782 59.0718 -16.6297 58.7783C-36.4353 83.3639 -24.6357 110.388 -6.10472 123.871C11.3139 136.544 43.9675 137.648 55.6783 117.518C60.3031 130.429 64.9675 137.095 74.9567 143.773C91.7052 154.976 108.617 157.867 124.351 149.341C138.985 141.414 144.227 128.046 141.784 111.238C141.154 106.904 139.725 102.555 138.687 98.3047C168.748 120.88 197.893 113.573 208.86 96.6332C219.645 79.9791 212.326 51.59 190.673 39.2654L190.688 39.257ZM343.782 131.709C341.581 111.357 346.581 94.5303 362.794 82.743C350.604 63.7421 350.214 45.4885 357.495 27.6054C335.569 26.4372 316.385 19.1124 300.958 2.00892C282.143 10.5647 262.269 7.93074 241.786 -1.593C241.692 -1.39443 241.61 -1.31816 241.621 -1.23054C241.729 0.101891 241.878 1.43252 241.959 2.76615C242.995 19.3528 238.583 33.5279 226.399 44.2685C222.862 47.3871 222.863 47.4077 225.356 51.9814C233.867 67.5634 234.462 82.6564 229.727 97.4006C229.191 99.0756 228.523 100.697 227.888 102.415C249.786 103.613 268.979 110.875 284.376 128.003C303.164 119.55 322.976 122.075 343.769 131.702L343.782 131.709ZM161.1 -228.678C139.21 -229.874 119.881 -237.093 104.635 -254.272C85.6501 -245.792 65.8485 -248.395 45.2785 -257.941C47.3983 -237.622 42.4945 -220.743 26.2004 -208.988C38.5021 -189.979 38.7225 -171.736 31.5706 -153.84C32.2517 -153.786 32.6507 -153.741 33.048 -153.718C53.6172 -152.468 71.9947 -145.573 86.8674 -129.487C87.3673 -128.944 89.0118 -128.622 89.6616 -128.91C102.122 -134.506 115.813 -134.691 130.292 -130.85C136.081 -129.314 141.742 -126.967 147.383 -125.02C145.281 -144.894 150.156 -161.858 166.472 -173.546C154.178 -192.682 153.974 -210.877 161.099 -228.67L161.1 -228.678ZM-101.558 19.2837C-101.6 18.477 -101.602 18.0158 -101.653 17.5464C-103.557 -1.47365 -98.8352 -17.482 -83.722 -28.844C-83.1925 -29.2436 -83.055 -30.7322 -83.4725 -31.3873C-93.05 -46.4186 -94.4842 -61.3883 -90.7946 -76.324C-90.0731 -79.2409 -88.9475 -82.0153 -87.9847 -84.9198C-109.717 -86.1485 -129.074 -93.2582 -144.337 -110.514C-163.328 -102.059 -183.16 -104.638 -203.789 -114.215C-201.543 -93.8237 -206.615 -76.934 -222.809 -65.2228C-210.585 -46.1326 -210.261 -27.9642 -217.467 -10.1311C-195.598 -8.95262 -176.388 -1.64973 -160.89 15.5646C-152.24 11.3013 -142.67 9.75159 -132.279 10.5467C-121.8 11.3482 -111.691 14.3149 -101.562 19.2787L-101.558 19.2837ZM-7.34975 142.585C-5.27539 162.395 -10.1498 179.359 -26.5108 191.109C-20.5369 200.062 -17.2784 209.273 -16.5357 218.904C-15.7933 228.572 -17.4808 237.56 -21.1933 246.178C0.764096 247.306 20.0159 254.701 35.4787 271.841C44.2687 267.605 53.8304 266.017 64.2428 266.85C74.6688 267.683 84.7458 270.653 94.7786 275.564C92.5377 255.106 97.563 238.192 113.797 226.487C101.518 207.371 101.295 189.216 108.459 171.4C107.803 171.323 107.195 171.226 106.597 171.188C86.1252 169.919 67.9015 162.95 53.1375 146.959C52.6415 146.422 50.9891 146.126 50.3334 146.425C38.2081 151.971 24.8163 152.208 10.6807 148.596C4.59246 147.037 -1.38044 144.602 -7.34107 142.587L-7.34975 142.585ZM180.699 129.67C174.266 129.018 167.54 128.341 161.147 127.695C159.301 133.241 157.441 138.832 155.671 144.139C162.101 144.778 168.819 145.445 175.222 146.085C177.058 140.581 178.9 135.066 180.708 129.672L180.699 129.67ZM204.394 -50.2449C204.086 -56.2385 203.765 -62.3766 203.462 -68.272C197.155 -70.8678 190.77 -73.4913 184.656 -76.0103C184.962 -70.1021 185.278 -63.8964 185.581 -57.9647C191.863 -55.3833 198.261 -52.7604 204.389 -50.2421L204.394 -50.2449ZM-15.6635 -126.617C-22.1445 -127.277 -28.8076 -127.955 -35.2402 -128.606C-37.0439 -123.143 -38.9088 -117.52 -40.6727 -112.188C-34.1743 -111.524 -27.516 -110.843 -21.1416 -110.194C-19.3264 -115.643 -17.4656 -121.234 -15.6674 -126.622L-15.6635 -126.617ZM-44.6259 93.8084C-44.949 87.5848 -45.2704 81.3819 -45.5814 75.4765C-51.9233 72.8719 -58.3202 70.2412 -64.3848 67.7511C-64.0778 73.6877 -63.7593 79.8778 -63.4397 86.0601C-60.3212 87.1795 -57.0789 88.2129 -53.921 89.5119C-50.7631 90.811 -47.6946 92.3784 -44.6259 93.8084Z" fill="#F8AB8F" fill-opacity="0.08"/>
<path d="M201.068 294.176C201.655 293.267 202.213 292.338 202.826 291.443C211.46 278.815 212.057 264.346 207.399 248.605C207.035 247.369 207.186 245.732 207.831 244.768C216.733 231.555 219.726 216.891 213.712 199.924C213.613 199.646 213.601 199.353 213.547 199.041C217.378 201.232 221.089 203.543 224.961 205.528C237.563 211.992 250.387 213.55 263.229 212.036C265.609 211.756 267.381 212.127 269.604 213.596C284.815 223.646 300.796 228.412 317.716 225.761C318.291 225.67 318.908 225.707 319.506 225.683L291.984 241.595C282.806 239.216 274.138 235.438 265.923 230.353C265.15 229.871 264.091 229.395 263.311 229.459C254.156 230.251 244.878 229.53 235.311 227.301C234.006 235.852 231.181 243.564 226.799 250.613C226.356 251.33 226.729 252.605 226.854 253.621C227.57 259.579 228.399 265.544 229.033 271.497C229.267 273.664 229.075 275.813 229.078 277.967L201.065 294.163L201.068 294.176Z" fill="#F8AB8F" fill-opacity="0.08"/>
<path d="M455.583 144.659C457.855 140.485 460.575 136.509 462.317 132.091C466.276 122.051 465.524 111.188 462.162 100.061C461.578 98.1359 461.639 96.7206 462.708 95.1277C471.255 82.4239 474.216 68.2397 468.579 51.8707C468.426 51.4318 468.474 50.9631 468.43 50.5115L489.929 78.5753C488.276 86.6925 485.814 94.4521 481.325 101.315C481.015 101.791 480.9 102.558 481.074 103.151C483.583 111.771 483.814 120.231 483.337 128.637L455.583 144.659Z" fill="#F8AB8F" fill-opacity="0.08"/>
<path d="M-40.4379 348.438C-35.9824 350.918 -31.6444 353.675 -27.0545 355.817C-15.0851 361.395 -2.98022 362.732 9.04091 361.119C11.0738 360.849 12.5938 361.229 14.4715 362.479C29.4604 372.457 45.2175 377.352 61.9879 374.826C62.6353 374.727 63.3547 374.832 64.0419 374.84L36.7776 390.578C27.6516 387.731 18.7858 384.206 10.5636 378.936C9.99931 378.575 9.15188 378.349 8.53581 378.415C-0.485686 379.352 -9.67411 378.311 -18.9409 376.499C-26.1078 367.144 -33.2709 357.793 -40.4379 348.438Z" fill="#F8AB8F" fill-opacity="0.08"/>
<path d="M246.899 266.349C246.416 263.176 245.628 259.967 245.574 256.853C245.538 254.979 246.821 253.308 247.206 251.447C248.089 247.148 250.813 246.165 255.707 246.099C262.013 246.014 266.649 249.718 271.992 251.843L246.908 266.351L246.899 266.349Z" fill="#F8AB8F" fill-opacity="0.08"/>
<path d="M-5.20215 396.015C2.44966 394.821 9.70263 396.69 16.5663 401.516L4.39471 408.542L-5.20215 396.015Z" fill="#F8AB8F" fill-opacity="0.08"/>
<path d="M309.364 -43.9775C307.4 -53.2497 303.053 -60.7563 295.904 -66.9266C284.404 -76.8509 267.618 -74.7773 263.121 -63.069C261.279 -58.2697 263.056 -52.2647 267.498 -48.2817C269.832 -46.189 273.942 -46.5604 274.904 -49.1174C275.536 -50.8043 275.674 -52.7049 276.05 -54.5047C276.438 -56.3543 276.912 -58.0809 279.437 -58.2591C281.984 -58.4358 283.759 -57.2639 284.669 -55.0865C286.326 -51.1364 288.307 -47.1568 289.134 -43.1538C289.968 -39.133 287.188 -36.7768 283.626 -35.1758C275.889 -31.6924 253.864 -35.6781 247.279 -47.9768C242.819 -56.2998 242.66 -64.2148 245.458 -71.8637C254.025 -95.2793 287.395 -98.0308 307.925 -77.0529C309.63 -75.3129 311.259 -73.5072 312.912 -71.7441C316.286 -72.9764 319.502 -74.4063 322.938 -75.3642C340.908 -80.3752 358.828 -72.7842 370.242 -55.6207C378.345 -43.4317 378.768 -31.5506 371.676 -20.8374C368.138 -15.485 362.513 -13.0475 355.16 -13.637C346.805 -14.3058 338.842 -16.4876 332.044 -22.4198C327.739 -26.1783 326.203 -31.0513 328.808 -35.0115C330.85 -38.1198 333.744 -40.7663 336.689 -43.1817C338.813 -44.928 342.956 -42.3698 343.181 -39.2623C343.32 -37.3768 342.591 -35.5326 342.908 -33.6706C343.206 -31.9347 343.956 -29.8382 345.268 -28.5651C347.156 -26.7426 349.454 -27.1802 351.475 -28.2533C357.875 -31.6584 359.423 -39.0412 355.196 -46.5014C348.459 -58.4019 334.856 -62.9061 322.994 -57.1356C317.116 -54.2773 312.663 -50.0733 309.359 -43.9747L309.364 -43.9775Z" fill="#F8AB8F" fill-opacity="0.08"/>
<path d="M271.714 189.996C266.7 191.517 262.269 193.424 257.444 194.229C243.102 196.626 230.514 191.78 219.624 180.599C208.749 169.438 204.904 154.19 210.403 142.56C214.305 134.317 221.228 130.255 231.937 131.842C238.838 132.867 245.511 134.739 251.295 139.457C256.922 144.043 258.395 149.43 254.844 154.356C253.077 156.814 250.488 158.706 248.26 160.838C246.761 162.274 244.7 161.765 243.232 160.582C242.114 159.681 241.301 157.924 241.136 156.581C240.887 154.514 241.481 152.494 241.43 150.421C241.343 146.98 237.204 144.455 234.031 145.803C224.89 149.692 224.318 161.173 232.852 169.48C242.274 178.653 253.611 180.189 263.866 173.748C268.48 170.853 272.227 167.238 274.553 162.795C276.499 167.012 277.997 171.488 280.58 175.483C283.009 179.24 286.159 182.958 289.741 185.855C299.877 194.053 314.109 192.768 320.065 183.541C323.27 178.576 322.364 172.169 317.872 167.195C316.349 165.509 314.457 164.469 312.617 165.083C311.172 165.563 309.839 166.81 309.203 168.116C308.428 169.698 308.816 171.91 307.993 173.447C307.33 174.69 305.799 175.79 304.306 176.132C302.427 176.566 300.732 175.362 299.872 173.387C298.391 169.978 296.399 166.618 295.487 163.163C294.136 158.082 296.582 154.162 301.647 152.936C312.352 150.356 322.79 152.945 332.267 160.23C338.207 164.794 340.186 171.153 340.646 177.536C341.693 192.13 333.406 203.173 318.146 207.855C304.981 211.899 289.85 207.675 278.083 196.596C275.762 194.409 273.664 192.028 271.714 189.996Z" fill="#F8AB8F" fill-opacity="0.08"/>
<path d="M151.479 234.361C161.192 233.942 168.683 231.071 174.367 225.412C182.697 217.12 179.589 202.907 168.003 195.575C161.609 191.527 155.317 191.444 150.131 195.334C147.53 197.283 148.365 201.397 151.815 202.904C153.764 203.752 155.867 204.142 157.895 204.8C159.97 205.473 161.927 206.259 162.409 208.676C162.858 210.939 161.955 212.299 159.839 212.892C156.677 213.777 153.6 215.004 150.273 215.335C144.442 215.919 139.385 212.919 137.172 207.447C132.983 197.102 133.985 187.585 140.738 180.232C146.047 174.45 154.425 174.029 163.045 175.941C179.497 179.589 190.241 189.589 196.043 204.148C201.687 218.306 197.524 229.352 187.439 238.166C185.857 239.549 184.094 240.748 182.297 242.124C183.864 244.747 185.55 247.351 187.006 250.03C194.859 264.488 192.845 278.797 181.672 288.346C170.484 297.912 153.908 299.17 139.677 291.465C130.724 286.616 125.54 279.831 125.425 270.626C125.337 263.471 126.566 256.836 131.809 251.902C135.008 248.891 139.62 248.129 144.04 250.846C147.985 253.274 151.471 256.559 154.844 259.743C155.612 260.47 155.625 262.66 155.047 263.6C154.466 264.557 152.799 265.259 151.469 265.246C149.475 265.227 147.319 264.173 145.328 264.159C143.571 264.147 141.514 264.533 140.368 265.512C138.776 266.871 139.328 269.003 140.698 271.03C145.199 277.711 153.883 280.568 161.374 277.762C173.578 273.189 176.277 260.956 167.727 248.779C163.693 243.036 158.573 238.287 151.475 234.356L151.479 234.361Z" fill="#F8AB8F" fill-opacity="0.08"/>
<path d="M438.045 91.9916C440.753 98.1473 443.99 103.766 445.621 109.553C450.876 128.208 438.83 141.276 424.282 145.403C411.992 148.884 399.574 146.563 388.287 137.2C384.45 134.016 381.921 130.092 381.155 125.562C379.664 116.724 380.691 108.687 386.745 102.446C389.909 99.1884 394.697 98.3978 399.159 101.17C403.168 103.662 406.758 107.01 410.087 110.357C412.256 112.537 410.195 115.86 406.943 115.648C404.913 115.519 402.783 114.544 400.799 114.54C398.942 114.535 396.743 114.836 395.549 115.844C393.861 117.28 394.542 119.453 396.103 121.573C402.015 129.637 413.275 131.687 420.828 125.99C430.105 118.979 430.213 108.011 421.155 96.8562C417.315 92.1276 412.844 88.0884 407.963 85.4568C412.883 83.8309 418.394 82.5646 423.24 80.3018C433.359 75.5809 436.742 66.1838 432.421 56.5007C430.504 52.2015 427.408 48.6473 423.201 45.9232C417.007 41.9173 410.671 41.7952 405.527 45.4942C402.5 47.6752 403.507 51.922 407.53 53.5166C409.506 54.2986 411.6 54.6944 413.633 55.3132C415.752 55.9618 417.168 57.1603 417.597 59.3052C418.012 61.3781 417.13 62.5737 415.258 63.0907C411.817 64.0436 408.438 65.3437 404.817 65.649C399.272 66.1107 394.948 63.1793 392.433 58.0906C386.867 46.8201 390.968 31.4297 400.94 27.27C409.376 23.7522 418.474 25.2794 427.541 29.3608C454.132 41.3295 462.108 72.7311 442.623 88.4891C440.982 89.8121 439.266 91.0555 438.041 91.9866L438.045 91.9916Z" fill="#F8AB8F" fill-opacity="0.08"/>
<path d="M20.1446 313.107C21.5352 319.56 25.0881 325.82 30.1397 331.562C40.1154 342.888 56.4272 344.153 64.1819 334.184C68.2326 328.976 67.6135 322.541 62.5144 316.783C59.7102 313.618 55.1686 313.876 54.0666 317.36C53.5488 319.003 53.4805 320.82 53.155 322.54C52.7792 324.506 51.7345 325.846 49.3394 325.928C47.0074 326.009 45.4942 324.758 44.6423 322.858C43.0384 319.289 41.0954 315.698 40.2521 312.059C39.1669 307.352 41.6745 303.75 46.3878 302.598C57.217 299.96 67.8527 302.514 77.249 310.041C83.8985 315.366 85.8589 322.718 85.5489 329.958C84.8891 345.457 75.9116 354.6 60.4743 358.07C45.7557 361.377 32.7828 355.8 21.3588 344.747C19.6028 343.05 18.0146 341.206 16.3388 339.413C12.9315 340.657 9.64824 342.155 6.11432 343.097C-11.9624 347.924 -30.6016 339.872 -41.5456 322.644C-49.5053 310.119 -49.0272 294.565 -40.4136 286.103C-37.2361 282.982 -33.2889 281.123 -28.1968 281.262C-18.6803 281.521 -9.59084 283.587 -2.01457 290.791C1.60757 294.236 2.87494 298.448 0.67326 301.98C-1.42533 305.346 -4.62311 308.073 -7.64339 310.785C-8.25544 311.334 -10.5659 311.012 -11.4971 310.328C-12.674 309.461 -13.7615 307.813 -13.9627 306.505C-14.2851 304.444 -13.5247 302.393 -13.8325 300.323C-14.0416 298.905 -14.9518 296.901 -16.1483 296.182C-17.5079 295.37 -19.9224 295.087 -21.2189 295.64C-29.9821 299.398 -30.757 309.963 -23.0786 318.373C-14.0958 328.219 -1.37669 330.257 8.96114 323.083C13.0799 320.228 16.4039 316.474 20.1331 313.092L20.1446 313.107Z" fill="#F8AB8F" fill-opacity="0.08"/>
<path d="M116.25 68.9796C112.302 66.6848 108.45 64.0953 104.333 62.1216C91.7669 56.0935 79.053 54.6021 66.2977 56.0902C64.9821 56.2426 63.1517 56.0346 62.0524 55.2962C46.3116 44.7487 29.8821 39.7728 12.3682 42.6565C12.0877 42.7028 11.7673 42.6421 11.8662 42.6428C14.0104 38.2471 16.7066 33.9302 18.3245 29.159C21.7317 19.1348 20.9972 8.45178 17.5973 -2.52086C17.2408 -3.67362 17.3274 -5.21947 17.9294 -6.10174C26.9649 -19.31 29.8897 -34.0059 23.7564 -51.0028C23.6938 -51.1762 23.7418 -51.3701 23.7383 -51.7872C24.7016 -51.1437 25.558 -50.5758 26.4047 -50.0023C41.077 -40.052 56.5553 -36.666 72.6927 -38.6611C74.7642 -38.9175 76.6022 -38.9379 78.7939 -37.4426C94.2855 -26.8813 110.631 -22.3629 127.884 -25.139C128.072 -25.1682 128.286 -25.1182 128.665 -25.0912C128.467 -24.6521 128.362 -24.2302 128.117 -23.9082C118.437 -11.2307 117.576 3.63934 122.455 19.9799C122.783 21.077 122.85 22.5485 122.295 23.3458C113.09 36.5798 110.163 51.3639 116.246 68.4693C116.308 68.6427 116.259 68.8445 116.26 68.974L116.25 68.9796ZM94.2225 40.8953C95.8635 35.7784 96.6768 30.3877 99.2057 26.0084C102.62 20.0992 103.453 14.1841 101.723 6.95893C100.435 1.57461 101.088 -3.93324 100.87 -9.51594C91.987 -11.8171 83.4217 -15.6744 75.2763 -20.6702C74.602 -21.0831 73.661 -21.4865 72.9819 -21.4197C63.9135 -20.499 54.7046 -21.3472 45.9263 -23.3472C43.9679 -17.6641 42.6666 -11.8472 40.015 -6.77563C37.5414 -2.03079 36.6178 2.4552 37.902 8.24657C39.2666 14.4179 38.906 20.6745 39.3074 27.0549C48.0212 29.374 56.6211 33.1391 64.7495 38.1953C65.419 38.6109 66.3526 38.9681 67.0453 38.9007C76.1275 38.0804 85.3247 38.8125 94.2138 40.8931L94.2225 40.8953Z" fill="#F8AB8F" fill-opacity="0.08"/>
<path d="M54.2052 105.394C52.0452 96.1408 47.6877 88.2713 39.8803 82.0031C29.0535 73.3152 13.8421 74.9345 8.56284 85.2016C6.10726 89.9795 7.20141 95.7797 11.2782 100.35C12.885 102.154 14.8974 103.167 16.8169 102.529C18.2475 102.05 19.4728 100.671 20.1074 99.336C20.8238 97.8239 20.6876 95.8863 21.0866 94.189C21.4935 92.4654 22.5319 91.3095 24.7263 91.3508C26.9565 91.3931 28.5258 92.2867 29.4327 94.3503C30.8483 97.573 32.7703 100.742 33.6359 104.007C35.1305 109.67 32.62 113.772 26.9034 114.925C16.472 117.037 6.26292 114.591 -2.91763 107.511C-8.95386 102.858 -10.9554 96.4325 -11.4141 89.9403C-12.4328 75.6412 -4.08967 64.4149 10.6868 59.8814C24.2915 55.7064 39.5044 59.9183 51.2779 71.1527C53.5758 73.3456 55.574 76.8246 58.0735 77.5208C60.365 78.1565 63.0892 75.7456 65.7097 74.8399C82.0748 69.2087 100.011 75.0502 112.035 89.8836C122.124 102.329 124.186 117.211 117.258 127.866C113.491 133.654 107.873 136.658 99.8212 136.002C91.9964 135.366 84.5453 133.293 77.973 128.133C72.2651 123.652 70.829 118.194 74.3743 113.271C76.197 110.737 78.7056 108.632 81.192 106.625C83.2913 104.929 87.3898 106.806 87.8669 109.674C88.1791 111.539 87.8418 113.417 87.7189 115.273C87.5755 117.387 87.508 119.471 89.8929 121.072C92.4012 122.76 94.5554 122.355 96.7099 121.162C103.2 117.553 104.288 109.322 99.1883 101.657C91.966 90.8089 79.0832 87.008 67.9398 92.4434C62.2912 95.1982 58.6667 98.5696 54.2111 105.384L54.2052 105.394Z" fill="#F8AB8F" fill-opacity="0.08"/>
<path d="M-37.5721 -15.6981C-27.8742 -16.375 -20.0957 -19.0441 -14.4774 -25.1563C-6.80722 -33.4936 -9.66343 -46.7173 -20.6926 -54.2764C-26.7915 -58.4521 -34.1797 -58.7472 -38.946 -55.0058C-41.9314 -52.6609 -40.865 -48.5286 -36.7768 -46.95C-34.7907 -46.1814 -32.6919 -45.8248 -30.6701 -45.1564C-28.6173 -44.4841 -27.0605 -43.3593 -26.749 -41.1471C-26.4474 -39.0304 -27.2259 -37.7643 -29.3451 -37.2492C-32.6452 -36.4426 -35.8087 -35.1368 -39.232 -34.83C-45.026 -34.3182 -49.9181 -37.2394 -52.0475 -42.6587C-56.2837 -53.4309 -55.2415 -63.2249 -47.7297 -70.6324C-42.7713 -75.5254 -35.1839 -75.9234 -27.4763 -74.4324C-10.1312 -71.0757 0.938289 -60.7143 7.08838 -45.4825C12.3159 -32.5364 8.08388 -18.9138 -3.23643 -10.7674C-3.38558 -10.6597 -3.55111 -10.5641 -3.70026 -10.4563C-7.65346 -7.56003 -7.65768 -8.89452 -4.51986 -4.1296C4.62339 9.75747 4.80447 24.4387 -4.09446 34.7283C-13.8903 46.056 -29.1347 49.3276 -44.897 43.4818C-57.4898 38.8127 -63.977 30.3083 -63.8196 18.4886C-63.745 12.7292 -62.3595 7.43447 -58.7365 3.11725C-54.6449 -1.75231 -48.7921 -2.23308 -42.5867 2.09075C-39.7154 4.0972 -37.129 6.59332 -34.7602 9.1355C-33.9248 10.0335 -33.5887 11.957 -33.9921 12.9703C-34.4034 14.0099 -35.8782 15.0636 -37.099 15.1107C-39.0529 15.1907 -41.1788 14.4595 -43.2336 14.0413C-45.4722 13.5847 -47.6457 13.3507 -48.9261 15.2172C-50.2673 17.1694 -49.7546 19.1859 -48.1729 21.3514C-43.1121 28.2872 -33.719 30.677 -26.0066 26.9042C-15.5006 21.7645 -13.476 10.4206 -21.1226 -0.82545C-25.1779 -6.78794 -30.4152 -11.6995 -37.5652 -15.7165L-37.5721 -15.6981Z" fill="#F8AB8F" fill-opacity="0.08"/>
<path d="M177.091 33.3075C170.175 33.5639 164.112 35.3655 158.956 38.8186C151.989 43.4908 148.239 49.8326 151.01 58.8849C153.149 65.8743 157.93 71.208 165.463 74.1297C170.475 76.071 174.813 75.2359 178.635 72.755C180.386 71.6215 181.287 69.8732 180.199 67.9498C179.36 66.4689 177.594 65.0814 175.964 64.2087C174.317 63.3238 172.153 63.4315 170.538 62.5063C169.057 61.6632 167.519 60.1514 166.898 58.7177C166.06 56.7805 167.11 55.3002 169.253 54.771C172.648 53.9317 175.896 52.5988 179.423 52.2899C184.87 51.8118 189.75 54.7258 191.874 59.7799C196.267 70.208 195.246 79.7081 188.577 87.3084C183.783 92.7641 176.13 93.4243 168.196 92.0419C151.583 89.1448 140.262 79.6292 133.806 65.015C127.52 50.7793 130.964 39.3174 141.096 30.1153C142.379 28.9484 143.738 27.817 145.271 26.9395C146.959 25.9721 146.763 25.0376 145.744 23.277C143.389 19.1948 140.822 15.047 139.419 10.7691C134.713 -3.5687 138.918 -14.5595 150.113 -22.6484C158.863 -28.9712 169.269 -30.5118 181.119 -27.1778C198.557 -22.2704 206.785 -10.0086 203.088 5.25625C201.973 9.86762 200.182 14.1024 195.945 16.8016C193.038 18.6531 189.747 18.8114 186.105 17.3294C181.015 15.2594 177.338 11.5139 174.007 7.53255C172.293 5.48708 174.385 2.1328 177.248 2.29442C179.275 2.41064 181.353 3.06102 183.406 3.45856C185.642 3.89449 187.758 4.08966 189 2.13676C190.235 0.210141 189.745 -1.67527 188.264 -3.74676C183.257 -10.7497 173.909 -13.2089 166.158 -9.48624C155.487 -4.35988 153.378 7.14837 161.257 18.4047C163.276 21.2865 165.695 24.0597 168.316 26.5283C170.906 28.9646 173.988 30.9435 177.096 33.3047L177.091 33.3075Z" fill="#F8AB8F" fill-opacity="0.08"/>
<path d="M260.119 16.9164C272.64 19.3651 284.796 19.661 296.419 16.8036C297.098 16.6357 298.296 16.9628 298.907 17.4485C309.128 25.6762 320.439 31.6417 332.884 35.2471C332.971 39.2654 332.919 43.1111 333.173 46.9897C333.657 54.2841 335.641 61.4929 338.5 68.6443C338.933 69.7314 338.968 71.4092 338.334 72.1297C331.202 80.2717 326.638 89.7212 324.584 100.504C324.553 100.666 324.385 100.785 324.182 101.061C313.453 98.8428 302.751 98.0902 292.658 100.368C288.268 101.356 285.171 100.586 281.285 97.5026C272.405 90.4664 262.224 85.8574 251.673 82.7629C251.394 77.5767 251.647 72.5453 250.71 67.5286C249.566 61.3601 247.389 55.2096 245.758 49.0397C245.491 48.0306 245.293 46.5985 245.836 45.9884C253.071 37.9169 257.668 28.4919 259.732 17.7035C259.784 17.442 259.958 17.2191 260.116 16.9036L260.119 16.9164ZM274.675 35.8159C274.444 36.1736 274.206 36.5419 273.973 36.9153C271.038 41.5721 268.049 46.2029 265.218 50.9225C264.78 51.6523 264.805 52.8304 265.036 53.7737C266.383 59.2981 267.802 64.8167 269.335 70.3197C269.58 71.1977 270.352 72.2696 271.178 72.7975C276.516 76.2195 281.91 79.5664 287.358 82.8099C288.317 83.3836 289.68 83.6592 290.742 83.5882C296.567 83.2175 302.368 82.7521 308.137 82.1611C309.113 82.0602 310.198 81.405 310.688 80.6521C313.497 76.3352 316.214 71.9628 318.78 67.5039C319.33 66.5437 319.499 65.1236 319.226 63.9515C317.957 58.5195 316.539 53.0942 315.007 47.6844C314.744 46.7451 313.863 45.6132 312.971 45.0365C307.724 41.67 302.417 38.3813 297.054 35.2118C296.014 34.5976 294.541 34.3062 293.398 34.3809C287.877 34.7353 282.398 35.2744 276.903 35.7365C276.203 35.7939 275.494 35.7843 274.68 35.8131L274.675 35.8159Z" fill="#F8AB8F" fill-opacity="0.08"/>
<path d="M69.3433 250.791C59.9956 248.845 50.9929 248.175 42.1785 249.216C41.0909 249.345 39.873 249.268 38.9328 249.644C33.8249 251.711 29.6718 250.149 24.8405 246.289C16.4399 239.577 6.59277 235.412 -3.82398 232.327C-3.7854 230.975 -3.74253 229.693 -3.70836 228.408C-3.42021 218.602 -5.17854 208.828 -9.3384 199.118C-10.0887 197.369 -9.96167 196.233 -8.7472 194.867C-1.62187 186.874 2.76873 177.409 4.71681 166.543C13.6701 168.341 22.4795 169.08 31.0886 168.128C34.3571 167.766 37.5121 167.036 40.7599 166.592C41.6487 166.47 42.9837 166.443 43.5924 166.945C53.8206 175.356 65.281 181.241 77.5302 184.894C77.8392 190.302 77.6129 195.506 78.5711 200.697C79.6735 206.673 81.8812 212.625 83.4692 218.602C83.7479 219.663 83.7705 221.131 83.1671 221.819C76.0032 230.037 71.3641 239.544 69.3384 250.794L69.3433 250.791ZM59.6217 195.695C59.1759 195.425 58.7302 195.154 58.2806 194.879C52.7114 191.431 47.1678 187.925 41.5347 184.587C40.6046 184.032 39.21 183.999 38.1121 184.069C32.4076 184.45 26.7084 184.893 21.0491 185.443C20.1334 185.53 19.0727 186.071 18.6312 186.759C15.791 191.145 13.0415 195.593 10.4136 200.109C9.89589 201.001 9.68423 202.301 9.94244 203.38C11.2442 208.901 12.673 214.414 14.2201 219.916C14.4833 220.855 15.3605 221.982 16.2566 222.556C21.4023 225.873 26.599 229.109 31.8703 232.223C33.0012 232.893 34.5695 233.281 35.802 233.212C41.5275 232.877 47.2249 232.414 52.8778 231.81C53.9362 231.698 55.0906 230.959 55.6301 230.142C58.403 225.925 61.0776 221.635 63.5804 217.249C64.1602 216.228 64.3105 214.71 64.0207 213.461C62.8068 208.229 61.3438 203.011 59.9855 197.783C59.8161 197.122 59.7564 196.448 59.6304 195.697L59.6217 195.695Z" fill="#F8AB8F" fill-opacity="0.08"/>
<path d="M82.3719 1.4444C82.8853 4.79264 83.7537 8.0082 83.7183 11.0803C83.6941 13.2131 82.1965 15.0827 81.7611 17.1925C80.9784 20.9491 78.3515 21.3447 74.4298 21.591C68.3294 21.9741 63.6159 18.6279 58.4372 16.3529C57.9268 16.1269 57.5138 15.0926 57.3938 14.4315C56.9091 11.7536 56.5011 9.07489 56.192 6.39692C56.0964 5.58432 56.2642 4.721 56.5656 4.00467C57.5113 1.74487 58.463 -0.525568 59.6609 -2.64887C60.0386 -3.32974 61.0863 -3.83324 61.9806 -3.95902C63.4391 -4.16461 65.07 -3.83335 66.5419 -4.00324C72.5302 -4.69769 77.167 -0.461149 82.367 1.44722L82.3719 1.4444Z" fill="#F8AB8F" fill-opacity="0.08"/>
<path d="M298.969 55.2016C300.578 57.467 299.545 64.726 297.45 65.8776C295.269 67.0719 287.184 65.0613 285.516 62.9023C283.781 60.6659 284.853 53.037 287.048 51.9872C289.314 50.9031 297.481 53.1044 298.969 55.2016Z" fill="#F8AB8F" fill-opacity="0.08"/>
<path d="M42.3375 215.515C40.3397 216.747 32.1801 214.758 30.4208 212.609C28.6922 210.499 29.4927 203.258 31.6113 201.825C33.5964 200.484 42.0994 202.564 43.8018 204.805C45.4494 206.983 44.4667 214.206 42.3462 215.517L42.3375 215.515Z" fill="#F8AB8F" fill-opacity="0.08"/>
</svg>
