<svg width="15" height="15" viewBox="0 0 15 15" fill="none" xmlns="http://www.w3.org/2000/svg">
<path fill-rule="evenodd" clip-rule="evenodd" d="M13.5068 3.99307C13.6622 4.14859 13.7495 4.35946 13.7495 4.57932C13.7495 4.79918 13.6622 5.01005 13.5068 5.16557L8.08619 10.5862C8.00923 10.6632 7.91784 10.7243 7.81725 10.766C7.71665 10.8077 7.60883 10.8292 7.49994 10.8292C7.39105 10.8292 7.28323 10.8077 7.18264 10.766C7.08205 10.7243 6.99066 10.6632 6.91369 10.5862L1.49307 5.16557C1.41269 5.08935 1.3484 4.9978 1.30398 4.89633C1.25956 4.79486 1.23592 4.68552 1.23445 4.57476C1.23298 4.464 1.25371 4.35407 1.29542 4.25145C1.33713 4.14884 1.39897 4.05562 1.47729 3.97729C1.55562 3.89897 1.64884 3.83713 1.75145 3.79542C1.85407 3.75371 1.964 3.73298 2.07476 3.73445C2.18552 3.73592 2.29486 3.75956 2.39633 3.80398C2.4978 3.8484 2.58935 3.91269 2.66557 3.99307L7.49994 8.82744L12.3343 3.99307C12.4898 3.83766 12.7007 3.75036 12.9206 3.75036C13.1404 3.75036 13.3513 3.83766 13.5068 3.99307Z" fill="white"/>
</svg>
