<svg width="62" height="62" viewBox="0 0 62 62" fill="none" xmlns="http://www.w3.org/2000/svg">
<rect width="62" height="61.6484" rx="20" fill="#238AFC"/>
<path d="M37.1452 25.8425V22.4565C37.1452 22.1572 37.0256 21.8701 36.8128 21.6584C36.5999 21.4467 36.3112 21.3278 36.0101 21.3278H24.6591C24.057 21.3278 23.4796 21.5657 23.0538 21.989C22.6281 22.4123 22.3889 22.9865 22.3889 23.5852M22.3889 23.5852C22.3889 24.1838 22.6281 24.758 23.0538 25.1813C23.4796 25.6047 24.057 25.8425 24.6591 25.8425H38.2803C38.5814 25.8425 38.8701 25.9614 39.083 26.1731C39.2958 26.3847 39.4154 26.6718 39.4154 26.9711V30.3571M22.3889 23.5852V37.1291C22.3889 37.7278 22.6281 38.302 23.0538 38.7253C23.4796 39.1486 24.057 39.3864 24.6591 39.3864H38.2803C38.5814 39.3864 38.8701 39.2675 39.083 39.0559C39.2958 38.8442 39.4154 38.5571 39.4154 38.2578V34.8718M40.5505 30.3571V34.8718H36.0101C35.408 34.8718 34.8306 34.634 34.4049 34.2106C33.9791 33.7873 33.7399 33.2131 33.7399 32.6145C33.7399 32.0158 33.9791 31.4416 34.4049 31.0183C34.8306 30.595 35.408 30.3571 36.0101 30.3571H40.5505Z" stroke="#F2F3F4" stroke-width="2" stroke-linecap="round" stroke-linejoin="round"/>
</svg>
