<svg width="13" height="13" viewBox="0 0 13 13" fill="none" xmlns="http://www.w3.org/2000/svg">
<path d="M11.9614 6.17252C11.5152 5.23231 10.9841 4.46551 10.3682 3.87213L9.72225 4.51807C10.249 5.02144 10.7078 5.67994 11.1045 6.50006C10.0483 8.68619 8.54895 9.72467 6.49992 9.72467C5.88488 9.72467 5.31837 9.62996 4.8004 9.44055L4.10051 10.1404C4.81991 10.4726 5.61971 10.6387 6.49992 10.6387C8.93996 10.6387 10.7605 9.36793 11.9614 6.82633C12.0097 6.72411 12.0348 6.61247 12.0348 6.49942C12.0348 6.38638 12.0097 6.27474 11.9614 6.17252ZM11.1544 2.1019L10.6132 1.56006C10.6038 1.55062 10.5926 1.54313 10.5802 1.53802C10.5679 1.5329 10.5547 1.53027 10.5414 1.53027C10.528 1.53027 10.5148 1.5329 10.5025 1.53802C10.4901 1.54313 10.4789 1.55062 10.4695 1.56006L9.08101 2.94791C8.31548 2.5569 7.45512 2.36139 6.49992 2.36139C4.05988 2.36139 2.23937 3.63219 1.0384 6.17379C0.990124 6.27601 0.965088 6.38765 0.965088 6.50069C0.965088 6.61374 0.990124 6.72538 1.0384 6.8276C1.5182 7.83814 2.09583 8.64815 2.77131 9.25761L1.42789 10.6006C1.40886 10.6197 1.39817 10.6455 1.39817 10.6724C1.39817 10.6994 1.40886 10.7252 1.42789 10.7442L1.96985 11.2862C1.9889 11.3052 2.01472 11.3159 2.04164 11.3159C2.06857 11.3159 2.09439 11.3052 2.11344 11.2862L11.1544 2.24561C11.1638 2.23617 11.1713 2.22497 11.1765 2.21264C11.1816 2.20031 11.1842 2.1871 11.1842 2.17375C11.1842 2.1604 11.1816 2.14719 11.1765 2.13486C11.1713 2.12253 11.1638 2.11133 11.1544 2.1019ZM1.89533 6.50006C2.95285 4.31393 4.45217 3.27545 6.49992 3.27545C7.19232 3.27545 7.82189 3.39428 8.39305 3.63587L7.50057 4.52835C7.0779 4.30284 6.59394 4.21914 6.12008 4.28961C5.64623 4.36008 5.20757 4.58099 4.86882 4.91974C4.53007 5.25849 4.30916 5.69715 4.23869 6.171C4.16822 6.64486 4.25192 7.12882 4.47743 7.55149L3.41839 8.61053C2.83225 8.09319 2.32697 7.39229 1.89533 6.50006ZM5.02727 6.50006C5.02749 6.2762 5.08051 6.05554 5.18203 5.85602C5.28356 5.6565 5.43071 5.48374 5.61154 5.35178C5.79238 5.21982 6.00179 5.13237 6.22277 5.09654C6.44375 5.06072 6.67006 5.07753 6.88332 5.1456L5.09468 6.93424C5.04985 6.79388 5.0271 6.6474 5.02727 6.50006Z" fill="white"/>
<path d="M6.44913 7.92191C6.40521 7.92191 6.36191 7.91988 6.319 7.91594L5.64844 8.58651C6.05176 8.74097 6.49118 8.77529 6.91359 8.68533C7.336 8.59537 7.72331 8.38498 8.02869 8.0796C8.33408 7.77421 8.54447 7.3869 8.63443 6.96449C8.72439 6.54208 8.69006 6.10266 8.5356 5.69934L7.86504 6.36991C7.86897 6.41282 7.87101 6.45611 7.87101 6.50003C7.87111 6.68679 7.8344 6.87173 7.76298 7.04428C7.69156 7.21684 7.58682 7.37362 7.45477 7.50567C7.32272 7.63773 7.16593 7.74246 6.99338 7.81388C6.82082 7.8853 6.63588 7.92201 6.44913 7.92191Z" fill="white"/>
</svg>
