<svg width="20" height="20" viewBox="0 0 20 20" fill="none" xmlns="http://www.w3.org/2000/svg">
<path d="M9.5333 1.66667C7.39695 1.67277 5.34454 2.4991 3.79997 3.97501V2.50001C3.79997 2.27899 3.71217 2.06703 3.55589 1.91075C3.39961 1.75447 3.18765 1.66667 2.96663 1.66667C2.74562 1.66667 2.53366 1.75447 2.37738 1.91075C2.2211 2.06703 2.1333 2.27899 2.1333 2.50001V6.25001C2.1333 6.47102 2.2211 6.68298 2.37738 6.83926C2.53366 6.99554 2.74562 7.08334 2.96663 7.08334H6.71663C6.93765 7.08334 7.14961 6.99554 7.30589 6.83926C7.46217 6.68298 7.54997 6.47102 7.54997 6.25001C7.54997 6.02899 7.46217 5.81703 7.30589 5.66075C7.14961 5.50447 6.93765 5.41667 6.71663 5.41667H4.71663C5.47639 4.61418 6.42372 4.01314 7.47341 3.66762C8.52309 3.3221 9.64221 3.24294 10.7301 3.43726C11.818 3.63158 12.8405 4.09328 13.7056 4.78083C14.5708 5.46838 15.2514 6.36022 15.6864 7.37611C16.1213 8.39201 16.2969 9.50009 16.1974 10.6007C16.0978 11.7013 15.7262 12.7599 15.116 13.6812C14.5058 14.6026 13.6761 15.3578 12.7016 15.8789C11.7271 16.4 10.6384 16.6707 9.5333 16.6667C9.31229 16.6667 9.10033 16.7545 8.94405 16.9107C8.78777 17.067 8.69997 17.279 8.69997 17.5C8.69997 17.721 8.78777 17.933 8.94405 18.0893C9.10033 18.2455 9.31229 18.3333 9.5333 18.3333C11.7434 18.3333 13.8631 17.4554 15.4259 15.8926C16.9887 14.3298 17.8666 12.2101 17.8666 10C17.8666 7.78987 16.9887 5.67025 15.4259 4.10745C13.8631 2.54465 11.7434 1.66667 9.5333 1.66667ZM9.5333 6.66667C9.31229 6.66667 9.10033 6.75447 8.94405 6.91075C8.78777 7.06703 8.69997 7.27899 8.69997 7.50001V10C8.69997 10.221 8.78777 10.433 8.94405 10.5893C9.10033 10.7455 9.31229 10.8333 9.5333 10.8333H11.2C11.421 10.8333 11.6329 10.7455 11.7892 10.5893C11.9455 10.433 12.0333 10.221 12.0333 10C12.0333 9.77899 11.9455 9.56703 11.7892 9.41075C11.6329 9.25447 11.421 9.16667 11.2 9.16667H10.3666V7.50001C10.3666 7.27899 10.2788 7.06703 10.1226 6.91075C9.96628 6.75447 9.75431 6.66667 9.5333 6.66667Z" fill="#F15A23"/>
</svg>
