<svg width="63" height="62" viewBox="0 0 63 62" fill="none" xmlns="http://www.w3.org/2000/svg">
<rect width="63" height="61.6483" rx="20" fill="#806CF7"/>
<path d="M19.625 28.0833H41.375M24.4583 34.125H24.4704M29.2917 34.125H31.7083M19.625 25.6666C19.625 24.7052 20.0069 23.7832 20.6867 23.1034C21.3666 22.4235 22.2886 22.0416 23.25 22.0416H37.75C38.7114 22.0416 39.6334 22.4235 40.3133 23.1034C40.9931 23.7832 41.375 24.7052 41.375 25.6666V35.3333C41.375 36.2947 40.9931 37.2167 40.3133 37.8966C39.6334 38.5764 38.7114 38.9583 37.75 38.9583H23.25C22.2886 38.9583 21.3666 38.5764 20.6867 37.8966C20.0069 37.2167 19.625 36.2947 19.625 35.3333V25.6666Z" stroke="#F2F3F4" stroke-width="2" stroke-linecap="round" stroke-linejoin="round"/>
</svg>
