<svg width="63" height="61" viewBox="0 0 63 61" fill="none" xmlns="http://www.w3.org/2000/svg">
<rect width="63" height="60.9783" rx="20" fill="#D37AFC"/>
<path d="M17 30.5C17 31.163 17.2634 31.7989 17.7322 32.2678C18.2011 32.7366 18.837 33 19.5 33C20.163 33 20.7989 32.7366 21.2678 32.2678C21.7366 31.7989 22 31.163 22 30.5C22 29.837 21.7366 29.2011 21.2678 28.7322C20.7989 28.2634 20.163 28 19.5 28C18.837 28 18.2011 28.2634 17.7322 28.7322C17.2634 29.2011 17 29.837 17 30.5Z" stroke="#F2F3F4" stroke-width="2" stroke-linecap="round" stroke-linejoin="round"/>
<path d="M29 30.5C29 31.163 29.2634 31.7989 29.7322 32.2678C30.2011 32.7366 30.837 33 31.5 33C32.163 33 32.7989 32.7366 33.2678 32.2678C33.7366 31.7989 34 31.163 34 30.5C34 29.837 33.7366 29.2011 33.2678 28.7322C32.7989 28.2634 32.163 28 31.5 28C30.837 28 30.2011 28.2634 29.7322 28.7322C29.2634 29.2011 29 29.837 29 30.5Z" stroke="#F2F3F4" stroke-width="2" stroke-linecap="round" stroke-linejoin="round"/>
<path d="M40 30.5C40 31.163 40.2634 31.7989 40.7322 32.2678C41.2011 32.7366 41.837 33 42.5 33C43.163 33 43.7989 32.7366 44.2678 32.2678C44.7366 31.7989 45 31.163 45 30.5C45 29.837 44.7366 29.2011 44.2678 28.7322C43.7989 28.2634 43.163 28 42.5 28C41.837 28 41.2011 28.2634 40.7322 28.7322C40.2634 29.2011 40 29.837 40 30.5Z" stroke="#F2F3F4" stroke-width="2" stroke-linecap="round" stroke-linejoin="round"/>
</svg>
