<svg width="360" height="473" viewBox="0 0 360 473" fill="none" xmlns="http://www.w3.org/2000/svg">
<path d="M189.374 -347.148C192.04 -349.948 196.471 -350.055 199.27 -347.389L655.151 86.8555C657.95 89.5219 658.058 93.9527 655.391 96.752L366.86 399.659C363.638 403.042 358.225 399.087 360.467 394.989C418.391 289.116 343.416 159.534 222.76 156.986L121.806 154.855C15.5063 146.517 -77.2666 79.5854 -118.701 -18.6606L-119.99 -21.7161C-120.106 -21.9916 -120.048 -22.3098 -119.842 -22.5263L189.374 -347.148Z" fill="#F15A23" fill-opacity="0.51"/>
<path d="M-172.328 -330.628C-172.528 -334.489 -169.56 -337.781 -165.699 -337.981L382.568 -366.342C386.428 -366.541 389.72 -363.574 389.92 -359.713L411.744 62.1853C411.961 66.3829 405.977 67.38 404.821 63.3388C373.631 -45.7421 233.573 -76.2334 159.86 10.0096L108.811 69.7356L106.92 71.7055C40.8318 140.543 -61.2113 160.784 -148.571 122.383C-148.774 122.293 -148.909 122.097 -148.921 121.875L-172.328 -330.628Z" fill="#F15A23"/>
</svg>
