<svg width="412" height="800" viewBox="0 0 412 800" fill="none" xmlns="http://www.w3.org/2000/svg">
<path d="M240.688 4.44932C243.372 1.66653 247.83 1.55818 250.646 4.20731L715.902 441.942C718.718 444.591 718.825 448.995 716.141 451.778L421.701 757.093C418.412 760.504 412.889 756.52 415.178 752.389C474.29 645.671 397.853 515.115 274.759 512.548L171.686 510.398C63.225 501.995 -31.4097 434.565 -73.6809 335.566L-75.0053 332.464C-75.1239 332.186 -75.0644 331.865 -74.8537 331.647L240.688 4.44932Z" fill="#F15A23" fill-opacity="0.51"/>
<path d="M-131.406 -47.429C-131.609 -51.2897 -128.643 -54.5794 -124.782 -54.7766L434.868 -83.3711C438.729 -83.5684 442.023 -80.5986 442.225 -76.7379L464.495 348.491C464.719 352.764 458.632 353.783 457.442 349.672C425.438 239.121 283.641 207.915 208.4 294.865L155.428 356.081L153.861 357.693C86.0745 427.433 -17.8466 447.914 -107.159 409.137C-107.37 409.045 -107.511 408.842 -107.523 408.613L-131.406 -47.429Z" fill="#F15A23"/>
<path d="M447.86 232.489L421.138 248.873C415.202 247.094 409.261 245.317 403.829 243.69C403.765 248.762 403.695 254.186 403.63 259.608L376.907 275.993C379.004 272.73 381.458 269.611 383.136 266.181C389.626 252.935 388.534 239.884 378.136 227.826C362.414 209.596 335.581 210.683 321.248 219.814C317.133 222.437 313.937 226.118 310.539 229.124C308.634 219.965 301.987 212.884 292.56 207.489C277.185 198.688 259.074 198.91 245.206 208.423C233.561 216.411 229.112 227.42 230.371 240.362C230.773 244.499 232.07 248.599 232.94 252.662C205.956 235.401 179.624 243.333 168.474 258.114C156.975 273.353 162.544 298.687 183.097 308.467C175.407 309.334 169.113 312.033 164.048 316.629C152.502 327.113 147.897 339.622 153.956 353.96C160.096 368.486 172.888 376.545 190.402 378.628C197.957 379.527 205.218 378.312 212.422 376.838L185.7 393.223C179.641 391.512 173.581 389.802 168.059 388.242C168.101 393.25 168.146 398.604 168.192 403.957L141.469 420.342C141.908 419.649 142.283 418.914 142.796 418.269C155.726 401.972 153.945 382.054 138.295 368.134C122.624 354.188 92.7471 354.759 79.1624 369.293C77.7362 370.822 76.5501 372.522 75.1581 374.267C72.1996 365.081 69.1428 360.675 62.0869 355.317C46.3429 343.362 24.7869 342.21 9.35749 353.074C-4.38412 362.746 -7.78053 375.936 -4.24512 391.029C-3.76955 393.051 -3.16738 395.058 -2.6239 397.07C-9.27874 389.096 -15.937 381.117 -22.5919 373.143C-20.788 368.052 -18.9888 362.964 -17.34 358.305C-23.1615 358.039 -29.4179 357.753 -35.6743 357.467C-42.3292 349.493 -48.9875 341.515 -55.6423 333.541C-49.2077 337.253 -42.5951 340.57 -35.0693 342.26C-18.272 346.03 -0.488515 340.583 8.6583 328.726C17.7197 316.984 16.9705 299.695 6.99493 287.534C3.7233 283.547 -0.411818 280.47 -5.73508 277.847C1.57264 277.064 7.22731 274.576 12.2496 270.804C24.1617 261.861 29.1321 246.285 24.0904 233.124C18.9353 219.678 4.16918 209.387 -12.1573 207.742C-19.922 206.959 -27.4069 207.763 -35.275 209.744C-27.8482 200.775 -23.5884 191.266 -24.9534 180.267C-26.3205 169.206 -32.2391 160.12 -42.8679 153.509C-52.6315 147.435 -63.4742 145.852 -74.7966 147.674C-86.1616 149.504 -95.3157 154.249 -101.035 163.762C-102.36 156.592 -105.941 150.948 -111.572 146.338C-124.059 136.115 -138.528 131.722 -154.573 136.34C-170.683 140.979 -179.485 151.446 -181.405 166.28C-182.293 173.061 -180.678 179.686 -178.549 186.268L-198.517 162.342C-196.803 157.151 -195.09 151.959 -193.523 147.219C-199.306 147.042 -205.451 146.856 -211.599 146.666L-231.567 122.739C-228.839 124.172 -226.191 125.735 -223.379 127.017C-208.462 133.817 -193.593 134.784 -179.313 127.375C-153.918 114.199 -157.858 85.0666 -173.462 72.1776C-175.801 70.2438 -178.516 68.6595 -181.054 66.911C-178.936 66.4288 -176.793 66.0753 -174.763 65.4609C-157.779 60.3416 -146.858 42.2148 -150.848 25.8589C-155.225 7.91993 -175.256 -4.79899 -197.319 -3.46951C-201.824 -3.2015 -206.252 -2.28914 -210.721 -1.66909C-201.815 -7.12966 -192.905 -12.5931 -183.999 -18.0536L-166.692 -12.8561C-166.631 -17.9323 -166.56 -23.3638 -166.491 -28.7883C-157.585 -34.2489 -148.674 -39.7123 -139.768 -45.1729C-141.476 -42.6541 -143.353 -40.2125 -144.865 -37.6015C-153.167 -23.2632 -150.933 -7.23382 -139.55 4.61996C-125.63 19.1214 -101.497 20.7069 -85.1534 11.765C-80.2426 9.07831 -76.4654 5.459 -73.7441 0.64122C-73.096 2.69467 -72.7002 4.32903 -72.0741 5.89708C-66.064 20.8768 -44.904 31.7437 -26.417 29.3762C-6.77696 26.8631 7.32804 12.1844 6.90821 -5.8862C6.78564 -11.224 5.31605 -16.5903 4.49491 -21.7804C14.1443 -15.5176 25.2143 -11.4916 37.7043 -12.1402C50.3818 -12.7978 60.6633 -17.5115 67.8887 -26.4629C74.5814 -34.7508 76.0122 -44.1779 73.419 -54.212C70.8406 -64.1867 64.9487 -72.2982 53.84 -77.6725C62.1338 -78.542 68.5739 -81.4742 73.6685 -86.2941C84.857 -96.8896 89.2539 -109.364 82.9662 -123.6C76.6567 -137.878 64.0357 -145.774 46.7449 -147.807C39.1783 -148.686 31.9237 -147.481 24.7136 -146.022C33.6195 -151.483 42.5301 -156.946 51.4361 -162.407C57.4917 -160.701 63.5473 -158.994 69.4294 -157.338C69.2134 -159.725 68.846 -162.368 68.7628 -165.005C68.6798 -167.716 68.874 -170.43 68.944 -173.142C77.8499 -178.602 86.7605 -184.066 95.6665 -189.526C95.2279 -188.833 94.841 -188.103 94.3381 -187.446C89.5823 -181.219 86.5521 -174.409 85.8751 -166.791C84.4387 -150.644 96.2056 -134.667 113.298 -129.35C131.431 -123.712 153.913 -129.539 161.553 -143.16C161.594 -143.235 161.875 -143.208 162.119 -143.233C162.499 -141.95 162.819 -140.65 163.276 -139.384C168.679 -124.456 189.545 -113.09 208.008 -114.994C228.59 -117.112 243.322 -132.25 242.554 -151.03C242.346 -156.103 240.728 -161.179 239.76 -166.254L259.728 -142.328C257.919 -137.234 256.111 -132.14 254.462 -127.481C260.309 -127.218 266.557 -126.933 272.81 -126.651L292.778 -102.725C288.927 -104.685 285.225 -106.943 281.208 -108.552C265.684 -114.768 250.674 -114.352 237.258 -105.783C216.782 -92.7042 219.679 -69.6792 229.959 -56.9435C233.253 -52.8638 237.385 -49.6479 242.935 -47.0453C232.393 -45.8822 225.051 -41.2933 219.267 -34.6039C206.772 -20.1578 208.473 -0.802292 223.775 12.2842C236.023 22.7536 250.719 25.049 266.606 22.3614C268.375 22.062 270.118 21.6296 272.201 21.188C254.046 43.2144 262.178 65.611 278.947 76.6822C288.769 83.1693 299.876 85.0527 311.526 83.1977C322.993 81.3738 332.477 76.7811 338.014 67.2999C338.755 69.5147 339.133 71.4531 340.031 73.1972C347.237 87.1387 360.015 94.5637 376.862 95.9644C399.821 97.8706 418.836 81.9899 418.619 61.3003C418.563 55.7411 416.712 50.1348 415.683 44.5542L435.651 68.4808C433.932 73.6818 432.221 78.8841 430.664 83.6115C436.41 83.7866 442.576 83.9724 448.734 84.1568L468.702 108.083C464.042 105.864 459.553 103.247 454.693 101.488C429.267 92.2945 402.703 104.329 398.668 126.734C396.339 139.649 402.861 156.453 418.037 163.512C418.129 163.556 418.114 163.789 418.169 164.005C417.168 164.182 416.16 164.351 415.164 164.544C396.192 168.257 383.14 188.32 388.219 205.941C393.157 223.056 411.675 234.981 432.717 234.315C437.805 234.152 442.813 233.126 447.856 232.492L447.86 232.489ZM230.143 133.44C239.915 131.688 245.173 129.2 250.924 123.723C266.483 108.901 265.334 87.236 247.906 73.1208C236.254 63.6828 222.382 61.5062 207.519 63.7345C205.297 64.068 203.128 64.5993 200.767 65.0744C220.141 41.546 208.661 18.6764 193.009 9.0847C183.122 3.0298 172.236 1.33558 160.811 3.17703C149.429 5.01108 140.287 9.78043 134.639 19.2614C133.039 10.7261 128.058 4.43218 120.892 -0.715618C102.967 -13.5905 79.5882 -12.9198 64.5308 1.12677C55.211 9.82194 52.6317 20.5768 54.6598 32.4292C55.193 35.5384 56.2348 38.5977 57.0578 41.7287C29.7949 24.1582 3.74494 32.8528 -6.78858 46.0775C-13.4076 54.3952 -15.0075 63.7949 -12.4614 73.8143C-9.90735 83.86 -4.03649 92.1216 7.09425 97.4138C-3.09468 99.0587 -9.22689 102.176 -15.2577 108.612C-29.3485 123.649 -27.4383 144.791 -10.5589 157.915C1.74916 167.48 16.0121 169.524 31.3019 166.772C32.9475 166.474 34.5761 166.105 36.5844 165.69C17.496 188.744 27.7729 211.64 44.6737 222.144C60.56 232.016 90.9367 230.609 102.37 212.062C106.337 223.075 110.506 228.595 119.631 233.738C134.932 242.367 150.604 243.677 165.479 235.037C179.314 227.004 184.546 214.871 182.714 200.274C182.24 196.51 181.024 192.791 180.17 189.13C207.567 206.787 234.898 198.242 245.555 182.553C256.036 167.129 249.967 142.706 230.129 133.448L230.143 133.44ZM370.267 203.566C368.752 185.836 373.851 170.68 389.257 159.138C378.406 143.323 378.522 127.306 385.772 111.056C365.387 111.625 347.716 106.582 333.8 92.6705C316.056 101.561 297.619 100.692 278.796 93.8114C278.704 93.9927 278.626 94.0657 278.634 94.142C278.699 95.3054 278.803 96.4642 278.843 97.6307C279.372 112.136 274.891 124.917 263.263 135.246C259.888 138.245 259.889 138.263 262.09 142.102C269.605 155.179 269.762 168.404 264.965 181.709C264.423 183.22 263.758 184.694 263.121 186.251C283.481 185.71 301.161 190.697 315.048 204.632C332.765 195.834 351.146 196.612 370.255 203.56L370.267 203.566ZM209.635 -99.9335C189.283 -99.3912 171.475 -104.331 157.73 -118.322C139.829 -109.485 121.459 -110.333 102.556 -117.227C103.996 -99.5195 98.9858 -84.3246 83.5044 -72.8057C94.4595 -56.9915 94.1853 -40.9711 87.0553 -24.7196C87.688 -24.7209 88.0585 -24.711 88.4277 -24.7192C107.548 -25.1177 124.479 -20.3948 137.905 -7.33653C138.356 -6.89602 139.879 -6.73213 140.492 -7.03292C152.241 -12.8587 164.994 -14.018 178.376 -11.6958C183.726 -10.7673 188.936 -9.11564 194.137 -7.81497C192.702 -25.1323 197.687 -40.399 213.188 -51.8612C202.243 -67.788 202.531 -83.7669 209.633 -99.9265L209.635 -99.9335ZM-41.4586 137.155C-41.4767 136.449 -41.4667 136.044 -41.5015 135.635C-42.7745 119.054 -37.9572 104.638 -23.5857 93.5501C-23.0822 93.1603 -22.915 91.8417 -23.2866 91.2963C-31.8096 78.7802 -32.7516 65.7256 -28.9234 52.3279C-28.1749 49.7113 -27.0538 47.1905 -26.081 44.5673C-46.2852 45.0691 -64.1225 40.2283 -77.8813 26.1705C-95.7867 34.985 -114.186 34.1617 -133.143 27.2448C-131.588 45.0062 -136.754 60.2222 -152.141 71.6956C-141.261 87.587 -141.436 103.534 -148.615 119.735C-128.282 119.179 -110.587 124.2 -96.6082 138.204C-88.4419 133.827 -79.4899 131.768 -69.8357 131.711C-60.0987 131.653 -50.7636 133.525 -41.4621 137.151L-41.4586 137.155ZM43.0225 238.685C44.4333 255.948 39.4486 271.215 23.9051 282.734C29.2324 290.169 32.0244 298.03 32.4628 306.442C32.9 314.886 31.0924 322.91 27.409 330.756C47.8251 330.149 65.5571 335.248 79.5048 349.19C87.8011 344.826 96.7462 342.734 106.42 342.708C116.106 342.681 125.411 344.559 134.624 348.146C133.076 330.325 138.2 315.091 153.623 303.62C142.692 287.71 142.962 271.767 150.101 255.585C149.492 255.565 148.929 255.524 148.373 255.534C129.344 255.908 112.558 251.109 99.2306 238.127C98.7829 237.691 97.252 237.551 96.6336 237.861C85.1973 243.62 72.7212 244.802 59.6537 242.656C54.0256 241.729 48.5279 240.024 43.0306 238.686L43.0225 238.685ZM218.465 213.644C212.492 213.539 206.247 213.433 200.311 213.331C198.446 218.341 196.567 223.391 194.779 228.185C200.75 228.278 206.988 228.376 212.933 228.473C214.787 223.5 216.647 218.519 218.473 213.645L218.465 213.644ZM245.258 53.7659C245.128 48.5197 244.991 43.1473 244.863 37.9871C239.059 36.1644 233.183 34.3229 227.555 32.5537C227.685 37.725 227.817 43.1571 227.943 48.3492C233.725 50.1611 239.613 52.001 245.253 53.7687L245.258 53.7659ZM42.3574 2.64892C36.3399 2.54063 30.1533 2.43002 24.1807 2.32541C22.3576 7.25973 20.4732 12.3376 18.6907 17.1536C24.7242 17.2645 30.9062 17.3779 36.8248 17.4845C38.6582 12.5625 40.5379 7.51244 42.3539 2.64479L42.3574 2.64892ZM9.59474 198.521C9.45746 193.074 9.32128 187.645 9.18689 182.476C3.35009 180.648 -2.53729 178.801 -8.11889 177.054C-7.98913 182.25 -7.85526 187.668 -7.72021 193.08C-4.84576 193.837 -1.85383 194.509 1.0525 195.421C3.95884 196.333 6.77495 197.488 9.59474 198.521Z" fill="#F8AB8F" fill-opacity="0.12"/>
<path d="M233.107 356.77C233.678 355.928 234.222 355.07 234.816 354.239C243.187 342.511 244.124 329.748 240.2 316.25C239.893 315.19 240.077 313.74 240.703 312.846C249.339 300.582 252.512 287.475 247.358 272.998C247.273 272.76 247.27 272.504 247.227 272.233C250.737 273.88 254.132 275.642 257.685 277.105C269.25 281.87 281.15 282.306 293.148 280.04C295.371 279.621 297.012 279.818 299.043 280.948C312.942 288.674 327.698 291.701 343.522 288.139C344.06 288.017 344.634 288.005 345.192 287.94L319.146 303.931C310.662 302.507 302.69 299.817 295.175 295.945C294.468 295.578 293.494 295.237 292.766 295.35C284.22 296.713 275.6 296.754 266.751 295.491C265.311 303.102 262.477 310.088 258.212 316.603C257.78 317.265 258.094 318.359 258.184 319.243C258.694 324.428 259.309 329.611 259.743 334.798C259.903 336.686 259.668 338.589 259.615 340.482L233.105 356.759L233.107 356.77Z" fill="#F8AB8F" fill-opacity="0.12"/>
<path d="M400.142 15.3626C394.585 12.3553 389.014 9.44854 382.614 8.0093C373.065 5.85883 363.638 5.78979 354.238 7.68768C353.248 7.88805 351.914 7.94089 351.067 7.52796C331.202 -2.16608 325.57 -3.11317 304.088 -0.129862C304.509 -0.765399 304.81 -1.28965 305.177 -1.77476C313.962 -13.3978 315.114 -26.1856 311.169 -39.7916C310.864 -40.8524 310.926 -42.2993 311.54 -43.1582C320.179 -55.2292 323.226 -68.1488 318.06 -82.4262C317.979 -82.6481 318.051 -82.9087 318.055 -83.1521L337.469 -59.8529C337.308 -59.6738 337.036 -59.5128 336.993 -59.3075C335.585 -52.3252 332.847 -45.8056 328.851 -39.7124C328.555 -39.2652 328.384 -38.6103 328.513 -38.1085C330.412 -30.7535 330.841 -23.3923 329.731 -15.8701C338.361 -14.3353 346.338 -11.6153 353.84 -7.71335C354.544 -7.34836 355.676 -7.41965 356.549 -7.55414C364.665 -8.81823 372.83 -8.80848 381.062 -7.53603L400.136 15.3544L400.142 15.3626Z" fill="#F8AB8F" fill-opacity="0.12"/>
<path d="M6.80078 422.048C10.8843 423.903 14.8512 426.011 19.0688 427.559C30.0675 431.592 41.304 431.886 52.5399 429.593C54.44 429.208 55.8453 429.431 57.5609 430.394C71.2556 438.074 85.7993 441.23 101.482 437.788C102.087 437.654 102.754 437.694 103.394 437.651L77.5927 453.47C69.1699 451.631 61.0071 449.178 53.4895 445.144C52.9735 444.868 52.1903 444.731 51.6149 444.834C43.1899 446.314 34.6614 446.068 26.0802 445.149C19.6526 437.447 13.2284 429.75 6.80078 422.048Z" fill="#F8AB8F" fill-opacity="0.12"/>
<path d="M276.515 328.972C276.148 326.218 275.499 323.454 275.53 320.721C275.546 319.077 276.784 317.515 277.192 315.85C278.127 312.007 280.689 310.944 285.248 310.53C291.122 309.997 295.341 312.916 300.261 314.395L276.523 328.973L276.515 328.972Z" fill="#F8AB8F" fill-opacity="0.12"/>
<path d="M38.3608 461.305C45.5173 459.699 52.2218 460.814 58.4861 464.556L46.9677 471.618L38.3608 461.305Z" fill="#F8AB8F" fill-opacity="0.12"/>
<path d="M-68.2275 -4.3901C-70.1054 -12.6243 -73.9802 -19.3036 -81.2281 -24.2578C-91.7524 -31.4437 -107.398 -27.7069 -111.06 -17.1982C-112.566 -12.8764 -111.302 -8.96743 -107.719 -5.58315C-105.131 -3.14133 -101.131 -3.82291 -100.03 -6.88605C-99.4969 -8.36679 -99.374 -9.96381 -98.9936 -11.4942C-98.5702 -13.2069 -97.677 -14.5653 -95.3907 -14.7635C-93.1504 -14.9584 -91.7787 -14.0658 -90.9414 -12.253C-89.93 -10.073 -88.4824 -8.00457 -87.7404 -5.77172C-85.7851 0.0764463 -88.2179 4.45553 -94.7762 6.01954C-104.267 8.28411 -113.445 6.82666 -121.559 1.44341C-126.712 -1.97661 -128.467 -7.09292 -128.949 -12.3854C-130.076 -24.9027 -122.198 -35.8942 -108.684 -40.9746C-95.0023 -46.1207 -81.0674 -43.7948 -70.1654 -34.4956C-68.0856 -32.7212 -66.1718 -30.7952 -64.5597 -29.2891C-59.5012 -31.0312 -54.8641 -33.1697 -49.8783 -34.231C-36.9132 -36.998 -25.7822 -33.4082 -16.3317 -24.8467C-5.79378 -15.2993 -2.93385 -0.638883 -9.71635 9.88697C-13.6114 15.9358 -19.4266 19.2582 -27.7172 19.0219C-34.6584 18.8251 -41.2799 17.5342 -46.963 13.5788C-51.9211 10.133 -53.1246 5.66984 -49.8884 1.15995C-48.1348 -1.28725 -45.6526 -3.37048 -43.1913 -5.32859C-42.4192 -5.93915 -40.4288 -6.02453 -39.3897 -5.58899C-38.315 -5.14413 -37.2018 -3.81858 -37.0267 -2.79091C-36.7539 -1.18709 -37.2831 0.490649 -37.4268 2.13783C-37.5835 3.93641 -37.4385 5.61239 -35.2768 6.72539C-33.1105 7.83556 -31.3449 7.41405 -29.464 6.30445C-22.9989 2.48391 -21.6823 -4.5347 -26.3028 -11.1061C-32.3652 -19.7306 -44.2066 -22.4857 -53.9054 -17.5743C-59.9675 -14.506 -64.8627 -10.4818 -68.2435 -4.3927L-68.2275 -4.3901Z" fill="#F8AB8F" fill-opacity="0.12"/>
<path d="M342.836 51.6346C341.251 43.6269 337.401 37.3447 330.906 32.4411C320.459 24.5543 304.774 27.5988 300.279 38.2184C298.437 42.5712 299.935 47.7204 303.966 50.8984C306.084 52.5682 309.921 51.9425 310.884 49.6247C311.517 48.0959 311.695 46.4152 312.093 44.8056C312.502 43.1515 312.99 41.5993 315.345 41.2588C317.721 40.9181 319.343 41.819 320.133 43.6669C321.573 47.0186 323.313 50.3726 323.978 53.8312C324.648 57.305 321.998 59.5786 318.639 61.2452C311.343 64.8704 290.939 62.97 285.13 52.6382C281.197 45.6465 281.257 38.7004 284.063 31.7731C292.655 10.5661 323.801 5.71837 342.366 22.6646C343.908 24.07 345.377 25.5387 346.87 26.9682C350.044 25.6394 353.076 24.1484 356.301 23.0562C373.165 17.3433 389.652 22.7117 399.83 36.9684C407.054 47.0933 407.136 57.5065 400.251 67.4401C396.815 72.4027 391.514 74.9547 384.682 74.9718C376.919 74.9921 369.562 73.6538 363.388 68.934C359.478 65.9434 358.177 61.7716 360.706 58.1008C362.689 55.2198 365.454 52.6828 368.26 50.3451C370.283 48.6555 374.074 50.6027 374.202 53.3179C374.281 54.9653 373.554 56.6395 373.801 58.2532C374.032 59.7574 374.675 61.5458 375.864 62.5693C377.573 64.034 379.724 63.4821 381.635 62.3917C387.684 58.9325 389.319 52.3301 385.579 46.0799C379.619 36.1092 367.071 33.14 355.874 39.0759C350.326 42.0163 346.068 46.036 342.831 51.6375L342.836 51.6346Z" fill="#F8AB8F" fill-opacity="0.12"/>
<path d="M289.229 -44.1106C291.409 -39.8538 293.901 -36.0499 295.326 -31.9971C299.423 -20.3532 295.92 -10.5723 286.251 -2.4298C276.361 5.89128 260.932 8.16734 248.352 2.816C239.92 -0.769574 235.049 -6.43192 235.191 -14.7571C235.289 -20.5232 236.472 -25.9819 240.607 -30.55C244.513 -34.8657 249.864 -35.6646 255.267 -32.4542C257.962 -30.8517 260.367 -28.7715 262.519 -26.6178C263.295 -25.8464 263.447 -24.0374 262.973 -23.061C262.54 -22.178 260.926 -21.3502 259.732 -21.279C257.678 -21.161 255.553 -21.6792 253.453 -21.8756C251.499 -22.0557 249.884 -21.6455 248.95 -19.994C248.079 -18.45 248.223 -17.1098 249.4 -15.5741C254.209 -9.31865 262.595 -7.70005 270.098 -11.6954C281.023 -17.515 282.559 -28.8022 273.673 -38.6572C271.933 -40.5836 270.011 -42.4359 267.905 -44.0573C265.829 -45.6526 263.41 -46.9071 260.871 -48.4808C267.604 -49.2169 273.381 -51.4246 278.44 -54.9189C285.943 -60.0992 288.512 -67.4364 285.295 -74.7373C283.135 -79.6367 279.319 -83.2584 273.566 -85.0692C268.681 -86.6078 264.264 -85.733 260.487 -82.949C257.322 -80.6157 258.339 -76.9929 262.458 -75.8386C264.2 -75.3538 266.028 -75.1405 267.799 -74.7296C269.729 -74.2857 271.09 -73.3236 271.301 -71.4514C271.509 -69.6332 270.656 -68.4932 268.694 -67.8573C266.315 -67.0851 264.087 -65.9496 261.651 -65.3474C254.944 -63.6861 249.362 -66.1439 247.302 -72.0337C244.414 -80.3094 245.59 -88.2642 251.483 -94.9145C256.439 -100.51 264.062 -101.548 271.897 -100.69C287.152 -99.0178 297.126 -91.2143 302.431 -78.8897C307.465 -67.1837 303.985 -57.1242 294.69 -48.5501C292.904 -46.9004 290.876 -45.4507 289.213 -44.1132L289.229 -44.1106Z" fill="#F8AB8F" fill-opacity="0.12"/>
<path d="M-51.9659 274.828C-53.951 271.23 -56.1106 267.983 -57.5829 264.533C-62.7214 252.518 -59.0594 240.531 -48.0762 232.469C-37.2473 224.513 -24.9748 222.795 -11.5302 227.922C-2.72153 231.283 2.17158 237.263 1.97932 245.787C1.85059 251.366 0.656014 256.67 -3.24494 261.151C-7.12513 265.606 -12.5971 266.511 -18.0883 263.286C-20.7908 261.7 -23.1932 259.606 -25.355 257.458C-26.1346 256.682 -26.3115 254.876 -25.8424 253.903C-25.4161 253.011 -23.8027 252.191 -22.6038 252.091C-20.7559 251.944 -18.8082 252.458 -16.9036 252.662C-14.8977 252.879 -13.074 252.728 -11.9547 251.031C-10.8457 249.347 -11.1119 247.852 -12.421 246.166C-17.1161 240.115 -25.5143 238.572 -32.9746 242.511C-42.5298 247.552 -45.0807 257.373 -39.1119 266.111C-35.3406 271.631 -32.155 274.355 -24.2299 278.869C-28.0921 280.133 -32.3182 281.053 -35.9491 282.837C-39.3991 284.528 -42.7249 286.76 -45.2565 289.385C-53.1258 297.54 -49.6369 310.05 -38.393 315.185C-33.3394 317.494 -27.096 316.871 -23.1931 313.661C-20.3123 311.296 -21.3287 307.691 -25.2437 306.63C-27.0868 306.133 -29.1656 306.154 -30.8333 305.399C-32.178 304.789 -33.4868 303.496 -34.0377 302.269C-34.7431 300.706 -33.7385 299.398 -31.8541 298.81C-28.5871 297.792 -25.4229 296.376 -22.0293 295.835C-16.9199 295.022 -12.6403 297.263 -10.7845 301.631C-7.02349 310.494 -8.19681 318.903 -14.6916 326.035C-19.5087 331.32 -26.8975 332.34 -34.4011 331.552C-49.4728 329.967 -59.5556 322.467 -65.0503 310.233C-70.3938 298.331 -67.0035 288.164 -57.6179 279.397C-55.8394 277.739 -53.7991 276.295 -51.9647 274.821L-51.9659 274.828Z" fill="#F8AB8F" fill-opacity="0.12"/>
<path d="M301.628 260.048C296.919 261.75 292.743 263.749 288.229 264.808C274.811 267.959 263.217 264.616 253.371 255.58C243.538 246.56 240.359 233.436 245.785 222.813C249.635 215.282 256.188 211.208 266.118 211.824C272.517 212.222 278.681 213.382 283.944 217.109C289.062 220.73 290.292 225.359 286.857 229.947C285.146 232.237 282.686 234.088 280.555 236.125C279.122 237.496 277.216 237.199 275.88 236.265C274.862 235.555 274.152 234.07 274.034 232.901C273.856 231.102 274.462 229.283 274.469 227.464C274.479 224.446 270.691 222.528 267.701 223.944C259.087 228.027 258.253 238.162 265.981 244.842C274.513 252.22 285.029 252.745 294.747 246.337C299.12 243.457 302.704 240.006 304.987 235.931C306.688 239.496 307.965 243.322 310.265 246.645C312.428 249.772 315.264 252.81 318.523 255.096C327.745 261.565 341.031 259.4 346.82 250.855C349.935 246.257 349.259 240.691 345.208 236.646C343.833 235.274 342.099 234.498 340.37 235.172C339.012 235.698 337.737 236.892 337.111 238.086C336.348 239.533 336.651 241.449 335.844 242.861C335.194 244.001 333.74 245.08 332.34 245.489C330.579 246.008 329.033 245.073 328.284 243.399C326.994 240.51 325.228 237.701 324.469 234.731C323.345 230.362 325.726 226.738 330.474 225.293C340.51 222.245 350.161 223.761 358.795 229.475C364.206 233.054 365.882 238.5 366.142 244.078C366.734 256.83 358.726 267.141 344.394 272.367C332.029 276.88 318.051 274.269 307.385 265.386C305.281 263.633 303.39 261.693 301.628 260.048Z" fill="#F8AB8F" fill-opacity="0.12"/>
<path d="M188.504 307.799C197.56 306.724 204.61 303.655 210.052 298.266C218.027 290.371 215.506 278.104 204.911 272.502C199.062 269.408 193.206 269.794 188.275 273.591C185.802 275.493 186.471 279.049 189.644 280.122C191.436 280.726 193.385 280.916 195.256 281.346C197.17 281.788 198.972 282.336 199.357 284.425C199.716 286.382 198.839 287.643 196.853 288.318C193.885 289.327 190.988 290.629 187.881 291.162C182.437 292.1 177.806 289.831 175.89 285.182C172.261 276.393 173.444 267.954 179.925 260.999C185.021 255.53 192.833 254.55 200.809 255.603C216.033 257.612 225.774 265.621 230.795 277.996C235.678 290.032 231.511 300.045 221.888 308.527C220.38 309.857 218.706 311.039 216.997 312.38C218.387 314.571 219.888 316.738 221.173 318.987C228.106 331.125 225.854 343.849 215.2 353.057C204.531 362.28 189.062 364.593 176.013 358.855C167.805 355.245 163.156 349.658 163.291 341.574C163.397 335.291 164.716 329.369 169.727 324.65C172.785 321.771 177.1 320.765 181.144 322.832C184.754 324.679 187.913 327.313 190.97 329.866C191.666 330.449 191.621 332.373 191.058 333.242C190.492 334.125 188.922 334.864 187.684 334.949C185.827 335.078 183.847 334.308 181.994 334.441C180.357 334.558 178.432 335.047 177.339 335.991C175.822 337.302 176.279 339.135 177.502 340.818C181.517 346.363 189.528 348.243 196.577 345.23C208.061 340.322 210.896 329.373 203.255 319.29C199.649 314.535 195.007 310.734 188.501 307.795L188.504 307.799Z" fill="#F8AB8F" fill-opacity="0.12"/>
<path d="M459.084 161.791C461.444 167.005 464.31 171.708 465.677 176.676C470.08 192.693 458.52 205.057 444.865 209.744C433.329 213.698 421.828 212.561 411.563 205.153C408.075 202.634 405.823 199.368 405.228 195.442C404.073 187.781 405.24 180.642 411.041 174.715C414.073 171.621 418.552 170.578 422.634 172.69C426.301 174.588 429.556 177.27 432.568 179.97C434.531 181.729 432.524 184.799 429.502 184.85C427.615 184.884 425.657 184.182 423.81 184.323C422.081 184.454 420.025 184.879 418.886 185.851C417.278 187.237 417.855 189.097 419.252 190.847C424.545 197.506 434.976 198.488 442.159 192.93C450.982 186.092 451.371 176.443 443.229 167.296C439.778 163.419 435.721 160.194 431.245 158.236C435.869 156.449 441.034 154.934 445.606 152.593C455.152 147.706 458.55 139.199 454.78 131.002C453.108 127.362 450.319 124.463 446.473 122.375C440.811 119.305 434.914 119.658 430.028 123.284C427.152 125.422 427.977 129.082 431.682 130.191C433.501 130.734 435.44 130.93 437.317 131.326C439.273 131.742 440.56 132.692 440.903 134.546C441.235 136.338 440.383 137.454 438.626 138.044C435.397 139.132 432.216 140.521 428.836 141.053C423.661 141.863 419.711 139.601 417.503 135.31C412.617 125.808 416.84 111.981 426.235 107.598C434.182 103.892 442.614 104.572 450.95 107.5C475.396 116.086 481.997 143.108 463.439 158.379C461.876 159.661 460.246 160.879 459.081 161.787L459.084 161.791Z" fill="#F8AB8F" fill-opacity="0.12"/>
<path d="M64.1417 386.581C65.267 392.152 68.4107 397.396 72.9637 402.075C81.9548 411.305 97.1104 411.23 104.593 401.902C108.502 397.03 108.095 391.418 103.498 386.728C100.97 384.149 96.7343 384.707 95.6166 387.849C95.0913 389.331 94.9799 390.934 94.6316 392.469C94.23 394.225 93.222 395.479 90.9897 395.725C88.8161 395.967 87.4399 394.977 86.6966 393.368C85.2969 390.348 83.5821 387.333 82.8925 384.195C82.0057 380.136 84.4353 376.788 88.8545 375.432C99.0075 372.325 108.844 373.796 117.395 379.728C123.447 383.925 125.079 390.246 124.6 396.632C123.579 410.305 114.979 418.995 100.513 423.169C86.7208 427.148 74.7877 423.189 64.4406 414.305C62.8501 412.941 61.4198 411.436 59.9065 409.981C56.701 411.323 53.6044 412.879 50.289 413.964C33.3299 419.523 16.1855 413.802 6.44785 399.454C-0.634619 389.023 0.219361 375.316 8.46239 367.25C11.5032 364.276 15.2276 362.354 19.9655 362.106C28.8199 361.641 37.2293 362.796 44.0947 368.577C47.3769 371.341 48.4463 374.951 46.3033 378.217C44.2608 381.328 41.2114 383.958 38.3278 386.562C37.7435 387.088 35.6005 386.974 34.7514 386.441C33.6783 385.764 32.709 384.394 32.556 383.26C32.3101 381.471 33.072 379.613 32.8398 377.816C32.6824 376.584 31.8875 374.889 30.7923 374.344C29.5476 373.729 27.3068 373.656 26.085 374.237C17.8263 378.178 16.827 387.522 23.7558 394.355C31.8613 402.357 43.6512 403.223 53.466 396.163C57.3762 393.354 60.57 389.812 64.1314 386.568L64.1417 386.581Z" fill="#F8AB8F" fill-opacity="0.12"/>
<path d="M160.048 164.986C156.432 163.256 152.914 161.26 149.132 159.825C137.589 155.44 125.79 155.055 113.874 157.291C112.644 157.521 110.946 157.471 109.941 156.902C95.5614 148.776 80.3938 145.598 64.0098 149.408C63.7474 149.469 63.4507 149.439 63.5427 149.432C65.6549 145.412 68.2789 141.421 69.9108 137.109C73.347 128.05 72.9439 118.712 70.0665 109.314C69.7648 108.327 69.8861 106.962 70.4698 106.142C79.2305 93.8741 82.3402 80.7428 77.076 66.2482C77.0222 66.1004 77.072 65.9264 77.0797 65.56C77.9598 66.0555 78.7423 66.4924 79.5156 66.935C92.9163 74.6137 107.24 76.4635 122.319 73.535C124.254 73.1589 125.966 73.0072 127.968 74.1621C142.115 82.3183 157.217 85.1003 173.355 81.4043C173.531 81.3649 173.729 81.3933 174.081 81.3895C173.885 81.7898 173.777 82.1683 173.54 82.4692C164.192 94.318 163 107.452 167.114 121.461C167.391 122.401 167.414 123.69 166.877 124.431C157.957 136.735 154.843 149.944 160.057 164.537C160.111 164.685 160.06 164.866 160.058 164.98L160.048 164.986ZM140.275 141.902C141.938 137.284 142.837 132.486 145.307 128.453C148.641 123.01 149.572 117.749 148.152 111.524C147.093 106.885 147.847 101.996 147.79 97.104C139.579 95.7277 131.705 92.9604 124.252 89.1618C123.635 88.848 122.769 88.5618 122.135 88.67C113.667 90.1394 105.114 90.0641 96.9926 88.945C95.0196 94.0833 93.6551 99.2913 91.0527 103.942C88.6247 108.293 87.6468 112.304 88.6903 117.301C89.7987 122.627 89.2985 128.153 89.5045 133.733C97.5575 135.137 105.466 137.821 112.902 141.673C113.515 141.99 114.375 142.236 115.021 142.126C123.5 140.744 132.045 140.718 140.267 141.9L140.275 141.902Z" fill="#F8AB8F" fill-opacity="0.12"/>
<path d="M135.74 29.1527C137.644 37.2588 141.478 43.8565 148.534 48.8223C159.221 56.3449 175.54 52.3067 178.733 41.419C179.93 37.3365 178.703 33.6548 175.431 30.4601C172.617 27.7142 168.53 28.4425 167.448 31.8689C166.947 33.4477 167.062 35.2544 166.274 36.6796C165.634 37.8326 164.247 38.9826 162.866 39.3986C160.976 39.9713 159.43 38.9363 158.612 37.2052C157.441 34.7176 155.837 32.3276 155.054 29.7705C153.469 24.5748 155.99 20.36 161.766 18.8517C171.342 16.3476 180.632 17.7483 188.841 23.1109C194.947 27.1061 196.722 33.1642 196.548 39.3391C196.177 52.3566 188.619 61.2187 175.168 66.0985C162.338 70.7538 150.346 68.5027 139.427 60.5428C137.345 59.0252 135.158 57.4477 133.665 55.5255C132.093 53.5084 131.015 53.9516 129.064 54.7608C125.097 56.4078 121.075 58.1815 116.805 59.0409C103.991 61.6216 92.9905 58.0208 83.8588 49.5074C73.959 40.2738 71.1356 29.7135 75.5364 18.1536C78.99 9.08906 86.4493 5.05804 97.5548 5.78834C103.709 6.19346 109.5 7.67507 114.495 11.148C119.271 14.468 120.619 18.7616 117.631 23.1258C115.801 25.8069 113.172 28.1234 110.57 30.3049C108.642 31.9173 104.812 30.2993 104.539 27.8103C104.355 26.0959 104.759 24.3516 104.932 22.6237C105.113 20.8041 104.943 19.1062 102.823 18.0178C100.714 16.9347 98.8348 17.27 96.9391 18.3451C90.585 21.9479 89.2332 29.3247 93.7939 35.8077C100.189 44.8891 112.414 47.3278 122.871 41.5896C128.298 38.6115 132.611 34.7255 135.744 29.1568L135.74 29.1527Z" fill="#F8AB8F" fill-opacity="0.12"/>
<path d="M101.317 201.512C99.5489 193.535 95.6982 186.935 88.5931 181.993C78.7401 175.144 64.5332 177.675 59.3476 187.084C56.9355 191.463 57.8018 196.482 61.4778 200.202C62.9266 201.671 64.7738 202.416 66.5779 201.715C67.9226 201.19 69.0998 199.888 69.7258 198.668C70.4327 197.287 70.3568 195.594 70.7729 194.073C71.1971 192.528 72.1944 191.436 74.2366 191.313C76.3122 191.188 77.75 191.859 78.5402 193.607C79.7736 196.337 81.48 198.982 82.2002 201.79C83.443 206.659 80.9976 210.447 75.6441 211.877C65.8754 214.493 56.4335 213.086 48.071 207.531C42.5727 203.88 40.8779 198.377 40.6214 192.704C40.0487 180.208 48.1125 169.733 61.9909 164.672C74.7687 160.011 88.8236 162.607 99.4913 171.625C101.573 173.386 103.342 176.298 105.652 176.728C107.769 177.12 110.369 174.803 112.833 173.816C128.219 167.675 144.767 171.504 155.573 183.668C164.64 193.874 166.169 206.805 159.439 216.676C155.779 222.038 150.468 225.088 142.988 225.097C135.719 225.108 128.835 223.828 122.851 219.771C117.654 216.247 116.46 211.553 119.89 206.968C121.654 204.608 124.045 202.574 126.414 200.63C128.413 198.986 132.18 200.337 132.549 202.824C132.79 204.44 132.427 206.116 132.264 207.757C132.075 209.625 131.957 211.462 134.136 212.695C136.427 213.997 138.443 213.484 140.481 212.278C146.619 208.634 147.849 201.319 143.301 194.952C136.862 185.942 124.966 183.539 114.446 189.128C109.114 191.961 105.651 195.188 101.323 201.502L101.317 201.512Z" fill="#F8AB8F" fill-opacity="0.12"/>
<path d="M19.0413 101.747C28.0894 100.446 35.4025 97.5333 40.7947 91.7515C48.1559 83.8643 45.844 72.448 35.7728 66.606C30.2035 63.3793 23.3317 63.6577 18.7952 67.2935C15.9537 69.572 16.838 73.127 20.6033 74.217C22.4325 74.748 24.3774 74.9087 26.2424 75.3492C28.1362 75.7907 29.5563 76.6661 29.7882 78.5881C30.0134 80.4269 29.2552 81.5964 27.2684 82.2034C24.1742 83.1527 21.1942 84.5309 17.9986 85.0497C12.59 85.9213 8.11147 83.7096 6.27107 79.1008C2.60969 69.9399 3.83762 61.2547 11.027 54.1963C15.7726 49.5343 22.8481 48.6321 29.9859 49.3817C46.0487 51.0699 56.0837 59.3722 61.4101 72.3141C65.9374 83.3138 61.6386 95.5967 50.8835 103.582C50.7418 103.687 50.5852 103.783 50.4434 103.889C46.6863 106.723 46.7174 105.55 49.514 109.51C57.6627 121.052 57.4454 133.944 48.8887 143.637C39.4694 154.308 25.1885 158.293 10.665 154.302C-0.938111 151.114 -6.75511 144.11 -6.29789 133.709C-6.07702 128.641 -4.64774 123.886 -1.1607 119.827C2.7772 115.248 8.23979 114.4 13.9043 117.749C16.5252 119.304 18.8679 121.31 21.0068 123.372C21.7611 124.1 22.0235 125.767 21.6213 126.687C21.2109 127.631 19.81 128.664 18.672 128.795C16.8505 129.007 14.8901 128.519 12.9878 128.301C10.9153 128.063 8.89762 128.015 7.65627 129.749C6.35609 131.563 6.78049 133.298 8.19641 135.087C12.7264 140.815 21.4101 142.232 28.6907 138.354C38.6086 133.071 40.7919 122.952 33.9674 113.623C30.348 108.677 25.6004 104.741 19.0482 101.73L19.0413 101.747Z" fill="#F8AB8F" fill-opacity="0.12"/>
<path d="M217.638 129.2C211.191 129.928 205.499 131.953 200.607 135.364C193.997 139.978 190.338 145.826 192.681 153.582C194.488 159.57 198.8 163.911 205.738 165.931C210.354 167.272 214.415 166.222 218.04 163.763C219.699 162.639 220.584 161.037 219.622 159.426C218.879 158.185 217.272 157.094 215.777 156.445C214.266 155.787 212.248 156.039 210.769 155.344C209.412 154.71 208.02 153.493 207.479 152.278C206.75 150.636 207.766 149.259 209.776 148.638C212.959 147.653 216.018 146.244 219.311 145.716C224.396 144.899 228.863 147.106 230.707 151.394C234.525 160.241 233.324 168.666 226.914 175.833C222.307 180.978 215.163 182.115 207.812 181.477C192.418 180.14 182.127 172.599 176.5 160.223C171.021 148.166 174.529 137.84 184.205 129.014C185.431 127.894 186.726 126.801 188.176 125.918C189.774 124.945 189.615 124.138 188.713 122.664C186.627 119.247 184.346 115.788 183.153 112.129C179.147 99.8684 183.351 89.901 193.989 81.9756C202.303 75.7806 212.032 73.6689 222.979 75.737C239.088 78.7816 246.427 88.9613 242.583 102.649C241.423 106.784 239.645 110.637 235.628 113.318C232.873 115.157 229.804 115.536 226.452 114.498C221.767 113.049 218.441 110.024 215.444 106.767C213.902 105.093 215.938 101.993 218.599 101.926C220.484 101.881 222.402 102.301 224.303 102.501C226.374 102.722 228.339 102.739 229.547 100.932C230.747 99.1488 230.341 97.5271 229.016 95.814C224.538 90.0225 215.898 88.5412 208.583 92.3778C198.512 97.6608 196.246 107.931 203.287 117.252C205.09 119.638 207.27 121.9 209.646 123.879C211.993 125.832 214.811 127.347 217.643 129.197L217.638 129.2Z" fill="#F8AB8F" fill-opacity="0.12"/>
<path d="M295.381 108.748C306.975 109.989 318.287 109.364 329.184 106.006C329.821 105.809 330.928 106.01 331.484 106.392C340.786 112.881 351.161 117.301 362.655 119.565C362.63 123.091 362.481 126.475 362.615 129.866C362.874 136.243 364.531 142.435 367.006 148.513C367.38 149.438 367.369 150.91 366.759 151.589C359.905 159.266 355.406 167.905 353.21 177.533C353.178 177.677 353.018 177.794 352.822 178.052C342.889 176.883 332.944 177 323.486 179.737C319.372 180.925 316.508 180.473 312.971 178.046C304.887 172.507 295.529 169.197 285.786 167.245C285.662 162.706 286.03 158.265 285.289 153.923C284.386 148.584 282.52 143.336 281.164 138.031C280.942 137.163 280.795 135.919 281.317 135.343C288.266 127.721 292.794 119.101 295 109.468C295.055 109.234 295.223 109.026 295.379 108.737L295.381 108.748ZM308.438 124.302C308.213 124.633 307.982 124.974 307.755 125.319C304.9 129.626 301.995 133.915 299.235 138.269C298.808 138.943 298.8 139.977 298.991 140.789C300.099 145.547 301.276 150.295 302.559 155.021C302.763 155.775 303.454 156.661 304.209 157.065C309.091 159.684 314.025 162.234 319.013 164.688C319.891 165.123 321.152 165.266 322.143 165.126C327.577 164.376 332.991 163.545 338.378 162.606C339.289 162.446 340.317 161.791 340.793 161.093C343.522 157.094 346.167 153.053 348.674 148.946C349.211 148.062 349.405 146.802 349.182 145.791C348.144 141.109 346.966 136.443 345.681 131.799C345.461 130.992 344.67 130.062 343.855 129.619C339.058 127.042 334.203 124.537 329.292 122.142C328.34 121.677 326.976 121.529 325.91 121.677C320.759 122.391 315.644 123.264 310.515 124.07C309.861 124.171 309.201 124.214 308.443 124.299L308.438 124.302Z" fill="#F8AB8F" fill-opacity="0.12"/>
<path d="M111.591 328.221C102.938 327.191 94.5729 327.256 86.338 328.813C85.3218 329.006 84.1899 329.027 83.3044 329.426C78.4939 331.615 74.6678 330.544 70.2705 327.503C62.6247 322.213 53.565 319.269 43.9464 317.315C44.0179 316.124 44.0915 314.994 44.1571 313.862C44.6832 305.221 43.3028 296.758 39.6846 288.525C39.0319 287.042 39.18 286.034 40.3468 284.745C47.1917 277.2 51.5289 268.56 53.6284 258.867C61.9181 259.796 70.1015 259.804 78.143 258.341C81.196 257.785 84.153 256.913 87.1889 256.287C88.0197 256.114 89.2635 255.994 89.8171 256.39C99.1201 263.039 109.637 267.379 120.947 269.698C121.092 274.429 120.745 279.02 121.501 283.514C122.37 288.687 124.269 293.758 125.591 298.897C125.822 299.809 125.805 301.098 125.225 301.746C118.338 309.492 113.769 318.187 111.587 328.224L111.591 328.221ZM103.987 280.496C103.579 280.291 103.171 280.086 102.76 279.877C97.6647 277.251 92.5949 274.573 87.4373 272.048C86.5858 271.629 85.2881 271.701 84.264 271.842C78.9422 272.592 73.6237 273.396 68.3396 274.292C67.4846 274.435 66.4827 274.987 66.0535 275.625C63.2936 279.687 60.6164 283.797 58.0507 287.958C57.5452 288.78 57.3139 289.938 57.526 290.868C58.593 295.626 59.7785 300.368 61.0745 305.092C61.2949 305.899 62.0821 306.826 62.9014 307.265C67.6057 309.806 72.3595 312.272 77.1861 314.626C78.2215 315.132 79.6716 315.359 80.8211 315.21C86.1613 314.498 91.4786 313.676 96.7583 312.734C97.7468 312.558 98.8411 311.825 99.3649 311.067C102.058 307.159 104.661 303.193 107.107 299.155C107.673 298.215 107.853 296.87 107.616 295.793C106.624 291.283 105.398 286.802 104.271 282.305C104.131 281.736 104.093 281.148 103.995 280.497L103.987 280.496Z" fill="#F8AB8F" fill-opacity="0.12"/>
<path d="M130.277 108.085C130.668 110.991 131.392 113.754 131.278 116.457C131.199 118.334 129.756 120.087 129.295 121.973C128.467 125.332 126.011 125.871 122.353 126.373C116.662 127.154 112.361 124.555 107.599 122.932C107.129 122.771 106.772 121.892 106.678 121.319C106.297 119.001 105.987 116.676 105.77 114.344C105.702 113.637 105.881 112.866 106.18 112.214C107.121 110.159 108.066 108.094 109.238 106.14C109.607 105.514 110.596 104.995 111.432 104.819C112.796 104.533 114.305 104.705 115.68 104.449C121.275 103.402 125.481 106.789 130.273 108.088L130.277 108.085Z" fill="#F8AB8F" fill-opacity="0.12"/>
<path d="M330.55 139.574C331.989 141.448 330.836 147.904 328.855 149.069C326.793 150.278 319.317 149.099 317.821 147.322C316.265 145.483 317.463 138.699 319.534 137.616C321.673 136.498 329.22 137.839 330.55 139.574Z" fill="#F8AB8F" fill-opacity="0.12"/>
<path d="M87.372 299.177C85.4793 300.406 77.9338 299.251 76.3521 297.49C74.7979 295.761 75.7337 289.337 77.7441 287.924C79.6277 286.601 87.4907 287.81 89.017 289.656C90.4939 291.45 89.389 297.872 87.38 299.178L87.372 299.177Z" fill="#F8AB8F" fill-opacity="0.12"/>
</svg>
