<svg width="63" height="62" viewBox="0 0 63 62" fill="none" xmlns="http://www.w3.org/2000/svg">
<rect width="63" height="61.6483" rx="20" fill="#1CBCCE"/>
<path d="M31.9773 25.6479C30.8367 25.6479 29.7217 25.9789 28.7733 26.599C27.8249 27.2191 27.0857 28.1004 26.6492 29.1316C26.2127 30.1628 26.0985 31.2975 26.321 32.3922C26.5436 33.4869 27.0928 34.4924 27.8994 35.2816C28.7059 36.0709 29.7335 36.6083 30.8522 36.8261C31.9709 37.0438 33.1304 36.9321 34.1842 36.505C35.238 36.0778 36.1387 35.3545 36.7724 34.4265C37.4061 33.4984 37.7443 32.4074 37.7443 31.2912M33.1307 21.1953C30.9923 20.9606 28.8323 21.3819 26.9493 22.4009C25.0664 23.42 23.5536 24.9864 22.6202 26.8836C21.6868 28.7808 21.3789 30.9149 21.7392 32.9908C22.0995 35.0667 23.1101 36.9817 24.6312 38.4709C26.1524 39.9602 28.1089 40.9501 30.2301 41.3037C32.3513 41.6573 34.5323 41.3571 36.4716 40.4447C38.4108 39.5323 40.0124 38.0527 41.0547 36.2107C42.0971 34.3686 42.5287 32.2551 42.2899 30.1625M35.4375 27.9052V24.5192L38.8977 21.1332V24.5192H42.358L38.8977 27.9052H35.4375ZM35.4375 27.9052L31.9773 31.2912M30.8239 31.2912C30.8239 31.5905 30.9454 31.8776 31.1617 32.0893C31.378 32.301 31.6714 32.4199 31.9773 32.4199C32.2832 32.4199 32.5766 32.301 32.7929 32.0893C33.0092 31.8776 33.1307 31.5905 33.1307 31.2912C33.1307 30.9919 33.0092 30.7048 32.7929 30.4931C32.5766 30.2815 32.2832 30.1625 31.9773 30.1625C31.6714 30.1625 31.378 30.2815 31.1617 30.4931C30.9454 30.7048 30.8239 30.9919 30.8239 31.2912Z" stroke="#F2F3F4" stroke-width="2" stroke-linecap="round" stroke-linejoin="round"/>
</svg>
