<svg width="63" height="62" viewBox="0 0 63 62" fill="none" xmlns="http://www.w3.org/2000/svg">
<rect width="63" height="61.6483" rx="20" fill="#806CF7"/>
<path d="M25.25 28.0833H37.9375L33.1041 32.9167H27.0625L31.8958 28.0833M33.7083 23.25H36.125L40.3541 31.7083M20.4166 35.3333C20.4166 36.2947 20.7985 37.2168 21.4784 37.8966C22.1582 38.5764 23.0802 38.9583 24.0416 38.9583C25.003 38.9583 25.9251 38.5764 26.6049 37.8966C27.2847 37.2168 27.6666 36.2947 27.6666 35.3333C27.6666 34.3719 27.2847 33.4499 26.6049 32.7701C25.9251 32.0903 25.003 31.7083 24.0416 31.7083C23.0802 31.7083 22.1582 32.0903 21.4784 32.7701C20.7985 33.4499 20.4166 34.3719 20.4166 35.3333ZM37.3333 35.3333C37.3333 36.2947 37.7152 37.2168 38.395 37.8966C39.0749 38.5764 39.9969 38.9583 40.9583 38.9583C41.9197 38.9583 42.8417 38.5764 43.5216 37.8966C44.2014 37.2168 44.5833 36.2947 44.5833 35.3333C44.5833 34.3719 44.2014 33.4499 43.5216 32.7701C42.8417 32.0903 41.9197 31.7083 40.9583 31.7083C39.9969 31.7083 39.0749 32.0903 38.395 32.7701C37.7152 33.4499 37.3333 34.3719 37.3333 35.3333Z" stroke="#F2F3F4" stroke-width="2" stroke-linecap="round" stroke-linejoin="round"/>
</svg>
