<svg width="32" height="29" viewBox="0 0 32 29" fill="none" xmlns="http://www.w3.org/2000/svg">
<mask id="mask0_49_325" style="mask-type:alpha" maskUnits="userSpaceOnUse" x="0" y="0" width="32" height="29">
<rect width="32" height="28.9032" fill="#D9D9D9"/>
</mask>
<g mask="url(#mask0_49_325)">
<path d="M15.9999 28.0602L11.5332 24.086H5.33323V18.486L0.933228 14.4516L5.33323 10.4172V4.8172H11.5332L15.9999 0.84301L20.4666 4.8172H26.6666V10.4172L31.0666 14.4516L26.6666 18.486V24.086H20.4666L15.9999 28.0602Z" fill="#F05A23"/>
</g>
<path d="M11.7852 17H10.2461L7.76172 12.6797H7.72656C7.73698 12.8594 7.74609 13.0404 7.75391 13.2227C7.76172 13.4049 7.76953 13.5872 7.77734 13.7695C7.78516 13.9492 7.79297 14.1302 7.80078 14.3125V17H6.71875V11.2891H8.24609L10.7266 15.5664H10.7539C10.7487 15.3893 10.7422 15.2135 10.7344 15.0391C10.7266 14.8646 10.7188 14.6901 10.7109 14.5156C10.7057 14.3411 10.7005 14.1667 10.6953 13.9922V11.2891H11.7852V17ZM15.0936 12.5508C15.4972 12.5508 15.8449 12.6289 16.1366 12.7852C16.4282 12.9388 16.6535 13.1628 16.8123 13.457C16.9712 13.7513 17.0506 14.1107 17.0506 14.5352V15.1133H14.2342C14.2472 15.4492 14.3475 15.7135 14.535 15.9062C14.7251 16.0964 14.9881 16.1914 15.3241 16.1914C15.6027 16.1914 15.8579 16.1628 16.0897 16.1055C16.3215 16.0482 16.5597 15.9622 16.8045 15.8477V16.7695C16.5884 16.8763 16.3618 16.9544 16.1248 17.0039C15.8905 17.0534 15.6053 17.0781 15.2694 17.0781C14.8319 17.0781 14.4439 16.9974 14.1053 16.8359C13.7694 16.6745 13.5051 16.4284 13.3123 16.0977C13.1222 15.7669 13.0272 15.3503 13.0272 14.8477C13.0272 14.3372 13.1131 13.9128 13.285 13.5742C13.4595 13.2331 13.7017 12.9779 14.0116 12.8086C14.3215 12.6367 14.6821 12.5508 15.0936 12.5508ZM15.1014 13.3984C14.8696 13.3984 14.6769 13.4727 14.5233 13.6211C14.3722 13.7695 14.285 14.0026 14.2616 14.3203H15.9334C15.9308 14.1432 15.8983 13.9857 15.8358 13.8477C15.7759 13.7096 15.6847 13.6003 15.5623 13.5195C15.4426 13.4388 15.2889 13.3984 15.1014 13.3984ZM21.7692 17L21.4333 15.4727C21.4151 15.3815 21.3851 15.2474 21.3434 15.0703C21.3018 14.8906 21.2562 14.6992 21.2067 14.4961C21.1598 14.2904 21.1156 14.1003 21.0739 13.9258C21.0348 13.7513 21.0062 13.6237 20.988 13.543H20.9528C20.9346 13.6237 20.9059 13.7513 20.8669 13.9258C20.8278 14.1003 20.7835 14.2904 20.7341 14.4961C20.6872 14.7018 20.6429 14.8958 20.6012 15.0781C20.5596 15.2578 20.5283 15.3945 20.5075 15.4883L20.1559 17H18.8747L17.6325 12.6328H18.82L19.3239 14.5664C19.3578 14.7018 19.3903 14.8633 19.4216 15.0508C19.4528 15.2357 19.4802 15.4154 19.5036 15.5898C19.5296 15.7617 19.5492 15.8984 19.5622 16H19.5934C19.5986 15.9245 19.6091 15.8242 19.6247 15.6992C19.6429 15.5742 19.6624 15.4453 19.6833 15.3125C19.7067 15.1771 19.7276 15.056 19.7458 14.9492C19.7666 14.8398 19.7822 14.7656 19.7927 14.7266L20.3317 12.6328H21.6442L22.1559 14.7266C22.1742 14.8021 22.1976 14.9219 22.2262 15.0859C22.2575 15.25 22.2848 15.4193 22.3083 15.5938C22.3317 15.7656 22.3447 15.901 22.3473 16H22.3786C22.389 15.9115 22.4072 15.7799 22.4333 15.6055C22.4593 15.431 22.4893 15.2487 22.5231 15.0586C22.5596 14.8659 22.596 14.7018 22.6325 14.5664L23.1559 12.6328H24.3239L23.0661 17H21.7692ZM26.1909 15.1055H25.2378L25.0386 11.2891H26.3902L26.1909 15.1055ZM25.023 16.4414C25.023 16.1966 25.0894 16.0247 25.2222 15.9258C25.3576 15.8268 25.5204 15.7773 25.7105 15.7773C25.8954 15.7773 26.0542 15.8268 26.187 15.9258C26.3224 16.0247 26.3902 16.1966 26.3902 16.4414C26.3902 16.6758 26.3224 16.8451 26.187 16.9492C26.0542 17.0534 25.8954 17.1055 25.7105 17.1055C25.5204 17.1055 25.3576 17.0534 25.2222 16.9492C25.0894 16.8451 25.023 16.6758 25.023 16.4414Z" fill="white"/>
</svg>
