<svg width="420" height="72" viewBox="0 0 420 72" fill="none" xmlns="http://www.w3.org/2000/svg">
<g filter="url(#filter0_d_81_478)">
<path d="M4 0H416V54C416 59.5228 411.523 64 406 64H14C8.47715 64 4 59.5228 4 54V0Z" fill="#40787F"/>
<path d="M27.6152 12.4336C28.7207 12.4336 29.5273 12.6602 30.0352 13.1133C30.543 13.5664 30.7969 14.2012 30.7969 15.0176C30.7969 15.3887 30.7383 15.7422 30.6211 16.0781C30.5078 16.4102 30.3203 16.7051 30.0586 16.9629C29.7969 17.2168 29.4512 17.418 29.0215 17.5664C28.5957 17.7148 28.0703 17.7891 27.4453 17.7891H26.5312V21H25.125V12.4336H27.6152ZM27.5215 13.5996H26.5312V16.6172H27.2988C27.7402 16.6172 28.1152 16.5664 28.4238 16.4648C28.7324 16.3594 28.9668 16.1934 29.127 15.9668C29.2871 15.7402 29.3672 15.4414 29.3672 15.0703C29.3672 14.5742 29.2168 14.2051 28.916 13.9629C28.6191 13.7207 28.1543 13.5996 27.5215 13.5996ZM35.1912 14.3906C35.7693 14.3906 36.2654 14.5098 36.6795 14.748C37.0935 14.9863 37.4119 15.3242 37.6345 15.7617C37.8572 16.1992 37.9685 16.7227 37.9685 17.332V18.0703H33.6384C33.6541 18.6992 33.822 19.1836 34.1423 19.5234C34.4666 19.8633 34.9197 20.0332 35.5017 20.0332C35.9158 20.0332 36.2869 19.9941 36.615 19.916C36.947 19.834 37.2888 19.7148 37.6404 19.5586V20.6777C37.3162 20.8301 36.9861 20.9414 36.6502 21.0117C36.3142 21.082 35.9119 21.1172 35.4431 21.1172C34.8064 21.1172 34.2459 20.9941 33.7615 20.748C33.281 20.498 32.9041 20.127 32.6306 19.6348C32.3611 19.1426 32.2263 18.5312 32.2263 17.8008C32.2263 17.0742 32.3494 16.457 32.5955 15.9492C32.8416 15.4414 33.1873 15.0547 33.6326 14.7891C34.0779 14.5234 34.5974 14.3906 35.1912 14.3906ZM35.1912 15.4277C34.7576 15.4277 34.406 15.5684 34.1365 15.8496C33.8709 16.1309 33.7146 16.543 33.6677 17.0859H36.6209C36.617 16.7617 36.5623 16.4746 36.4568 16.2246C36.3552 15.9746 36.199 15.7793 35.988 15.6387C35.781 15.498 35.5154 15.4277 35.1912 15.4277ZM43.1421 14.3906C43.8726 14.3906 44.4409 14.5801 44.8472 14.959C45.2573 15.334 45.4624 15.9375 45.4624 16.7695V21H44.0855V17.0273C44.0855 16.5234 43.982 16.1465 43.7749 15.8965C43.5679 15.6426 43.2476 15.5156 42.814 15.5156C42.1851 15.5156 41.7476 15.709 41.5015 16.0957C41.2593 16.4824 41.1382 17.043 41.1382 17.7773V21H39.7612V14.5137H40.8335L41.0269 15.3926H41.103C41.2437 15.166 41.4175 14.9805 41.6245 14.8359C41.8355 14.6875 42.0698 14.5762 42.3277 14.502C42.5894 14.4277 42.8609 14.3906 43.1421 14.3906ZM49.4817 23.8828C48.6028 23.8828 47.929 23.7246 47.4602 23.4082C46.9915 23.0918 46.7571 22.6484 46.7571 22.0781C46.7571 21.6797 46.8821 21.3418 47.1321 21.0645C47.3821 20.791 47.7395 20.6016 48.2044 20.4961C48.0286 20.418 47.8762 20.2969 47.7473 20.1328C47.6223 19.9648 47.5598 19.7793 47.5598 19.5762C47.5598 19.334 47.6282 19.127 47.7649 18.9551C47.9016 18.7832 48.1067 18.6172 48.3802 18.457C48.0403 18.3125 47.7669 18.0781 47.5598 17.7539C47.3567 17.4258 47.2552 17.041 47.2552 16.5996C47.2552 16.1309 47.3548 15.7324 47.554 15.4043C47.7532 15.0723 48.0442 14.8203 48.427 14.6484C48.8098 14.4727 49.2727 14.3848 49.8157 14.3848C49.9329 14.3848 50.0598 14.3926 50.1966 14.4082C50.3372 14.4199 50.4661 14.4355 50.5833 14.4551C50.7044 14.4707 50.7962 14.4883 50.8587 14.5078H53.1028V15.2754L52.0012 15.4805C52.1067 15.6289 52.1907 15.7988 52.2532 15.9902C52.3157 16.1777 52.347 16.3828 52.347 16.6055C52.347 17.2773 52.1145 17.8066 51.6497 18.1934C51.1887 18.5762 50.552 18.7676 49.7395 18.7676C49.5442 18.7598 49.3548 18.7441 49.1712 18.7207C49.0305 18.8066 48.9231 18.9023 48.8489 19.0078C48.7747 19.1094 48.7376 19.2246 48.7376 19.3535C48.7376 19.459 48.7747 19.5449 48.8489 19.6113C48.9231 19.6738 49.0325 19.7207 49.177 19.752C49.3255 19.7832 49.5052 19.7988 49.7161 19.7988H50.8352C51.5462 19.7988 52.0891 19.9492 52.4641 20.25C52.8391 20.5508 53.0266 20.9922 53.0266 21.5742C53.0266 22.3125 52.722 22.8809 52.1126 23.2793C51.5032 23.6816 50.6262 23.8828 49.4817 23.8828ZM49.5345 22.916C50.0149 22.916 50.4192 22.8691 50.7473 22.7754C51.0755 22.6816 51.3235 22.5469 51.4915 22.3711C51.6595 22.1992 51.7434 21.9941 51.7434 21.7559C51.7434 21.5449 51.6907 21.3828 51.5852 21.2695C51.4798 21.1562 51.3216 21.0781 51.1106 21.0352C50.8997 20.9922 50.638 20.9707 50.3255 20.9707H49.3059C49.052 20.9707 48.8274 21.0098 48.6321 21.0879C48.4368 21.1699 48.2845 21.2871 48.1751 21.4395C48.0696 21.5918 48.0169 21.7754 48.0169 21.9902C48.0169 22.2871 48.1477 22.5156 48.4095 22.6758C48.6751 22.8359 49.0501 22.916 49.5345 22.916ZM49.804 17.8652C50.2063 17.8652 50.5052 17.7559 50.7005 17.5371C50.8958 17.3145 50.9934 17.002 50.9934 16.5996C50.9934 16.1621 50.8919 15.834 50.6887 15.6152C50.4895 15.3965 50.1927 15.2871 49.7981 15.2871C49.4114 15.2871 49.1165 15.3984 48.9134 15.6211C48.7141 15.8438 48.6145 16.1738 48.6145 16.6113C48.6145 17.0059 48.7141 17.3145 48.9134 17.5371C49.1165 17.7559 49.4134 17.8652 49.804 17.8652ZM55.9034 14.5137V21H54.5264V14.5137H55.9034ZM55.2237 12.0293C55.4346 12.0293 55.6162 12.0859 55.7686 12.1992C55.9248 12.3125 56.003 12.5078 56.003 12.7852C56.003 13.0586 55.9248 13.2539 55.7686 13.3711C55.6162 13.4844 55.4346 13.541 55.2237 13.541C55.0049 13.541 54.8194 13.4844 54.667 13.3711C54.5186 13.2539 54.4444 13.0586 54.4444 12.7852C54.4444 12.5078 54.5186 12.3125 54.667 12.1992C54.8194 12.0859 55.0049 12.0293 55.2237 12.0293ZM61.4988 14.3906C62.2293 14.3906 62.7977 14.5801 63.2039 14.959C63.6141 15.334 63.8191 15.9375 63.8191 16.7695V21H62.4422V17.0273C62.4422 16.5234 62.3387 16.1465 62.1316 15.8965C61.9246 15.6426 61.6043 15.5156 61.1707 15.5156C60.5418 15.5156 60.1043 15.709 59.8582 16.0957C59.616 16.4824 59.4949 17.043 59.4949 17.7773V21H58.118V14.5137H59.1902L59.3836 15.3926H59.4598C59.6004 15.166 59.7742 14.9805 59.9813 14.8359C60.1922 14.6875 60.4266 14.5762 60.6844 14.502C60.9461 14.4277 61.2176 14.3906 61.4988 14.3906ZM67.8384 23.8828C66.9595 23.8828 66.2857 23.7246 65.817 23.4082C65.3482 23.0918 65.1138 22.6484 65.1138 22.0781C65.1138 21.6797 65.2388 21.3418 65.4888 21.0645C65.7388 20.791 66.0962 20.6016 66.5611 20.4961C66.3853 20.418 66.233 20.2969 66.1041 20.1328C65.9791 19.9648 65.9166 19.7793 65.9166 19.5762C65.9166 19.334 65.9849 19.127 66.1216 18.9551C66.2584 18.7832 66.4634 18.6172 66.7369 18.457C66.397 18.3125 66.1236 18.0781 65.9166 17.7539C65.7134 17.4258 65.6119 17.041 65.6119 16.5996C65.6119 16.1309 65.7115 15.7324 65.9107 15.4043C66.1099 15.0723 66.4009 14.8203 66.7837 14.6484C67.1666 14.4727 67.6295 14.3848 68.1724 14.3848C68.2896 14.3848 68.4166 14.3926 68.5533 14.4082C68.6939 14.4199 68.8228 14.4355 68.94 14.4551C69.0611 14.4707 69.1529 14.4883 69.2154 14.5078H71.4595V15.2754L70.358 15.4805C70.4634 15.6289 70.5474 15.7988 70.6099 15.9902C70.6724 16.1777 70.7037 16.3828 70.7037 16.6055C70.7037 17.2773 70.4712 17.8066 70.0064 18.1934C69.5455 18.5762 68.9087 18.7676 68.0962 18.7676C67.9009 18.7598 67.7115 18.7441 67.5279 18.7207C67.3873 18.8066 67.2798 18.9023 67.2056 19.0078C67.1314 19.1094 67.0943 19.2246 67.0943 19.3535C67.0943 19.459 67.1314 19.5449 67.2056 19.6113C67.2798 19.6738 67.3892 19.7207 67.5337 19.752C67.6822 19.7832 67.8619 19.7988 68.0728 19.7988H69.192C69.9029 19.7988 70.4459 19.9492 70.8209 20.25C71.1959 20.5508 71.3834 20.9922 71.3834 21.5742C71.3834 22.3125 71.0787 22.8809 70.4693 23.2793C69.8599 23.6816 68.983 23.8828 67.8384 23.8828ZM67.8912 22.916C68.3716 22.916 68.7759 22.8691 69.1041 22.7754C69.4322 22.6816 69.6802 22.5469 69.8482 22.3711C70.0162 22.1992 70.1002 21.9941 70.1002 21.7559C70.1002 21.5449 70.0474 21.3828 69.942 21.2695C69.8365 21.1562 69.6783 21.0781 69.4673 21.0352C69.2564 20.9922 68.9947 20.9707 68.6822 20.9707H67.6627C67.4087 20.9707 67.1841 21.0098 66.9888 21.0879C66.7935 21.1699 66.6412 21.2871 66.5318 21.4395C66.4263 21.5918 66.3736 21.7754 66.3736 21.9902C66.3736 22.2871 66.5045 22.5156 66.7662 22.6758C67.0318 22.8359 67.4068 22.916 67.8912 22.916ZM68.1607 17.8652C68.563 17.8652 68.8619 17.7559 69.0572 17.5371C69.2525 17.3145 69.3502 17.002 69.3502 16.5996C69.3502 16.1621 69.2486 15.834 69.0455 15.6152C68.8462 15.3965 68.5494 15.2871 68.1548 15.2871C67.7681 15.2871 67.4732 15.3984 67.2701 15.6211C67.0709 15.8438 66.9712 16.1738 66.9712 16.6113C66.9712 17.0059 67.0709 17.3145 67.2701 17.5371C67.4732 17.7559 67.7701 17.8652 68.1607 17.8652ZM75.4261 14.3906C76.2464 14.3906 76.8655 14.5723 77.2835 14.9355C77.7054 15.2988 77.9163 15.8652 77.9163 16.6348V21H76.9378L76.6741 20.0801H76.6273C76.4437 20.3145 76.2542 20.5078 76.0589 20.6602C75.8636 20.8125 75.637 20.9258 75.3792 21C75.1253 21.0781 74.8148 21.1172 74.4476 21.1172C74.0609 21.1172 73.7152 21.0469 73.4105 20.9062C73.1058 20.7617 72.8655 20.543 72.6898 20.25C72.514 19.957 72.4261 19.5859 72.4261 19.1367C72.4261 18.4688 72.6741 17.9668 73.1702 17.6309C73.6702 17.2949 74.4241 17.1094 75.432 17.0742L76.557 17.0332V16.6934C76.557 16.2441 76.4515 15.9238 76.2405 15.7324C76.0335 15.541 75.7405 15.4453 75.3616 15.4453C75.0374 15.4453 74.723 15.4922 74.4183 15.5859C74.1136 15.6797 73.8167 15.7949 73.5277 15.9316L73.0823 14.959C73.3988 14.791 73.7581 14.6543 74.1605 14.5488C74.5667 14.4434 74.9886 14.3906 75.4261 14.3906ZM76.5511 17.9004L75.7132 17.9297C75.0257 17.9531 74.5433 18.0703 74.2659 18.2812C73.9886 18.4922 73.8499 18.7812 73.8499 19.1484C73.8499 19.4688 73.9456 19.7031 74.137 19.8516C74.3284 19.9961 74.5804 20.0684 74.8929 20.0684C75.3695 20.0684 75.764 19.9336 76.0765 19.6641C76.3929 19.3906 76.5511 18.9902 76.5511 18.4629V17.9004ZM82.4981 20.0039C82.6778 20.0039 82.8555 19.9883 83.0313 19.957C83.2071 19.9219 83.3673 19.8809 83.5118 19.834V20.877C83.3595 20.9434 83.1622 21 82.92 21.0469C82.6778 21.0938 82.4259 21.1172 82.1641 21.1172C81.797 21.1172 81.4669 21.0566 81.1739 20.9355C80.8809 20.8105 80.6485 20.5977 80.4766 20.2969C80.3048 19.9961 80.2188 19.5801 80.2188 19.0488V15.5625H79.3341V14.9473L80.2833 14.4609L80.7345 13.0723H81.6016V14.5137H83.4591V15.5625H81.6016V19.0312C81.6016 19.3594 81.6837 19.6035 81.8477 19.7637C82.0118 19.9238 82.2286 20.0039 82.4981 20.0039ZM94.1695 17.7422C94.1695 18.2812 94.0992 18.7598 93.9586 19.1777C93.818 19.5957 93.6129 19.9492 93.3434 20.2383C93.0738 20.5234 92.7496 20.7422 92.3707 20.8945C91.9918 21.043 91.5641 21.1172 91.0875 21.1172C90.6422 21.1172 90.234 21.043 89.8629 20.8945C89.4918 20.7422 89.1695 20.5234 88.8961 20.2383C88.6266 19.9492 88.4176 19.5957 88.2691 19.1777C88.1207 18.7598 88.0465 18.2812 88.0465 17.7422C88.0465 17.0273 88.1695 16.4219 88.4156 15.9258C88.6656 15.4258 89.0211 15.0449 89.482 14.7832C89.943 14.5215 90.4918 14.3906 91.1285 14.3906C91.7262 14.3906 92.2535 14.5215 92.7105 14.7832C93.1676 15.0449 93.525 15.4258 93.7828 15.9258C94.0406 16.4258 94.1695 17.0312 94.1695 17.7422ZM89.4645 17.7422C89.4645 18.2148 89.5211 18.6191 89.6344 18.9551C89.7516 19.291 89.9313 19.5488 90.1734 19.7285C90.4156 19.9043 90.7281 19.9922 91.1109 19.9922C91.4938 19.9922 91.8063 19.9043 92.0484 19.7285C92.2906 19.5488 92.4684 19.291 92.5816 18.9551C92.6949 18.6191 92.7516 18.2148 92.7516 17.7422C92.7516 17.2695 92.6949 16.8691 92.5816 16.541C92.4684 16.209 92.2906 15.957 92.0484 15.7852C91.8063 15.6094 91.4918 15.5215 91.1051 15.5215C90.5348 15.5215 90.1188 15.7129 89.857 16.0957C89.5953 16.4785 89.4645 17.0273 89.4645 17.7422ZM98.4056 20.0039C98.5853 20.0039 98.763 19.9883 98.9388 19.957C99.1146 19.9219 99.2748 19.8809 99.4193 19.834V20.877C99.267 20.9434 99.0697 21 98.8275 21.0469C98.5853 21.0938 98.3334 21.1172 98.0716 21.1172C97.7045 21.1172 97.3744 21.0566 97.0814 20.9355C96.7884 20.8105 96.556 20.5977 96.3841 20.2969C96.2123 19.9961 96.1263 19.5801 96.1263 19.0488V15.5625H95.2416V14.9473L96.1908 14.4609L96.642 13.0723H97.5091V14.5137H99.3666V15.5625H97.5091V19.0312C97.5091 19.3594 97.5912 19.6035 97.7552 19.7637C97.9193 19.9238 98.1361 20.0039 98.4056 20.0039ZM106.72 17.7422C106.72 18.2812 106.65 18.7598 106.509 19.1777C106.368 19.5957 106.163 19.9492 105.894 20.2383C105.624 20.5234 105.3 20.7422 104.921 20.8945C104.542 21.043 104.114 21.1172 103.638 21.1172C103.192 21.1172 102.784 21.043 102.413 20.8945C102.042 20.7422 101.72 20.5234 101.446 20.2383C101.177 19.9492 100.968 19.5957 100.819 19.1777C100.671 18.7598 100.597 18.2812 100.597 17.7422C100.597 17.0273 100.72 16.4219 100.966 15.9258C101.216 15.4258 101.571 15.0449 102.032 14.7832C102.493 14.5215 103.042 14.3906 103.679 14.3906C104.276 14.3906 104.804 14.5215 105.261 14.7832C105.718 15.0449 106.075 15.4258 106.333 15.9258C106.591 16.4258 106.72 17.0312 106.72 17.7422ZM102.015 17.7422C102.015 18.2148 102.071 18.6191 102.185 18.9551C102.302 19.291 102.482 19.5488 102.724 19.7285C102.966 19.9043 103.278 19.9922 103.661 19.9922C104.044 19.9922 104.357 19.9043 104.599 19.7285C104.841 19.5488 105.019 19.291 105.132 18.9551C105.245 18.6191 105.302 18.2148 105.302 17.7422C105.302 17.2695 105.245 16.8691 105.132 16.541C105.019 16.209 104.841 15.957 104.599 15.7852C104.357 15.6094 104.042 15.5215 103.655 15.5215C103.085 15.5215 102.669 15.7129 102.407 16.0957C102.146 16.4785 102.015 17.0273 102.015 17.7422ZM115.872 14.3906C116.599 14.3906 117.145 14.5781 117.513 14.9531C117.884 15.3281 118.069 15.9297 118.069 16.7578V21H116.692V17.0039C116.692 16.5117 116.597 16.1406 116.405 15.8906C116.214 15.6406 115.923 15.5156 115.532 15.5156C114.985 15.5156 114.591 15.6914 114.349 16.043C114.11 16.3906 113.991 16.8965 113.991 17.5605V21H112.614V17.0039C112.614 16.6758 112.571 16.4023 112.485 16.1836C112.403 15.9609 112.276 15.7949 112.104 15.6855C111.933 15.5723 111.716 15.5156 111.454 15.5156C111.075 15.5156 110.772 15.6016 110.546 15.7734C110.323 15.9453 110.163 16.1992 110.065 16.5352C109.968 16.8672 109.919 17.2754 109.919 17.7598V21H108.542V14.5137H109.614L109.808 15.3867H109.884C110.016 15.1602 110.181 14.9746 110.376 14.8301C110.575 14.6816 110.796 14.5723 111.038 14.502C111.28 14.4277 111.532 14.3906 111.794 14.3906C112.278 14.3906 112.686 14.4766 113.018 14.6484C113.35 14.8164 113.599 15.0742 113.763 15.4219H113.868C114.071 15.0703 114.354 14.8105 114.718 14.6426C115.081 14.4746 115.466 14.3906 115.872 14.3906ZM122.774 14.3906C123.594 14.3906 124.214 14.5723 124.631 14.9355C125.053 15.2988 125.264 15.8652 125.264 16.6348V21H124.286L124.022 20.0801H123.975C123.792 20.3145 123.602 20.5078 123.407 20.6602C123.212 20.8125 122.985 20.9258 122.727 21C122.473 21.0781 122.163 21.1172 121.796 21.1172C121.409 21.1172 121.063 21.0469 120.758 20.9062C120.454 20.7617 120.214 20.543 120.038 20.25C119.862 19.957 119.774 19.5859 119.774 19.1367C119.774 18.4688 120.022 17.9668 120.518 17.6309C121.018 17.2949 121.772 17.1094 122.78 17.0742L123.905 17.0332V16.6934C123.905 16.2441 123.799 15.9238 123.589 15.7324C123.381 15.541 123.089 15.4453 122.71 15.4453C122.385 15.4453 122.071 15.4922 121.766 15.5859C121.462 15.6797 121.165 15.7949 120.876 15.9316L120.43 14.959C120.747 14.791 121.106 14.6543 121.508 14.5488C121.915 14.4434 122.337 14.3906 122.774 14.3906ZM123.899 17.9004L123.061 17.9297C122.374 17.9531 121.891 18.0703 121.614 18.2812C121.337 18.4922 121.198 18.7812 121.198 19.1484C121.198 19.4688 121.294 19.7031 121.485 19.8516C121.676 19.9961 121.928 20.0684 122.241 20.0684C122.717 20.0684 123.112 19.9336 123.424 19.6641C123.741 19.3906 123.899 18.9902 123.899 18.4629V17.9004ZM129.846 20.0039C130.026 20.0039 130.204 19.9883 130.379 19.957C130.555 19.9219 130.715 19.8809 130.86 19.834V20.877C130.707 20.9434 130.51 21 130.268 21.0469C130.026 21.0938 129.774 21.1172 129.512 21.1172C129.145 21.1172 128.815 21.0566 128.522 20.9355C128.229 20.8105 127.996 20.5977 127.825 20.2969C127.653 19.9961 127.567 19.5801 127.567 19.0488V15.5625H126.682V14.9473L127.631 14.4609L128.082 13.0723H128.95V14.5137H130.807V15.5625H128.95V19.0312C128.95 19.3594 129.032 19.6035 129.196 19.7637C129.36 19.9238 129.577 20.0039 129.846 20.0039ZM133.795 14.5137V21H132.418V14.5137H133.795ZM133.115 12.0293C133.326 12.0293 133.508 12.0859 133.66 12.1992C133.817 12.3125 133.895 12.5078 133.895 12.7852C133.895 13.0586 133.817 13.2539 133.66 13.3711C133.508 13.4844 133.326 13.541 133.115 13.541C132.897 13.541 132.711 13.4844 132.559 13.3711C132.41 13.2539 132.336 13.0586 132.336 12.7852C132.336 12.5078 132.41 12.3125 132.559 12.1992C132.711 12.0859 132.897 12.0293 133.115 12.0293ZM140.369 19.1484C140.369 19.5742 140.266 19.9336 140.059 20.2266C139.851 20.5195 139.549 20.7422 139.15 20.8945C138.756 21.043 138.271 21.1172 137.697 21.1172C137.244 21.1172 136.853 21.084 136.525 21.0176C136.201 20.9551 135.894 20.8574 135.605 20.7246V19.5352C135.914 19.6797 136.26 19.8047 136.643 19.9102C137.029 20.0156 137.394 20.0684 137.738 20.0684C138.191 20.0684 138.518 19.998 138.717 19.8574C138.916 19.7129 139.016 19.5215 139.016 19.2832C139.016 19.1426 138.975 19.0176 138.893 18.9082C138.814 18.7949 138.666 18.6797 138.447 18.5625C138.232 18.4414 137.916 18.2969 137.498 18.1289C137.088 17.9648 136.742 17.8008 136.461 17.6367C136.18 17.4727 135.967 17.2754 135.822 17.0449C135.678 16.8105 135.605 16.5117 135.605 16.1484C135.605 15.5742 135.832 15.1387 136.285 14.8418C136.742 14.541 137.346 14.3906 138.096 14.3906C138.494 14.3906 138.869 14.4316 139.221 14.5137C139.576 14.5918 139.924 14.707 140.264 14.8594L139.83 15.8965C139.537 15.7676 139.242 15.6621 138.945 15.5801C138.652 15.4941 138.353 15.4512 138.049 15.4512C137.693 15.4512 137.422 15.5059 137.234 15.6152C137.051 15.7246 136.959 15.8809 136.959 16.084C136.959 16.2363 137.004 16.3652 137.094 16.4707C137.184 16.5762 137.338 16.6816 137.557 16.7871C137.779 16.8926 138.088 17.0234 138.482 17.1797C138.869 17.3281 139.203 17.4844 139.484 17.6484C139.769 17.8086 139.988 18.0059 140.141 18.2402C140.293 18.4746 140.369 18.7773 140.369 19.1484ZM152.785 14.3906C153.511 14.3906 154.058 14.5781 154.425 14.9531C154.796 15.3281 154.982 15.9297 154.982 16.7578V21H153.605V17.0039C153.605 16.5117 153.509 16.1406 153.318 15.8906C153.126 15.6406 152.835 15.5156 152.445 15.5156C151.898 15.5156 151.503 15.6914 151.261 16.043C151.023 16.3906 150.904 16.8965 150.904 17.5605V21H149.527V17.0039C149.527 16.6758 149.484 16.4023 149.398 16.1836C149.316 15.9609 149.189 15.7949 149.017 15.6855C148.845 15.5723 148.628 15.5156 148.367 15.5156C147.988 15.5156 147.685 15.6016 147.458 15.7734C147.236 15.9453 147.076 16.1992 146.978 16.5352C146.88 16.8672 146.831 17.2754 146.831 17.7598V21H145.455V14.5137H146.527L146.72 15.3867H146.796C146.929 15.1602 147.093 14.9746 147.289 14.8301C147.488 14.6816 147.708 14.5723 147.951 14.502C148.193 14.4277 148.445 14.3906 148.706 14.3906C149.191 14.3906 149.599 14.4766 149.931 14.6484C150.263 14.8164 150.511 15.0742 150.675 15.4219H150.781C150.984 15.0703 151.267 14.8105 151.63 14.6426C151.994 14.4746 152.378 14.3906 152.785 14.3906ZM162.798 14.5137V21H161.714L161.527 20.127H161.45C161.314 20.3496 161.14 20.5352 160.929 20.6836C160.718 20.8281 160.484 20.9355 160.226 21.0059C159.968 21.0801 159.696 21.1172 159.411 21.1172C158.923 21.1172 158.505 21.0352 158.157 20.8711C157.814 20.7031 157.55 20.4453 157.366 20.0977C157.183 19.75 157.091 19.3008 157.091 18.75V14.5137H158.474V18.4922C158.474 18.9961 158.575 19.373 158.779 19.623C158.986 19.873 159.306 19.998 159.739 19.998C160.157 19.998 160.489 19.9121 160.736 19.7402C160.982 19.5684 161.155 19.3145 161.257 18.9785C161.363 18.6426 161.415 18.2305 161.415 17.7422V14.5137H162.798ZM170.55 21.1172C169.776 21.1172 169.155 20.8359 168.686 20.2734C168.221 19.707 167.989 18.873 167.989 17.7715C167.989 16.6582 168.225 15.8164 168.698 15.2461C169.175 14.6758 169.801 14.3906 170.579 14.3906C170.907 14.3906 171.194 14.4355 171.44 14.5254C171.686 14.6113 171.897 14.7285 172.073 14.877C172.253 15.0254 172.405 15.1914 172.53 15.375H172.594C172.575 15.2539 172.551 15.0801 172.524 14.8535C172.501 14.623 172.489 14.4102 172.489 14.2148V11.8828H173.872V21H172.794L172.548 20.1152H172.489C172.372 20.3027 172.223 20.4727 172.044 20.625C171.868 20.7734 171.657 20.8926 171.411 20.9824C171.169 21.0723 170.882 21.1172 170.55 21.1172ZM170.936 19.998C171.526 19.998 171.942 19.8281 172.184 19.4883C172.426 19.1484 172.551 18.6387 172.559 17.959V17.7773C172.559 17.0508 172.442 16.4941 172.208 16.1074C171.973 15.7168 171.546 15.5215 170.925 15.5215C170.428 15.5215 170.05 15.7227 169.788 16.125C169.53 16.5234 169.401 17.0801 169.401 17.7949C169.401 18.5098 169.53 19.0566 169.788 19.4355C170.05 19.8105 170.432 19.998 170.936 19.998ZM177.463 14.5137V21H176.086V14.5137H177.463ZM176.784 12.0293C176.995 12.0293 177.176 12.0859 177.329 12.1992C177.485 12.3125 177.563 12.5078 177.563 12.7852C177.563 13.0586 177.485 13.2539 177.329 13.3711C177.176 13.4844 176.995 13.541 176.784 13.541C176.565 13.541 176.379 13.4844 176.227 13.3711C176.079 13.2539 176.004 13.0586 176.004 12.7852C176.004 12.5078 176.079 12.3125 176.227 12.1992C176.379 12.0859 176.565 12.0293 176.784 12.0293ZM182.221 14.3906C183.041 14.3906 183.66 14.5723 184.078 14.9355C184.5 15.2988 184.711 15.8652 184.711 16.6348V21H183.733L183.469 20.0801H183.422C183.239 20.3145 183.049 20.5078 182.854 20.6602C182.658 20.8125 182.432 20.9258 182.174 21C181.92 21.0781 181.61 21.1172 181.242 21.1172C180.856 21.1172 180.51 21.0469 180.205 20.9062C179.901 20.7617 179.66 20.543 179.485 20.25C179.309 19.957 179.221 19.5859 179.221 19.1367C179.221 18.4688 179.469 17.9668 179.965 17.6309C180.465 17.2949 181.219 17.1094 182.227 17.0742L183.352 17.0332V16.6934C183.352 16.2441 183.246 15.9238 183.035 15.7324C182.828 15.541 182.535 15.4453 182.156 15.4453C181.832 15.4453 181.518 15.4922 181.213 15.5859C180.908 15.6797 180.612 15.7949 180.322 15.9316L179.877 14.959C180.194 14.791 180.553 14.6543 180.955 14.5488C181.362 14.4434 181.783 14.3906 182.221 14.3906ZM183.346 17.9004L182.508 17.9297C181.821 17.9531 181.338 18.0703 181.061 18.2812C180.783 18.4922 180.645 18.7812 180.645 19.1484C180.645 19.4688 180.74 19.7031 180.932 19.8516C181.123 19.9961 181.375 20.0684 181.688 20.0684C182.164 20.0684 182.559 19.9336 182.871 19.6641C183.188 19.3906 183.346 18.9902 183.346 18.4629V17.9004ZM188.256 11.8828V16.2891C188.256 16.4883 188.248 16.707 188.232 16.9453C188.217 17.1797 188.201 17.4004 188.186 17.6074H188.215C188.316 17.4707 188.438 17.3105 188.578 17.127C188.723 16.9434 188.859 16.7832 188.988 16.6465L190.969 14.5137H192.551L189.955 17.3027L192.721 21H191.104L189.029 18.1523L188.256 18.8145V21H186.879V11.8828H188.256ZM196.412 20.0039C196.592 20.0039 196.769 19.9883 196.945 19.957C197.121 19.9219 197.281 19.8809 197.426 19.834V20.877C197.273 20.9434 197.076 21 196.834 21.0469C196.592 21.0938 196.34 21.1172 196.078 21.1172C195.711 21.1172 195.381 21.0566 195.088 20.9355C194.795 20.8105 194.562 20.5977 194.39 20.2969C194.219 19.9961 194.133 19.5801 194.133 19.0488V15.5625H193.248V14.9473L194.197 14.4609L194.648 13.0723H195.515V14.5137H197.373V15.5625H195.515V19.0312C195.515 19.3594 195.597 19.6035 195.761 19.7637C195.926 19.9238 196.142 20.0039 196.412 20.0039ZM200.361 14.5137V21H198.984V14.5137H200.361ZM199.681 12.0293C199.892 12.0293 200.074 12.0859 200.226 12.1992C200.382 12.3125 200.46 12.5078 200.46 12.7852C200.46 13.0586 200.382 13.2539 200.226 13.3711C200.074 13.4844 199.892 13.541 199.681 13.541C199.462 13.541 199.277 13.4844 199.125 13.3711C198.976 13.2539 198.902 13.0586 198.902 12.7852C198.902 12.5078 198.976 12.3125 199.125 12.1992C199.277 12.0859 199.462 12.0293 199.681 12.0293ZM205.816 15.5625H204.24V21H202.863V15.5625H201.802V14.9004L202.863 14.4961V14.0449C202.863 13.4941 202.949 13.0566 203.12 12.7324C203.296 12.4082 203.546 12.1758 203.87 12.0352C204.199 11.8906 204.589 11.8184 205.042 11.8184C205.339 11.8184 205.611 11.8438 205.857 11.8945C206.103 11.9414 206.31 11.9961 206.478 12.0586L206.12 13.1016C205.988 13.0586 205.839 13.0195 205.675 12.9844C205.511 12.9453 205.335 12.9258 205.148 12.9258C204.835 12.9258 204.605 13.0234 204.456 13.2188C204.312 13.4141 204.24 13.6992 204.24 14.0742V14.5137H205.816V15.5625ZM208.54 11.8828V16.2891C208.54 16.4883 208.532 16.707 208.517 16.9453C208.501 17.1797 208.485 17.4004 208.47 17.6074H208.499C208.601 17.4707 208.722 17.3105 208.862 17.127C209.007 16.9434 209.144 16.7832 209.273 16.6465L211.253 14.5137H212.835L210.239 17.3027L213.005 21H211.388L209.314 18.1523L208.54 18.8145V21H207.163V11.8828H208.54ZM216.825 14.3906C217.645 14.3906 218.264 14.5723 218.682 14.9355C219.104 15.2988 219.315 15.8652 219.315 16.6348V21H218.337L218.073 20.0801H218.026C217.843 20.3145 217.653 20.5078 217.458 20.6602C217.262 20.8125 217.036 20.9258 216.778 21C216.524 21.0781 216.214 21.1172 215.846 21.1172C215.46 21.1172 215.114 21.0469 214.809 20.9062C214.505 20.7617 214.264 20.543 214.089 20.25C213.913 19.957 213.825 19.5859 213.825 19.1367C213.825 18.4688 214.073 17.9668 214.569 17.6309C215.069 17.2949 215.823 17.1094 216.831 17.0742L217.956 17.0332V16.6934C217.956 16.2441 217.85 15.9238 217.639 15.7324C217.432 15.541 217.139 15.4453 216.761 15.4453C216.436 15.4453 216.122 15.4922 215.817 15.5859C215.512 15.6797 215.216 15.7949 214.927 15.9316L214.481 14.959C214.798 14.791 215.157 14.6543 215.559 14.5488C215.966 14.4434 216.387 14.3906 216.825 14.3906ZM217.95 17.9004L217.112 17.9297C216.425 17.9531 215.942 18.0703 215.665 18.2812C215.387 18.4922 215.249 18.7812 215.249 19.1484C215.249 19.4688 215.345 19.7031 215.536 19.8516C215.727 19.9961 215.979 20.0684 216.292 20.0684C216.768 20.0684 217.163 19.9336 217.475 19.6641C217.792 19.3906 217.95 18.9902 217.95 18.4629V17.9004ZM224.864 14.3906C225.594 14.3906 226.163 14.5801 226.569 14.959C226.979 15.334 227.184 15.9375 227.184 16.7695V21H225.807V17.0273C225.807 16.5234 225.704 16.1465 225.497 15.8965C225.29 15.6426 224.969 15.5156 224.536 15.5156C223.907 15.5156 223.469 15.709 223.223 16.0957C222.981 16.4824 222.86 17.043 222.86 17.7773V21H221.483V14.5137H222.555L222.749 15.3926H222.825C222.965 15.166 223.139 14.9805 223.346 14.8359C223.557 14.6875 223.792 14.5762 224.049 14.502C224.311 14.4277 224.583 14.3906 224.864 14.3906ZM230.541 18.3867H229.504L229.223 12.4336H230.823L230.541 18.3867ZM229.153 20.2734C229.153 19.9531 229.235 19.7285 229.399 19.5996C229.567 19.4668 229.772 19.4004 230.014 19.4004C230.252 19.4004 230.455 19.4668 230.623 19.5996C230.791 19.7285 230.875 19.9531 230.875 20.2734C230.875 20.5859 230.791 20.8125 230.623 20.9531C230.455 21.0898 230.252 21.1582 230.014 21.1582C229.772 21.1582 229.567 21.0898 229.399 20.9531C229.235 20.8125 229.153 20.5859 229.153 20.2734Z" fill="white"/>
<path d="M30.3867 38H29.5566V34.6357H25.8066V38H24.9766V30.8613H25.8066V33.9033H29.5566V30.8613H30.3867V38ZM34.4881 32.5508C34.9438 32.5508 35.3344 32.6517 35.66 32.8535C35.9855 33.0553 36.2345 33.3385 36.407 33.7031C36.5796 34.0645 36.6658 34.4876 36.6658 34.9727V35.4756H32.9695C32.9793 36.1038 33.1355 36.5824 33.4383 36.9111C33.741 37.2399 34.1674 37.4043 34.7176 37.4043C35.0561 37.4043 35.3556 37.3734 35.616 37.3115C35.8764 37.2497 36.1466 37.1585 36.4266 37.0381V37.751C36.1564 37.8714 35.8878 37.9593 35.6209 38.0146C35.3572 38.07 35.0447 38.0977 34.6834 38.0977C34.1691 38.0977 33.7199 37.9935 33.3357 37.7852C32.9549 37.5736 32.6587 37.2643 32.4471 36.8574C32.2355 36.4505 32.1297 35.9525 32.1297 35.3633C32.1297 34.7871 32.2257 34.2891 32.4178 33.8691C32.6131 33.446 32.8865 33.1204 33.2381 32.8926C33.5929 32.6647 34.0096 32.5508 34.4881 32.5508ZM34.4783 33.2148C34.0454 33.2148 33.7003 33.3564 33.4432 33.6396C33.186 33.9229 33.033 34.3184 32.9842 34.8262H35.8162C35.813 34.5072 35.7625 34.2272 35.6648 33.9863C35.5704 33.7422 35.4256 33.5534 35.2303 33.4199C35.035 33.2832 34.7843 33.2148 34.4783 33.2148ZM39.0533 30.4023V32.3018C39.0533 32.5199 39.0468 32.7314 39.0338 32.9365C39.024 33.1416 39.0159 33.3011 39.0094 33.415H39.0533C39.1998 33.1742 39.4114 32.9707 39.6881 32.8047C39.9648 32.6387 40.318 32.5557 40.7477 32.5557C41.4182 32.5557 41.9521 32.7884 42.3492 33.2539C42.7496 33.7161 42.9498 34.4046 42.9498 35.3193C42.9498 35.9215 42.8587 36.4294 42.6764 36.8428C42.4941 37.2562 42.2369 37.5687 41.9049 37.7803C41.5729 37.9919 41.1806 38.0977 40.7281 38.0977C40.3049 38.0977 39.9566 38.0195 39.6832 37.8633C39.413 37.7038 39.2047 37.5101 39.0582 37.2822H38.9947L38.8287 38H38.2428V30.4023H39.0533ZM40.6158 33.2344C40.2285 33.2344 39.9208 33.3109 39.693 33.4639C39.4651 33.6136 39.3007 33.8415 39.1998 34.1475C39.1021 34.4502 39.0533 34.8343 39.0533 35.2998V35.3438C39.0533 36.0176 39.1656 36.5335 39.3902 36.8916C39.6148 37.2464 40.0234 37.4238 40.6158 37.4238C41.1139 37.4238 41.4866 37.2415 41.734 36.877C41.9846 36.5124 42.11 35.9915 42.11 35.3145C42.11 34.6243 41.9863 34.1051 41.7389 33.7568C41.4947 33.4085 41.1204 33.2344 40.6158 33.2344ZM46.5678 32.5605C47.2058 32.5605 47.6794 32.7038 47.9887 32.9902C48.2979 33.2767 48.4525 33.734 48.4525 34.3623V38H47.8617L47.7055 37.209H47.6664C47.5167 37.4043 47.3604 37.5687 47.1977 37.7021C47.0349 37.8324 46.8461 37.9316 46.6313 38C46.4197 38.0651 46.1592 38.0977 45.85 38.0977C45.5245 38.0977 45.2348 38.0407 44.9809 37.9268C44.7302 37.8128 44.5316 37.6403 44.3852 37.4092C44.2419 37.1781 44.1703 36.8851 44.1703 36.5303C44.1703 35.9964 44.3819 35.5863 44.8051 35.2998C45.2283 35.0133 45.8728 34.8571 46.7387 34.8311L47.6615 34.792V34.4648C47.6615 34.0026 47.5622 33.6787 47.3637 33.4932C47.1651 33.3076 46.8852 33.2148 46.5238 33.2148C46.2439 33.2148 45.977 33.2555 45.723 33.3369C45.4691 33.4183 45.2283 33.5143 45.0004 33.625L44.7514 33.0098C44.9923 32.8861 45.2689 32.7803 45.5814 32.6924C45.8939 32.6045 46.2227 32.5605 46.5678 32.5605ZM47.6518 35.3633L46.8363 35.3975C46.169 35.4235 45.6986 35.5326 45.4252 35.7246C45.1518 35.9167 45.015 36.1885 45.015 36.54C45.015 36.846 45.1078 37.0723 45.2934 37.2188C45.4789 37.3652 45.7247 37.4385 46.0307 37.4385C46.5059 37.4385 46.8949 37.3066 47.1977 37.043C47.5004 36.7793 47.6518 36.3838 47.6518 35.8564V35.3633ZM52.051 37.4336C52.1844 37.4336 52.3212 37.4222 52.4611 37.3994C52.6011 37.3766 52.715 37.349 52.8029 37.3164V37.9463C52.7085 37.9886 52.5767 38.0244 52.4074 38.0537C52.2414 38.083 52.0786 38.0977 51.9191 38.0977C51.6359 38.0977 51.3788 38.0488 51.1477 37.9512C50.9165 37.8503 50.731 37.681 50.591 37.4434C50.4543 37.2057 50.3859 36.877 50.3859 36.457V33.2832H49.6242V32.8877L50.3908 32.5703L50.7131 31.4082H51.2014V32.6484H52.7687V33.2832H51.2014V36.4326C51.2014 36.7679 51.2779 37.0186 51.4309 37.1846C51.5871 37.3506 51.7938 37.4336 52.051 37.4336ZM54.8193 36.0176H54.2871L54.0625 30.8613H55.0439L54.8193 36.0176ZM53.9648 37.4922C53.9648 37.2643 54.0202 37.1032 54.1309 37.0088C54.2415 36.9111 54.3799 36.8623 54.5459 36.8623C54.7087 36.8623 54.8454 36.9111 54.9561 37.0088C55.07 37.1032 55.127 37.2643 55.127 37.4922C55.127 37.7168 55.07 37.8812 54.9561 37.9854C54.8454 38.0863 54.7087 38.1367 54.5459 38.1367C54.3799 38.1367 54.2415 38.0863 54.1309 37.9854C54.0202 37.8812 53.9648 37.7168 53.9648 37.4922ZM63.8814 36.1006C63.8814 36.5238 63.7757 36.8851 63.5641 37.1846C63.3557 37.4808 63.0628 37.707 62.6852 37.8633C62.3076 38.0195 61.8632 38.0977 61.3521 38.0977C61.082 38.0977 60.8264 38.0846 60.5855 38.0586C60.3447 38.0326 60.1233 37.9951 59.9215 37.9463C59.7197 37.8975 59.5423 37.8372 59.3893 37.7656V36.9697C59.6334 37.0706 59.9313 37.165 60.2828 37.2529C60.6344 37.3376 61.0022 37.3799 61.3863 37.3799C61.7444 37.3799 62.0471 37.3327 62.2945 37.2383C62.5419 37.1406 62.7291 37.0023 62.8561 36.8232C62.9863 36.641 63.0514 36.4229 63.0514 36.1689C63.0514 35.9248 62.9977 35.7214 62.8902 35.5586C62.7828 35.3926 62.6038 35.2428 62.3531 35.1094C62.1057 34.9727 61.7672 34.8278 61.3375 34.6748C61.0348 34.5674 60.7678 34.4502 60.5367 34.3232C60.3056 34.193 60.1119 34.0465 59.9557 33.8838C59.7994 33.721 59.6806 33.5322 59.5992 33.3174C59.5211 33.1025 59.482 32.8568 59.482 32.5801C59.482 32.1992 59.5781 31.8737 59.7701 31.6035C59.9654 31.3301 60.234 31.1217 60.5758 30.9785C60.9208 30.832 61.3163 30.7588 61.7623 30.7588C62.1432 30.7588 62.4947 30.7946 62.817 30.8662C63.1425 30.9378 63.4404 31.0339 63.7105 31.1543L63.4518 31.8672C63.1946 31.7598 62.9212 31.6702 62.6314 31.5986C62.345 31.527 62.0488 31.4912 61.7428 31.4912C61.4368 31.4912 61.178 31.5368 60.9664 31.6279C60.7581 31.7158 60.5986 31.8411 60.4879 32.0039C60.3772 32.1667 60.3219 32.3604 60.3219 32.585C60.3219 32.8356 60.374 33.0439 60.4781 33.21C60.5855 33.376 60.7548 33.5241 60.9859 33.6543C61.2203 33.7812 61.5296 33.9147 61.9137 34.0547C62.3336 34.2077 62.69 34.3704 62.983 34.543C63.276 34.7122 63.499 34.9206 63.652 35.168C63.8049 35.4121 63.8814 35.723 63.8814 36.1006ZM66.2299 32.6484V38H65.4193V32.6484H66.2299ZM65.8344 30.6465C65.9678 30.6465 66.0818 30.6904 66.1762 30.7783C66.2738 30.863 66.3227 30.9964 66.3227 31.1787C66.3227 31.3577 66.2738 31.4912 66.1762 31.5791C66.0818 31.667 65.9678 31.7109 65.8344 31.7109C65.6944 31.7109 65.5772 31.667 65.4828 31.5791C65.3917 31.4912 65.3461 31.3577 65.3461 31.1787C65.3461 30.9964 65.3917 30.863 65.4828 30.7783C65.5772 30.6904 65.6944 30.6465 65.8344 30.6465ZM71.6105 36.5352C71.6105 36.877 71.5243 37.165 71.3518 37.3994C71.1825 37.6305 70.9383 37.8047 70.6193 37.9219C70.3036 38.0391 69.926 38.0977 69.4865 38.0977C69.1122 38.0977 68.7883 38.0684 68.5148 38.0098C68.2414 37.9512 68.0021 37.8682 67.7971 37.7607V37.0137C68.0152 37.1211 68.2756 37.2188 68.5783 37.3066C68.8811 37.3945 69.1903 37.4385 69.5061 37.4385C69.9683 37.4385 70.3036 37.3636 70.5119 37.2139C70.7202 37.0641 70.8244 36.8607 70.8244 36.6035C70.8244 36.457 70.7821 36.3285 70.6975 36.2178C70.6161 36.1038 70.4777 35.9948 70.2824 35.8906C70.0871 35.7832 69.8169 35.666 69.4719 35.5391C69.1301 35.4089 68.8339 35.2803 68.5832 35.1533C68.3358 35.0231 68.1437 34.8652 68.007 34.6797C67.8736 34.4941 67.8068 34.2533 67.8068 33.957C67.8068 33.5046 67.9891 33.1579 68.3537 32.917C68.7215 32.6729 69.2033 32.5508 69.799 32.5508C70.1213 32.5508 70.4224 32.5833 70.7023 32.6484C70.9855 32.7103 71.2492 32.7949 71.4934 32.9023L71.2199 33.5518C70.9986 33.4574 70.7626 33.3776 70.5119 33.3125C70.2613 33.2474 70.0057 33.2148 69.7453 33.2148C69.371 33.2148 69.0829 33.2767 68.8811 33.4004C68.6825 33.5241 68.5832 33.6934 68.5832 33.9082C68.5832 34.0742 68.6288 34.2109 68.7199 34.3184C68.8143 34.4258 68.9641 34.5267 69.1691 34.6211C69.3742 34.7155 69.6444 34.8262 69.9797 34.9531C70.315 35.0768 70.6047 35.2054 70.8488 35.3389C71.093 35.4691 71.2801 35.6286 71.4104 35.8174C71.5438 36.0029 71.6105 36.2422 71.6105 36.5352ZM74.8428 37.4336C74.9762 37.4336 75.113 37.4222 75.2529 37.3994C75.3929 37.3766 75.5068 37.349 75.5947 37.3164V37.9463C75.5003 37.9886 75.3685 38.0244 75.1992 38.0537C75.0332 38.083 74.8704 38.0977 74.7109 38.0977C74.4277 38.0977 74.1706 38.0488 73.9395 37.9512C73.7083 37.8503 73.5228 37.681 73.3828 37.4434C73.2461 37.2057 73.1777 36.877 73.1777 36.457V33.2832H72.416V32.8877L73.1826 32.5703L73.5049 31.4082H73.9932V32.6484H75.5605V33.2832H73.9932V36.4326C73.9932 36.7679 74.0697 37.0186 74.2227 37.1846C74.3789 37.3506 74.5856 37.4336 74.8428 37.4336ZM78.9393 32.5508C79.395 32.5508 79.7856 32.6517 80.1111 32.8535C80.4367 33.0553 80.6857 33.3385 80.8582 33.7031C81.0307 34.0645 81.117 34.4876 81.117 34.9727V35.4756H77.4207C77.4305 36.1038 77.5867 36.5824 77.8895 36.9111C78.1922 37.2399 78.6186 37.4043 79.1688 37.4043C79.5073 37.4043 79.8068 37.3734 80.0672 37.3115C80.3276 37.2497 80.5978 37.1585 80.8777 37.0381V37.751C80.6076 37.8714 80.339 37.9593 80.0721 38.0146C79.8084 38.07 79.4959 38.0977 79.1346 38.0977C78.6202 38.0977 78.171 37.9935 77.7869 37.7852C77.4061 37.5736 77.1098 37.2643 76.8982 36.8574C76.6867 36.4505 76.5809 35.9525 76.5809 35.3633C76.5809 34.7871 76.6769 34.2891 76.8689 33.8691C77.0643 33.446 77.3377 33.1204 77.6893 32.8926C78.0441 32.6647 78.4607 32.5508 78.9393 32.5508ZM78.9295 33.2148C78.4966 33.2148 78.1515 33.3564 77.8943 33.6396C77.6372 33.9229 77.4842 34.3184 77.4354 34.8262H80.2674C80.2641 34.5072 80.2137 34.2272 80.116 33.9863C80.0216 33.7422 79.8768 33.5534 79.6814 33.4199C79.4861 33.2832 79.2355 33.2148 78.9295 33.2148ZM88.5045 32.5508C89.0937 32.5508 89.538 32.7054 89.8375 33.0146C90.137 33.3206 90.2867 33.8138 90.2867 34.4941V38H89.4859V34.5332C89.4859 34.1003 89.3915 33.7764 89.2027 33.5615C89.0172 33.3434 88.7405 33.2344 88.3727 33.2344C87.8551 33.2344 87.4791 33.3841 87.2447 33.6836C87.0104 33.9831 86.8932 34.4242 86.8932 35.0068V38H86.0875V34.5332C86.0875 34.2435 86.0452 34.0026 85.9605 33.8105C85.8792 33.6185 85.7555 33.4753 85.5895 33.3809C85.4267 33.2832 85.22 33.2344 84.9693 33.2344C84.6145 33.2344 84.3297 33.3076 84.1148 33.4541C83.9 33.6006 83.7438 33.8187 83.6461 34.1084C83.5517 34.3949 83.5045 34.748 83.5045 35.168V38H82.6939V32.6484H83.3482L83.4703 33.4053H83.5143C83.6217 33.2197 83.7568 33.0635 83.9195 32.9365C84.0823 32.8096 84.2646 32.7135 84.4664 32.6484C84.6682 32.5833 84.8831 32.5508 85.1109 32.5508C85.5178 32.5508 85.858 32.6273 86.1314 32.7803C86.4081 32.93 86.6083 33.1595 86.732 33.4688H86.776C86.9518 33.1595 87.1926 32.93 87.4986 32.7803C87.8046 32.6273 88.1399 32.5508 88.5045 32.5508ZM96.9514 32.5605C97.5894 32.5605 98.063 32.7038 98.3723 32.9902C98.6815 33.2767 98.8361 33.734 98.8361 34.3623V38H98.2453L98.0891 37.209H98.05C97.9003 37.4043 97.744 37.5687 97.5813 37.7021C97.4185 37.8324 97.2297 37.9316 97.0148 38C96.8033 38.0651 96.5428 38.0977 96.2336 38.0977C95.9081 38.0977 95.6184 38.0407 95.3645 37.9268C95.1138 37.8128 94.9152 37.6403 94.7688 37.4092C94.6255 37.1781 94.5539 36.8851 94.5539 36.5303C94.5539 35.9964 94.7655 35.5863 95.1887 35.2998C95.6119 35.0133 96.2564 34.8571 97.1223 34.8311L98.0451 34.792V34.4648C98.0451 34.0026 97.9458 33.6787 97.7473 33.4932C97.5487 33.3076 97.2688 33.2148 96.9074 33.2148C96.6275 33.2148 96.3605 33.2555 96.1066 33.3369C95.8527 33.4183 95.6119 33.5143 95.384 33.625L95.135 33.0098C95.3758 32.8861 95.6525 32.7803 95.965 32.6924C96.2775 32.6045 96.6063 32.5605 96.9514 32.5605ZM98.0354 35.3633L97.2199 35.3975C96.5526 35.4235 96.0822 35.5326 95.8088 35.7246C95.5354 35.9167 95.3986 36.1885 95.3986 36.54C95.3986 36.846 95.4914 37.0723 95.677 37.2188C95.8625 37.3652 96.1083 37.4385 96.4143 37.4385C96.8895 37.4385 97.2785 37.3066 97.5813 37.043C97.884 36.7793 98.0354 36.3838 98.0354 35.8564V35.3633ZM101.512 30.4023V34.3477C101.512 34.4779 101.507 34.6374 101.497 34.8262C101.487 35.0117 101.479 35.1761 101.473 35.3193H101.507C101.575 35.2347 101.674 35.1094 101.805 34.9434C101.938 34.7773 102.05 34.6439 102.142 34.543L103.919 32.6484H104.871L102.718 34.9336L105.027 38H104.051L102.161 35.4658L101.512 36.0615V38H100.706V30.4023H101.512ZM108.162 32.5605C108.8 32.5605 109.274 32.7038 109.583 32.9902C109.892 33.2767 110.047 33.734 110.047 34.3623V38H109.456L109.3 37.209H109.261C109.111 37.4043 108.955 37.5687 108.792 37.7021C108.629 37.8324 108.44 37.9316 108.225 38C108.014 38.0651 107.753 38.0977 107.444 38.0977C107.119 38.0977 106.829 38.0407 106.575 37.9268C106.324 37.8128 106.126 37.6403 105.979 37.4092C105.836 37.1781 105.764 36.8851 105.764 36.5303C105.764 35.9964 105.976 35.5863 106.399 35.2998C106.822 35.0133 107.467 34.8571 108.333 34.8311L109.256 34.792V34.4648C109.256 34.0026 109.156 33.6787 108.958 33.4932C108.759 33.3076 108.479 33.2148 108.118 33.2148C107.838 33.2148 107.571 33.2555 107.317 33.3369C107.063 33.4183 106.822 33.5143 106.595 33.625L106.346 33.0098C106.586 32.8861 106.863 32.7803 107.176 32.6924C107.488 32.6045 107.817 32.5605 108.162 32.5605ZM109.246 35.3633L108.43 35.3975C107.763 35.4235 107.293 35.5326 107.019 35.7246C106.746 35.9167 106.609 36.1885 106.609 36.54C106.609 36.846 106.702 37.0723 106.887 37.2188C107.073 37.3652 107.319 37.4385 107.625 37.4385C108.1 37.4385 108.489 37.3066 108.792 37.043C109.095 36.7793 109.246 36.3838 109.246 35.8564V35.3633ZM114.451 32.5508C115.086 32.5508 115.566 32.707 115.891 33.0195C116.217 33.3288 116.379 33.8268 116.379 34.5137V38H115.579V34.5674C115.579 34.1214 115.476 33.7878 115.271 33.5664C115.069 33.3451 114.758 33.2344 114.338 33.2344C113.746 33.2344 113.329 33.402 113.088 33.7373C112.848 34.0726 112.727 34.5592 112.727 35.1973V38H111.917V32.6484H112.571L112.693 33.4199H112.737C112.851 33.2311 112.996 33.0732 113.171 32.9463C113.347 32.8161 113.544 32.7184 113.762 32.6533C113.98 32.585 114.21 32.5508 114.451 32.5508ZM126.858 32.5508C127.447 32.5508 127.891 32.7054 128.191 33.0146C128.49 33.3206 128.64 33.8138 128.64 34.4941V38H127.839V34.5332C127.839 34.1003 127.745 33.7764 127.556 33.5615C127.37 33.3434 127.094 33.2344 126.726 33.2344C126.208 33.2344 125.832 33.3841 125.598 33.6836C125.363 33.9831 125.246 34.4242 125.246 35.0068V38H124.441V34.5332C124.441 34.2435 124.398 34.0026 124.314 33.8105C124.232 33.6185 124.109 33.4753 123.943 33.3809C123.78 33.2832 123.573 33.2344 123.322 33.2344C122.968 33.2344 122.683 33.3076 122.468 33.4541C122.253 33.6006 122.097 33.8187 121.999 34.1084C121.905 34.3949 121.858 34.748 121.858 35.168V38H121.047V32.6484H121.701L121.823 33.4053H121.867C121.975 33.2197 122.11 33.0635 122.273 32.9365C122.435 32.8096 122.618 32.7135 122.82 32.6484C123.021 32.5833 123.236 32.5508 123.464 32.5508C123.871 32.5508 124.211 32.6273 124.485 32.7803C124.761 32.93 124.961 33.1595 125.085 33.4688H125.129C125.305 33.1595 125.546 32.93 125.852 32.7803C126.158 32.6273 126.493 32.5508 126.858 32.5508ZM132.565 32.5508C133.021 32.5508 133.412 32.6517 133.737 32.8535C134.063 33.0553 134.312 33.3385 134.484 33.7031C134.657 34.0645 134.743 34.4876 134.743 34.9727V35.4756H131.047C131.057 36.1038 131.213 36.5824 131.516 36.9111C131.818 37.2399 132.245 37.4043 132.795 37.4043C133.133 37.4043 133.433 37.3734 133.693 37.3115C133.954 37.2497 134.224 37.1585 134.504 37.0381V37.751C134.234 37.8714 133.965 37.9593 133.698 38.0146C133.435 38.07 133.122 38.0977 132.761 38.0977C132.246 38.0977 131.797 37.9935 131.413 37.7852C131.032 37.5736 130.736 37.2643 130.524 36.8574C130.313 36.4505 130.207 35.9525 130.207 35.3633C130.207 34.7871 130.303 34.2891 130.495 33.8691C130.69 33.446 130.964 33.1204 131.315 32.8926C131.67 32.6647 132.087 32.5508 132.565 32.5508ZM132.556 33.2148C132.123 33.2148 131.778 33.3564 131.521 33.6396C131.263 33.9229 131.11 34.3184 131.062 34.8262H133.894C133.89 34.5072 133.84 34.2272 133.742 33.9863C133.648 33.7422 133.503 33.5534 133.308 33.4199C133.112 33.2832 132.862 33.2148 132.556 33.2148ZM138.854 32.5508C139.489 32.5508 139.969 32.707 140.295 33.0195C140.62 33.3288 140.783 33.8268 140.783 34.5137V38H139.982V34.5674C139.982 34.1214 139.88 33.7878 139.675 33.5664C139.473 33.3451 139.162 33.2344 138.742 33.2344C138.15 33.2344 137.733 33.402 137.492 33.7373C137.251 34.0726 137.131 34.5592 137.131 35.1973V38H136.32V32.6484H136.974L137.096 33.4199H137.14C137.254 33.2311 137.399 33.0732 137.575 32.9463C137.751 32.8161 137.948 32.7184 138.166 32.6533C138.384 32.585 138.613 32.5508 138.854 32.5508ZM144.147 40.4023C143.444 40.4023 142.902 40.2705 142.521 40.0068C142.14 39.7464 141.95 39.3802 141.95 38.9082C141.95 38.5729 142.056 38.2865 142.267 38.0488C142.482 37.8112 142.778 37.6533 143.156 37.5752C143.016 37.5101 142.895 37.4124 142.795 37.2822C142.697 37.152 142.648 37.0023 142.648 36.833C142.648 36.6377 142.702 36.4668 142.809 36.3203C142.92 36.1706 143.088 36.0273 143.312 35.8906C143.032 35.7767 142.804 35.5846 142.629 35.3145C142.456 35.041 142.37 34.7236 142.37 34.3623C142.37 33.9782 142.449 33.651 142.609 33.3809C142.768 33.1074 143 32.8991 143.302 32.7559C143.605 32.6126 143.971 32.541 144.401 32.541C144.495 32.541 144.59 32.5459 144.684 32.5557C144.782 32.5622 144.875 32.5736 144.963 32.5898C145.05 32.6029 145.127 32.6191 145.192 32.6387H147.028V33.1611L146.042 33.2832C146.139 33.4102 146.221 33.5632 146.286 33.7422C146.351 33.9212 146.383 34.1198 146.383 34.3379C146.383 34.8717 146.203 35.2965 145.841 35.6123C145.48 35.9248 144.984 36.0811 144.352 36.0811C144.202 36.0811 144.049 36.068 143.893 36.042C143.734 36.1299 143.612 36.2275 143.527 36.335C143.446 36.4424 143.405 36.5661 143.405 36.7061C143.405 36.8102 143.436 36.8932 143.498 36.9551C143.563 37.0169 143.656 37.0625 143.776 37.0918C143.896 37.1178 144.041 37.1309 144.211 37.1309H145.153C145.736 37.1309 146.182 37.2529 146.491 37.4971C146.803 37.7412 146.96 38.0977 146.96 38.5664C146.96 39.1589 146.719 39.613 146.237 39.9287C145.755 40.2445 145.059 40.4023 144.147 40.4023ZM144.171 39.7676C144.614 39.7676 144.98 39.722 145.27 39.6309C145.563 39.543 145.781 39.4144 145.924 39.2451C146.071 39.0791 146.144 38.8805 146.144 38.6494C146.144 38.4346 146.095 38.2718 145.998 38.1611C145.9 38.0537 145.757 37.9821 145.568 37.9463C145.379 37.9072 145.148 37.8877 144.875 37.8877H143.947C143.706 37.8877 143.496 37.9251 143.317 38C143.138 38.0749 143 38.1855 142.902 38.332C142.808 38.4785 142.76 38.6608 142.76 38.8789C142.76 39.1686 142.882 39.3883 143.127 39.5381C143.371 39.6911 143.719 39.7676 144.171 39.7676ZM144.381 35.4902C144.769 35.4902 145.06 35.3926 145.255 35.1973C145.451 35.002 145.548 34.7171 145.548 34.3428C145.548 33.9424 145.449 33.6429 145.251 33.4443C145.052 33.2425 144.759 33.1416 144.372 33.1416C144.001 33.1416 143.714 33.2458 143.512 33.4541C143.314 33.6592 143.214 33.9603 143.214 34.3574C143.214 34.722 143.315 35.002 143.517 35.1973C143.719 35.3926 144.007 35.4902 144.381 35.4902ZM149.093 32.6484V38H148.283V32.6484H149.093ZM148.698 30.6465C148.831 30.6465 148.945 30.6904 149.039 30.7783C149.137 30.863 149.186 30.9964 149.186 31.1787C149.186 31.3577 149.137 31.4912 149.039 31.5791C148.945 31.667 148.831 31.7109 148.698 31.7109C148.558 31.7109 148.44 31.667 148.346 31.5791C148.255 31.4912 148.209 31.3577 148.209 31.1787C148.209 30.9964 148.255 30.863 148.346 30.7783C148.44 30.6904 148.558 30.6465 148.698 30.6465ZM153.546 32.5508C154.181 32.5508 154.661 32.707 154.987 33.0195C155.312 33.3288 155.475 33.8268 155.475 34.5137V38H154.674V34.5674C154.674 34.1214 154.571 33.7878 154.366 33.5664C154.165 33.3451 153.854 33.2344 153.434 33.2344C152.841 33.2344 152.425 33.402 152.184 33.7373C151.943 34.0726 151.822 34.5592 151.822 35.1973V38H151.012V32.6484H151.666L151.788 33.4199H151.832C151.946 33.2311 152.091 33.0732 152.267 32.9463C152.443 32.8161 152.64 32.7184 152.858 32.6533C153.076 32.585 153.305 32.5508 153.546 32.5508ZM158.839 40.4023C158.136 40.4023 157.594 40.2705 157.213 40.0068C156.832 39.7464 156.642 39.3802 156.642 38.9082C156.642 38.5729 156.747 38.2865 156.959 38.0488C157.174 37.8112 157.47 37.6533 157.848 37.5752C157.708 37.5101 157.587 37.4124 157.486 37.2822C157.389 37.152 157.34 37.0023 157.34 36.833C157.34 36.6377 157.394 36.4668 157.501 36.3203C157.612 36.1706 157.779 36.0273 158.004 35.8906C157.724 35.7767 157.496 35.5846 157.32 35.3145C157.148 35.041 157.062 34.7236 157.062 34.3623C157.062 33.9782 157.141 33.651 157.301 33.3809C157.46 33.1074 157.691 32.8991 157.994 32.7559C158.297 32.6126 158.663 32.541 159.093 32.541C159.187 32.541 159.282 32.5459 159.376 32.5557C159.474 32.5622 159.566 32.5736 159.654 32.5898C159.742 32.6029 159.819 32.6191 159.884 32.6387H161.72V33.1611L160.733 33.2832C160.831 33.4102 160.912 33.5632 160.978 33.7422C161.043 33.9212 161.075 34.1198 161.075 34.3379C161.075 34.8717 160.895 35.2965 160.533 35.6123C160.172 35.9248 159.675 36.0811 159.044 36.0811C158.894 36.0811 158.741 36.068 158.585 36.042C158.425 36.1299 158.303 36.2275 158.219 36.335C158.137 36.4424 158.097 36.5661 158.097 36.7061C158.097 36.8102 158.128 36.8932 158.189 36.9551C158.255 37.0169 158.347 37.0625 158.468 37.0918C158.588 37.1178 158.733 37.1309 158.902 37.1309H159.845C160.427 37.1309 160.873 37.2529 161.183 37.4971C161.495 37.7412 161.651 38.0977 161.651 38.5664C161.651 39.1589 161.41 39.613 160.929 39.9287C160.447 40.2445 159.75 40.4023 158.839 40.4023ZM158.863 39.7676C159.306 39.7676 159.672 39.722 159.962 39.6309C160.255 39.543 160.473 39.4144 160.616 39.2451C160.763 39.0791 160.836 38.8805 160.836 38.6494C160.836 38.4346 160.787 38.2718 160.689 38.1611C160.592 38.0537 160.449 37.9821 160.26 37.9463C160.071 37.9072 159.84 37.8877 159.566 37.8877H158.639C158.398 37.8877 158.188 37.9251 158.009 38C157.83 38.0749 157.691 38.1855 157.594 38.332C157.499 38.4785 157.452 38.6608 157.452 38.8789C157.452 39.1686 157.574 39.3883 157.818 39.5381C158.062 39.6911 158.411 39.7676 158.863 39.7676ZM159.073 35.4902C159.461 35.4902 159.752 35.3926 159.947 35.1973C160.143 35.002 160.24 34.7171 160.24 34.3428C160.24 33.9424 160.141 33.6429 159.942 33.4443C159.744 33.2425 159.451 33.1416 159.063 33.1416C158.692 33.1416 158.406 33.2458 158.204 33.4541C158.006 33.6592 157.906 33.9603 157.906 34.3574C157.906 34.722 158.007 35.002 158.209 35.1973C158.411 35.3926 158.699 35.4902 159.073 35.4902ZM164.976 32.5605C165.614 32.5605 166.088 32.7038 166.397 32.9902C166.707 33.2767 166.861 33.734 166.861 34.3623V38H166.27L166.114 37.209H166.075C165.925 37.4043 165.769 37.5687 165.606 37.7021C165.443 37.8324 165.255 37.9316 165.04 38C164.828 38.0651 164.568 38.0977 164.259 38.0977C163.933 38.0977 163.643 38.0407 163.389 37.9268C163.139 37.8128 162.94 37.6403 162.794 37.4092C162.651 37.1781 162.579 36.8851 162.579 36.5303C162.579 35.9964 162.79 35.5863 163.214 35.2998C163.637 35.0133 164.281 34.8571 165.147 34.8311L166.07 34.792V34.4648C166.07 34.0026 165.971 33.6787 165.772 33.4932C165.574 33.3076 165.294 33.2148 164.932 33.2148C164.652 33.2148 164.386 33.2555 164.132 33.3369C163.878 33.4183 163.637 33.5143 163.409 33.625L163.16 33.0098C163.401 32.8861 163.678 32.7803 163.99 32.6924C164.303 32.6045 164.631 32.5605 164.976 32.5605ZM166.06 35.3633L165.245 35.3975C164.578 35.4235 164.107 35.5326 163.834 35.7246C163.56 35.9167 163.424 36.1885 163.424 36.54C163.424 36.846 163.516 37.0723 163.702 37.2188C163.887 37.3652 164.133 37.4385 164.439 37.4385C164.915 37.4385 165.304 37.3066 165.606 37.043C165.909 36.7793 166.06 36.3838 166.06 35.8564V35.3633ZM170.46 37.4336C170.593 37.4336 170.73 37.4222 170.87 37.3994C171.01 37.3766 171.124 37.349 171.212 37.3164V37.9463C171.117 37.9886 170.985 38.0244 170.816 38.0537C170.65 38.083 170.487 38.0977 170.328 38.0977C170.045 38.0977 169.787 38.0488 169.556 37.9512C169.325 37.8503 169.14 37.681 169 37.4434C168.863 37.2057 168.795 36.877 168.795 36.457V33.2832H168.033V32.8877L168.799 32.5703L169.122 31.4082H169.61V32.6484H171.177V33.2832H169.61V36.4326C169.61 36.7679 169.686 37.0186 169.839 37.1846C169.996 37.3506 170.202 37.4336 170.46 37.4336ZM173.301 30.4023V34.3477C173.301 34.4779 173.296 34.6374 173.287 34.8262C173.277 35.0117 173.269 35.1761 173.262 35.3193H173.296C173.365 35.2347 173.464 35.1094 173.594 34.9434C173.728 34.7773 173.84 34.6439 173.931 34.543L175.708 32.6484H176.661L174.507 34.9336L176.817 38H175.84L173.951 35.4658L173.301 36.0615V38H172.496V30.4023H173.301ZM179.951 32.5605C180.589 32.5605 181.063 32.7038 181.372 32.9902C181.682 33.2767 181.836 33.734 181.836 34.3623V38H181.245L181.089 37.209H181.05C180.9 37.4043 180.744 37.5687 180.581 37.7021C180.418 37.8324 180.23 37.9316 180.015 38C179.803 38.0651 179.543 38.0977 179.234 38.0977C178.908 38.0977 178.618 38.0407 178.364 37.9268C178.114 37.8128 177.915 37.6403 177.769 37.4092C177.626 37.1781 177.554 36.8851 177.554 36.5303C177.554 35.9964 177.765 35.5863 178.189 35.2998C178.612 35.0133 179.256 34.8571 180.122 34.8311L181.045 34.792V34.4648C181.045 34.0026 180.946 33.6787 180.747 33.4932C180.549 33.3076 180.269 33.2148 179.907 33.2148C179.627 33.2148 179.361 33.2555 179.107 33.3369C178.853 33.4183 178.612 33.5143 178.384 33.625L178.135 33.0098C178.376 32.8861 178.653 32.7803 178.965 32.6924C179.278 32.6045 179.606 32.5605 179.951 32.5605ZM181.035 35.3633L180.22 35.3975C179.553 35.4235 179.082 35.5326 178.809 35.7246C178.535 35.9167 178.399 36.1885 178.399 36.54C178.399 36.846 178.491 37.0723 178.677 37.2188C178.863 37.3652 179.108 37.4385 179.414 37.4385C179.89 37.4385 180.279 37.3066 180.581 37.043C180.884 36.7793 181.035 36.3838 181.035 35.8564V35.3633ZM186.24 32.5508C186.875 32.5508 187.355 32.707 187.681 33.0195C188.006 33.3288 188.169 33.8268 188.169 34.5137V38H187.368V34.5674C187.368 34.1214 187.266 33.7878 187.061 33.5664C186.859 33.3451 186.548 33.2344 186.128 33.2344C185.535 33.2344 185.119 33.402 184.878 33.7373C184.637 34.0726 184.517 34.5592 184.517 35.1973V38H183.706V32.6484H184.36L184.482 33.4199H184.526C184.64 33.2311 184.785 33.0732 184.961 32.9463C185.137 32.8161 185.334 32.7184 185.552 32.6533C185.77 32.585 185.999 32.5508 186.24 32.5508ZM195.351 32.5508C196.018 32.5508 196.551 32.7803 196.948 33.2393C197.345 33.6982 197.544 34.3883 197.544 35.3096C197.544 35.9183 197.452 36.4294 197.27 36.8428C197.088 37.2562 196.831 37.5687 196.499 37.7803C196.17 37.9919 195.781 38.0977 195.332 38.0977C195.048 38.0977 194.799 38.0602 194.585 37.9854C194.37 37.9105 194.186 37.8096 194.033 37.6826C193.88 37.5557 193.753 37.4173 193.652 37.2676H193.593C193.603 37.3945 193.615 37.5475 193.628 37.7266C193.644 37.9056 193.652 38.0618 193.652 38.1953V40.3926H192.837V32.6484H193.505L193.613 33.4395H193.652C193.756 33.2767 193.883 33.1286 194.033 32.9951C194.183 32.8584 194.365 32.751 194.58 32.6729C194.798 32.5915 195.055 32.5508 195.351 32.5508ZM195.21 33.2344C194.838 33.2344 194.539 33.306 194.311 33.4492C194.087 33.5924 193.922 33.8073 193.818 34.0938C193.714 34.377 193.658 34.7334 193.652 35.1631V35.3193C193.652 35.7718 193.701 36.1543 193.798 36.4668C193.899 36.7793 194.064 37.0169 194.292 37.1797C194.523 37.3424 194.832 37.4238 195.219 37.4238C195.551 37.4238 195.828 37.3343 196.049 37.1553C196.271 36.9762 196.435 36.7272 196.543 36.4082C196.653 36.0859 196.709 35.7165 196.709 35.2998C196.709 34.6683 196.585 34.167 196.337 33.7959C196.093 33.4215 195.717 33.2344 195.21 33.2344ZM201.22 32.5508C201.676 32.5508 202.066 32.6517 202.392 32.8535C202.718 33.0553 202.967 33.3385 203.139 33.7031C203.312 34.0645 203.398 34.4876 203.398 34.9727V35.4756H199.702C199.711 36.1038 199.868 36.5824 200.17 36.9111C200.473 37.2399 200.899 37.4043 201.45 37.4043C201.788 37.4043 202.088 37.3734 202.348 37.3115C202.608 37.2497 202.879 37.1585 203.159 37.0381V37.751C202.888 37.8714 202.62 37.9593 202.353 38.0146C202.089 38.07 201.777 38.0977 201.415 38.0977C200.901 38.0977 200.452 37.9935 200.068 37.7852C199.687 37.5736 199.391 37.2643 199.179 36.8574C198.968 36.4505 198.862 35.9525 198.862 35.3633C198.862 34.7871 198.958 34.2891 199.15 33.8691C199.345 33.446 199.619 33.1204 199.97 32.8926C200.325 32.6647 200.742 32.5508 201.22 32.5508ZM201.21 33.2148C200.777 33.2148 200.432 33.3564 200.175 33.6396C199.918 33.9229 199.765 34.3184 199.716 34.8262H202.548C202.545 34.5072 202.495 34.2272 202.397 33.9863C202.302 33.7422 202.158 33.5534 201.962 33.4199C201.767 33.2832 201.516 33.2148 201.21 33.2148ZM210.785 32.5508C211.375 32.5508 211.819 32.7054 212.118 33.0146C212.418 33.3206 212.568 33.8138 212.568 34.4941V38H211.767V34.5332C211.767 34.1003 211.672 33.7764 211.484 33.5615C211.298 33.3434 211.021 33.2344 210.654 33.2344C210.136 33.2344 209.76 33.3841 209.526 33.6836C209.291 33.9831 209.174 34.4242 209.174 35.0068V38H208.368V34.5332C208.368 34.2435 208.326 34.0026 208.241 33.8105C208.16 33.6185 208.036 33.4753 207.87 33.3809C207.708 33.2832 207.501 33.2344 207.25 33.2344C206.895 33.2344 206.611 33.3076 206.396 33.4541C206.181 33.6006 206.025 33.8187 205.927 34.1084C205.833 34.3949 205.785 34.748 205.785 35.168V38H204.975V32.6484H205.629L205.751 33.4053H205.795C205.903 33.2197 206.038 33.0635 206.2 32.9365C206.363 32.8096 206.545 32.7135 206.747 32.6484C206.949 32.5833 207.164 32.5508 207.392 32.5508C207.799 32.5508 208.139 32.6273 208.412 32.7803C208.689 32.93 208.889 33.1595 209.013 33.4688H209.057C209.233 33.1595 209.474 32.93 209.779 32.7803C210.085 32.6273 210.421 32.5508 210.785 32.5508ZM215.243 30.4023V32.3018C215.243 32.5199 215.237 32.7314 215.224 32.9365C215.214 33.1416 215.206 33.3011 215.199 33.415H215.243C215.39 33.1742 215.601 32.9707 215.878 32.8047C216.155 32.6387 216.508 32.5557 216.938 32.5557C217.608 32.5557 218.142 32.7884 218.539 33.2539C218.939 33.7161 219.14 34.4046 219.14 35.3193C219.14 35.9215 219.049 36.4294 218.866 36.8428C218.684 37.2562 218.427 37.5687 218.095 37.7803C217.763 37.9919 217.37 38.0977 216.918 38.0977C216.495 38.0977 216.146 38.0195 215.873 37.8633C215.603 37.7038 215.395 37.5101 215.248 37.2822H215.185L215.019 38H214.433V30.4023H215.243ZM216.806 33.2344C216.418 33.2344 216.111 33.3109 215.883 33.4639C215.655 33.6136 215.491 33.8415 215.39 34.1475C215.292 34.4502 215.243 34.8343 215.243 35.2998V35.3438C215.243 36.0176 215.355 36.5335 215.58 36.8916C215.805 37.2464 216.213 37.4238 216.806 37.4238C217.304 37.4238 217.676 37.2415 217.924 36.877C218.174 36.5124 218.3 35.9915 218.3 35.3145C218.3 34.6243 218.176 34.1051 217.929 33.7568C217.685 33.4085 217.31 33.2344 216.806 33.2344ZM222.758 32.5605C223.396 32.5605 223.869 32.7038 224.179 32.9902C224.488 33.2767 224.642 33.734 224.642 34.3623V38H224.052L223.895 37.209H223.856C223.707 37.4043 223.55 37.5687 223.387 37.7021C223.225 37.8324 223.036 37.9316 222.821 38C222.61 38.0651 222.349 38.0977 222.04 38.0977C221.714 38.0977 221.425 38.0407 221.171 37.9268C220.92 37.8128 220.721 37.6403 220.575 37.4092C220.432 37.1781 220.36 36.8851 220.36 36.5303C220.36 35.9964 220.572 35.5863 220.995 35.2998C221.418 35.0133 222.063 34.8571 222.929 34.8311L223.851 34.792V34.4648C223.851 34.0026 223.752 33.6787 223.554 33.4932C223.355 33.3076 223.075 33.2148 222.714 33.2148C222.434 33.2148 222.167 33.2555 221.913 33.3369C221.659 33.4183 221.418 33.5143 221.19 33.625L220.941 33.0098C221.182 32.8861 221.459 32.7803 221.771 32.6924C222.084 32.6045 222.413 32.5605 222.758 32.5605ZM223.842 35.3633L223.026 35.3975C222.359 35.4235 221.888 35.5326 221.615 35.7246C221.342 35.9167 221.205 36.1885 221.205 36.54C221.205 36.846 221.298 37.0723 221.483 37.2188C221.669 37.3652 221.915 37.4385 222.221 37.4385C222.696 37.4385 223.085 37.3066 223.387 37.043C223.69 36.7793 223.842 36.3838 223.842 35.8564V35.3633ZM225.668 32.6484H226.537L227.718 35.7539C227.787 35.9362 227.85 36.112 227.909 36.2812C227.967 36.4473 228.019 36.6068 228.065 36.7598C228.111 36.9128 228.146 37.0609 228.172 37.2041H228.207C228.252 37.0413 228.317 36.8281 228.402 36.5645C228.487 36.2975 228.578 36.0257 228.675 35.749L229.794 32.6484H230.668L228.338 38.7861C228.215 39.1149 228.07 39.4014 227.904 39.6455C227.741 39.8896 227.543 40.0768 227.308 40.207C227.074 40.3405 226.791 40.4072 226.459 40.4072C226.306 40.4072 226.171 40.3975 226.053 40.3779C225.936 40.3617 225.835 40.3421 225.751 40.3193V39.6699C225.822 39.6862 225.908 39.7008 226.009 39.7139C226.114 39.7269 226.221 39.7334 226.332 39.7334C226.533 39.7334 226.708 39.6943 226.854 39.6162C227.004 39.5413 227.132 39.4307 227.24 39.2842C227.347 39.1377 227.44 38.9635 227.518 38.7617L227.811 38.0098L225.668 32.6484ZM233.724 32.5605C234.362 32.5605 234.836 32.7038 235.145 32.9902C235.454 33.2767 235.609 33.734 235.609 34.3623V38H235.018L234.862 37.209H234.823C234.673 37.4043 234.517 37.5687 234.354 37.7021C234.191 37.8324 234.002 37.9316 233.788 38C233.576 38.0651 233.316 38.0977 233.006 38.0977C232.681 38.0977 232.391 38.0407 232.137 37.9268C231.886 37.8128 231.688 37.6403 231.541 37.4092C231.398 37.1781 231.327 36.8851 231.327 36.5303C231.327 35.9964 231.538 35.5863 231.961 35.2998C232.385 35.0133 233.029 34.8571 233.895 34.8311L234.818 34.792V34.4648C234.818 34.0026 234.718 33.6787 234.52 33.4932C234.321 33.3076 234.041 33.2148 233.68 33.2148C233.4 33.2148 233.133 33.2555 232.879 33.3369C232.625 33.4183 232.385 33.5143 232.157 33.625L231.908 33.0098C232.149 32.8861 232.425 32.7803 232.738 32.6924C233.05 32.6045 233.379 32.5605 233.724 32.5605ZM234.808 35.3633L233.993 35.3975C233.325 35.4235 232.855 35.5326 232.581 35.7246C232.308 35.9167 232.171 36.1885 232.171 36.54C232.171 36.846 232.264 37.0723 232.45 37.2188C232.635 37.3652 232.881 37.4385 233.187 37.4385C233.662 37.4385 234.051 37.3066 234.354 37.043C234.657 36.7793 234.808 36.3838 234.808 35.8564V35.3633ZM239.91 32.5508C240.018 32.5508 240.13 32.5573 240.247 32.5703C240.364 32.5801 240.469 32.5947 240.56 32.6143L240.457 33.3662C240.369 33.3434 240.272 33.3255 240.164 33.3125C240.057 33.2995 239.956 33.293 239.862 33.293C239.647 33.293 239.443 33.3369 239.251 33.4248C239.062 33.5094 238.896 33.6331 238.753 33.7959C238.61 33.9554 238.498 34.1491 238.416 34.377C238.335 34.6016 238.294 34.8522 238.294 35.1289V38H237.479V32.6484H238.153L238.24 33.6348H238.275C238.385 33.4362 238.519 33.2555 238.675 33.0928C238.831 32.9268 239.012 32.7949 239.217 32.6973C239.425 32.5996 239.656 32.5508 239.91 32.5508ZM243.772 32.5605C244.41 32.5605 244.884 32.7038 245.193 32.9902C245.503 33.2767 245.657 33.734 245.657 34.3623V38H245.066L244.91 37.209H244.871C244.721 37.4043 244.565 37.5687 244.402 37.7021C244.24 37.8324 244.051 37.9316 243.836 38C243.624 38.0651 243.364 38.0977 243.055 38.0977C242.729 38.0977 242.439 38.0407 242.186 37.9268C241.935 37.8128 241.736 37.6403 241.59 37.4092C241.447 37.1781 241.375 36.8851 241.375 36.5303C241.375 35.9964 241.587 35.5863 242.01 35.2998C242.433 35.0133 243.077 34.8571 243.943 34.8311L244.866 34.792V34.4648C244.866 34.0026 244.767 33.6787 244.568 33.4932C244.37 33.3076 244.09 33.2148 243.729 33.2148C243.449 33.2148 243.182 33.2555 242.928 33.3369C242.674 33.4183 242.433 33.5143 242.205 33.625L241.956 33.0098C242.197 32.8861 242.474 32.7803 242.786 32.6924C243.099 32.6045 243.427 32.5605 243.772 32.5605ZM244.856 35.3633L244.041 35.3975C243.374 35.4235 242.903 35.5326 242.63 35.7246C242.356 35.9167 242.22 36.1885 242.22 36.54C242.22 36.846 242.312 37.0723 242.498 37.2188C242.684 37.3652 242.929 37.4385 243.235 37.4385C243.711 37.4385 244.1 37.3066 244.402 37.043C244.705 36.7793 244.856 36.3838 244.856 35.8564V35.3633ZM250.061 32.5508C250.696 32.5508 251.176 32.707 251.502 33.0195C251.827 33.3288 251.99 33.8268 251.99 34.5137V38H251.189V34.5674C251.189 34.1214 251.087 33.7878 250.882 33.5664C250.68 33.3451 250.369 33.2344 249.949 33.2344C249.357 33.2344 248.94 33.402 248.699 33.7373C248.458 34.0726 248.338 34.5592 248.338 35.1973V38H247.527V32.6484H248.181L248.304 33.4199H248.347C248.461 33.2311 248.606 33.0732 248.782 32.9463C248.958 32.8161 249.155 32.7184 249.373 32.6533C249.591 32.585 249.82 32.5508 250.061 32.5508ZM257.468 30.4023V32.3018C257.468 32.5199 257.462 32.7314 257.449 32.9365C257.439 33.1416 257.431 33.3011 257.424 33.415H257.468C257.615 33.1742 257.826 32.9707 258.103 32.8047C258.38 32.6387 258.733 32.5557 259.163 32.5557C259.833 32.5557 260.367 32.7884 260.764 33.2539C261.164 33.7161 261.365 34.4046 261.365 35.3193C261.365 35.9215 261.274 36.4294 261.091 36.8428C260.909 37.2562 260.652 37.5687 260.32 37.7803C259.988 37.9919 259.595 38.0977 259.143 38.0977C258.72 38.0977 258.371 38.0195 258.098 37.8633C257.828 37.7038 257.62 37.5101 257.473 37.2822H257.41L257.244 38H256.658V30.4023H257.468ZM259.031 33.2344C258.643 33.2344 258.336 33.3109 258.108 33.4639C257.88 33.6136 257.716 33.8415 257.615 34.1475C257.517 34.4502 257.468 34.8343 257.468 35.2998V35.3438C257.468 36.0176 257.58 36.5335 257.805 36.8916C258.03 37.2464 258.438 37.4238 259.031 37.4238C259.529 37.4238 259.901 37.2415 260.149 36.877C260.399 36.5124 260.525 35.9915 260.525 35.3145C260.525 34.6243 260.401 34.1051 260.154 33.7568C259.91 33.4085 259.535 33.2344 259.031 33.2344ZM265.041 32.5508C265.497 32.5508 265.888 32.6517 266.213 32.8535C266.539 33.0553 266.788 33.3385 266.96 33.7031C267.133 34.0645 267.219 34.4876 267.219 34.9727V35.4756H263.523C263.532 36.1038 263.689 36.5824 263.991 36.9111C264.294 37.2399 264.721 37.4043 265.271 37.4043C265.609 37.4043 265.909 37.3734 266.169 37.3115C266.43 37.2497 266.7 37.1585 266.98 37.0381V37.751C266.71 37.8714 266.441 37.9593 266.174 38.0146C265.91 38.07 265.598 38.0977 265.237 38.0977C264.722 38.0977 264.273 37.9935 263.889 37.7852C263.508 37.5736 263.212 37.2643 263 36.8574C262.789 36.4505 262.683 35.9525 262.683 35.3633C262.683 34.7871 262.779 34.2891 262.971 33.8691C263.166 33.446 263.44 33.1204 263.791 32.8926C264.146 32.6647 264.563 32.5508 265.041 32.5508ZM265.031 33.2148C264.599 33.2148 264.253 33.3564 263.996 33.6396C263.739 33.9229 263.586 34.3184 263.537 34.8262H266.369C266.366 34.5072 266.316 34.2272 266.218 33.9863C266.124 33.7422 265.979 33.5534 265.783 33.4199C265.588 33.2832 265.337 33.2148 265.031 33.2148ZM271.228 32.5508C271.335 32.5508 271.447 32.5573 271.564 32.5703C271.682 32.5801 271.786 32.5947 271.877 32.6143L271.774 33.3662C271.687 33.3434 271.589 33.3255 271.481 33.3125C271.374 33.2995 271.273 33.293 271.179 33.293C270.964 33.293 270.76 33.3369 270.568 33.4248C270.38 33.5094 270.214 33.6331 270.07 33.7959C269.927 33.9554 269.815 34.1491 269.733 34.377C269.652 34.6016 269.611 34.8522 269.611 35.1289V38H268.796V32.6484H269.47L269.558 33.6348H269.592C269.702 33.4362 269.836 33.2555 269.992 33.0928C270.148 32.9268 270.329 32.7949 270.534 32.6973C270.743 32.5996 270.974 32.5508 271.228 32.5508ZM274.992 38.0977C274.315 38.0977 273.778 37.8665 273.381 37.4043C272.987 36.9421 272.79 36.2552 272.79 35.3438C272.79 34.4225 272.992 33.7275 273.395 33.2588C273.799 32.7868 274.336 32.5508 275.007 32.5508C275.29 32.5508 275.537 32.5882 275.749 32.6631C275.96 32.738 276.143 32.8389 276.296 32.9658C276.449 33.0895 276.577 33.2311 276.681 33.3906H276.74C276.727 33.2897 276.714 33.1514 276.701 32.9756C276.688 32.7998 276.681 32.6566 276.681 32.5459V30.4023H277.492V38H276.838L276.716 37.2383H276.681C276.581 37.3978 276.452 37.5426 276.296 37.6729C276.143 37.8031 275.959 37.9072 275.744 37.9854C275.532 38.0602 275.282 38.0977 274.992 38.0977ZM275.119 37.4238C275.692 37.4238 276.097 37.2611 276.335 36.9355C276.572 36.61 276.691 36.1266 276.691 35.4854V35.3389C276.691 34.6585 276.577 34.1361 276.349 33.7715C276.125 33.4069 275.715 33.2246 275.119 33.2246C274.621 33.2246 274.248 33.4167 274.001 33.8008C273.753 34.1816 273.63 34.7025 273.63 35.3633C273.63 36.0208 273.752 36.5286 273.996 36.8867C274.243 37.2448 274.618 37.4238 275.119 37.4238ZM281.413 32.5605C282.051 32.5605 282.524 32.7038 282.834 32.9902C283.143 33.2767 283.297 33.734 283.297 34.3623V38H282.707L282.55 37.209H282.511C282.362 37.4043 282.205 37.5687 282.043 37.7021C281.88 37.8324 281.691 37.9316 281.476 38C281.265 38.0651 281.004 38.0977 280.695 38.0977C280.369 38.0977 280.08 38.0407 279.826 37.9268C279.575 37.8128 279.377 37.6403 279.23 37.4092C279.087 37.1781 279.015 36.8851 279.015 36.5303C279.015 35.9964 279.227 35.5863 279.65 35.2998C280.073 35.0133 280.718 34.8571 281.584 34.8311L282.506 34.792V34.4648C282.506 34.0026 282.407 33.6787 282.209 33.4932C282.01 33.3076 281.73 33.2148 281.369 33.2148C281.089 33.2148 280.822 33.2555 280.568 33.3369C280.314 33.4183 280.073 33.5143 279.845 33.625L279.596 33.0098C279.837 32.8861 280.114 32.7803 280.426 32.6924C280.739 32.6045 281.068 32.5605 281.413 32.5605ZM282.497 35.3633L281.681 35.3975C281.014 35.4235 280.544 35.5326 280.27 35.7246C279.997 35.9167 279.86 36.1885 279.86 36.54C279.86 36.846 279.953 37.0723 280.138 37.2188C280.324 37.3652 280.57 37.4385 280.876 37.4385C281.351 37.4385 281.74 37.3066 282.043 37.043C282.345 36.7793 282.497 36.3838 282.497 35.8564V35.3633ZM288.629 36.5352C288.629 36.877 288.543 37.165 288.371 37.3994C288.201 37.6305 287.957 37.8047 287.638 37.9219C287.322 38.0391 286.945 38.0977 286.505 38.0977C286.131 38.0977 285.807 38.0684 285.534 38.0098C285.26 37.9512 285.021 37.8682 284.816 37.7607V37.0137C285.034 37.1211 285.294 37.2188 285.597 37.3066C285.9 37.3945 286.209 37.4385 286.525 37.4385C286.987 37.4385 287.322 37.3636 287.531 37.2139C287.739 37.0641 287.843 36.8607 287.843 36.6035C287.843 36.457 287.801 36.3285 287.716 36.2178C287.635 36.1038 287.496 35.9948 287.301 35.8906C287.106 35.7832 286.836 35.666 286.491 35.5391C286.149 35.4089 285.853 35.2803 285.602 35.1533C285.355 35.0231 285.163 34.8652 285.026 34.6797C284.892 34.4941 284.826 34.2533 284.826 33.957C284.826 33.5046 285.008 33.1579 285.372 32.917C285.74 32.6729 286.222 32.5508 286.818 32.5508C287.14 32.5508 287.441 32.5833 287.721 32.6484C288.004 32.7103 288.268 32.7949 288.512 32.9023L288.239 33.5518C288.017 33.4574 287.781 33.3776 287.531 33.3125C287.28 33.2474 287.024 33.2148 286.764 33.2148C286.39 33.2148 286.102 33.2767 285.9 33.4004C285.701 33.5241 285.602 33.6934 285.602 33.9082C285.602 34.0742 285.648 34.2109 285.739 34.3184C285.833 34.4258 285.983 34.5267 286.188 34.6211C286.393 34.7155 286.663 34.8262 286.998 34.9531C287.334 35.0768 287.623 35.2054 287.868 35.3389C288.112 35.4691 288.299 35.6286 288.429 35.8174C288.563 36.0029 288.629 36.2422 288.629 36.5352ZM292.135 32.5605C292.773 32.5605 293.247 32.7038 293.556 32.9902C293.865 33.2767 294.02 33.734 294.02 34.3623V38H293.429L293.273 37.209H293.234C293.084 37.4043 292.928 37.5687 292.765 37.7021C292.602 37.8324 292.413 37.9316 292.198 38C291.987 38.0651 291.726 38.0977 291.417 38.0977C291.092 38.0977 290.802 38.0407 290.548 37.9268C290.297 37.8128 290.099 37.6403 289.952 37.4092C289.809 37.1781 289.737 36.8851 289.737 36.5303C289.737 35.9964 289.949 35.5863 290.372 35.2998C290.795 35.0133 291.44 34.8571 292.306 34.8311L293.229 34.792V34.4648C293.229 34.0026 293.129 33.6787 292.931 33.4932C292.732 33.3076 292.452 33.2148 292.091 33.2148C291.811 33.2148 291.544 33.2555 291.29 33.3369C291.036 33.4183 290.795 33.5143 290.568 33.625L290.319 33.0098C290.559 32.8861 290.836 32.7803 291.149 32.6924C291.461 32.6045 291.79 32.5605 292.135 32.5605ZM293.219 35.3633L292.404 35.3975C291.736 35.4235 291.266 35.5326 290.992 35.7246C290.719 35.9167 290.582 36.1885 290.582 36.54C290.582 36.846 290.675 37.0723 290.861 37.2188C291.046 37.3652 291.292 37.4385 291.598 37.4385C292.073 37.4385 292.462 37.3066 292.765 37.043C293.068 36.7793 293.219 36.3838 293.219 35.8564V35.3633ZM298.321 32.5508C298.429 32.5508 298.541 32.5573 298.658 32.5703C298.775 32.5801 298.88 32.5947 298.971 32.6143L298.868 33.3662C298.78 33.3434 298.683 33.3255 298.575 33.3125C298.468 33.2995 298.367 33.293 298.272 33.293C298.058 33.293 297.854 33.3369 297.662 33.4248C297.473 33.5094 297.307 33.6331 297.164 33.7959C297.021 33.9554 296.909 34.1491 296.827 34.377C296.746 34.6016 296.705 34.8522 296.705 35.1289V38H295.89V32.6484H296.563L296.651 33.6348H296.686C296.796 33.4362 296.93 33.2555 297.086 33.0928C297.242 32.9268 297.423 32.7949 297.628 32.6973C297.836 32.5996 298.067 32.5508 298.321 32.5508ZM300.987 30.4023V34.3477C300.987 34.4779 300.982 34.6374 300.972 34.8262C300.963 35.0117 300.955 35.1761 300.948 35.3193H300.982C301.051 35.2347 301.15 35.1094 301.28 34.9434C301.414 34.7773 301.526 34.6439 301.617 34.543L303.394 32.6484H304.346L302.193 34.9336L304.503 38H303.526L301.637 35.4658L300.987 36.0615V38H300.181V30.4023H300.987ZM307.637 32.5605C308.275 32.5605 308.749 32.7038 309.058 32.9902C309.367 33.2767 309.522 33.734 309.522 34.3623V38H308.931L308.775 37.209H308.736C308.586 37.4043 308.43 37.5687 308.267 37.7021C308.104 37.8324 307.916 37.9316 307.701 38C307.489 38.0651 307.229 38.0977 306.92 38.0977C306.594 38.0977 306.304 38.0407 306.05 37.9268C305.8 37.8128 305.601 37.6403 305.455 37.4092C305.311 37.1781 305.24 36.8851 305.24 36.5303C305.24 35.9964 305.451 35.5863 305.875 35.2998C306.298 35.0133 306.942 34.8571 307.808 34.8311L308.731 34.792V34.4648C308.731 34.0026 308.632 33.6787 308.433 33.4932C308.235 33.3076 307.955 33.2148 307.593 33.2148C307.313 33.2148 307.046 33.2555 306.793 33.3369C306.539 33.4183 306.298 33.5143 306.07 33.625L305.821 33.0098C306.062 32.8861 306.338 32.7803 306.651 32.6924C306.963 32.6045 307.292 32.5605 307.637 32.5605ZM308.721 35.3633L307.906 35.3975C307.239 35.4235 306.768 35.5326 306.495 35.7246C306.221 35.9167 306.085 36.1885 306.085 36.54C306.085 36.846 306.177 37.0723 306.363 37.2188C306.548 37.3652 306.794 37.4385 307.1 37.4385C307.575 37.4385 307.964 37.3066 308.267 37.043C308.57 36.7793 308.721 36.3838 308.721 35.8564V35.3633ZM313.926 32.5508C314.561 32.5508 315.041 32.707 315.367 33.0195C315.692 33.3288 315.855 33.8268 315.855 34.5137V38H315.054V34.5674C315.054 34.1214 314.952 33.7878 314.746 33.5664C314.545 33.3451 314.234 33.2344 313.814 33.2344C313.221 33.2344 312.805 33.402 312.564 33.7373C312.323 34.0726 312.203 34.5592 312.203 35.1973V38H311.392V32.6484H312.046L312.168 33.4199H312.212C312.326 33.2311 312.471 33.0732 312.647 32.9463C312.823 32.8161 313.02 32.7184 313.238 32.6533C313.456 32.585 313.685 32.5508 313.926 32.5508ZM321.333 30.4023V32.3018C321.333 32.5199 321.326 32.7314 321.313 32.9365C321.304 33.1416 321.296 33.3011 321.289 33.415H321.333C321.479 33.1742 321.691 32.9707 321.968 32.8047C322.244 32.6387 322.598 32.5557 323.027 32.5557C323.698 32.5557 324.232 32.7884 324.629 33.2539C325.029 33.7161 325.229 34.4046 325.229 35.3193C325.229 35.9215 325.138 36.4294 324.956 36.8428C324.774 37.2562 324.517 37.5687 324.185 37.7803C323.853 37.9919 323.46 38.0977 323.008 38.0977C322.585 38.0977 322.236 38.0195 321.963 37.8633C321.693 37.7038 321.484 37.5101 321.338 37.2822H321.274L321.108 38H320.522V30.4023H321.333ZM322.896 33.2344C322.508 33.2344 322.201 33.3109 321.973 33.4639C321.745 33.6136 321.58 33.8415 321.479 34.1475C321.382 34.4502 321.333 34.8343 321.333 35.2998V35.3438C321.333 36.0176 321.445 36.5335 321.67 36.8916C321.895 37.2464 322.303 37.4238 322.896 37.4238C323.394 37.4238 323.766 37.2415 324.014 36.877C324.264 36.5124 324.39 35.9915 324.39 35.3145C324.39 34.6243 324.266 34.1051 324.019 33.7568C323.774 33.4085 323.4 33.2344 322.896 33.2344ZM328.906 32.5508C329.362 32.5508 329.752 32.6517 330.078 32.8535C330.403 33.0553 330.652 33.3385 330.825 33.7031C330.998 34.0645 331.084 34.4876 331.084 34.9727V35.4756H327.388C327.397 36.1038 327.554 36.5824 327.856 36.9111C328.159 37.2399 328.585 37.4043 329.136 37.4043C329.474 37.4043 329.774 37.3734 330.034 37.3115C330.294 37.2497 330.565 37.1585 330.845 37.0381V37.751C330.574 37.8714 330.306 37.9593 330.039 38.0146C329.775 38.07 329.463 38.0977 329.101 38.0977C328.587 38.0977 328.138 37.9935 327.754 37.7852C327.373 37.5736 327.077 37.2643 326.865 36.8574C326.653 36.4505 326.548 35.9525 326.548 35.3633C326.548 34.7871 326.644 34.2891 326.836 33.8691C327.031 33.446 327.305 33.1204 327.656 32.8926C328.011 32.6647 328.428 32.5508 328.906 32.5508ZM328.896 33.2148C328.463 33.2148 328.118 33.3564 327.861 33.6396C327.604 33.9229 327.451 34.3184 327.402 34.8262H330.234C330.231 34.5072 330.18 34.2272 330.083 33.9863C329.988 33.7422 329.844 33.5534 329.648 33.4199C329.453 33.2832 329.202 33.2148 328.896 33.2148ZM333.471 30.4023V32.6729C333.471 32.8031 333.468 32.9349 333.462 33.0684C333.455 33.1986 333.444 33.319 333.427 33.4297H333.481C333.592 33.2409 333.732 33.083 333.901 32.9561C334.073 32.8258 334.269 32.7282 334.487 32.6631C334.705 32.5947 334.936 32.5605 335.18 32.5605C335.61 32.5605 335.968 32.6289 336.254 32.7656C336.544 32.9023 336.761 33.1139 336.904 33.4004C337.05 33.6868 337.124 34.0579 337.124 34.5137V38H336.323V34.5674C336.323 34.1214 336.22 33.7878 336.015 33.5664C335.813 33.3451 335.503 33.2344 335.083 33.2344C334.685 33.2344 334.368 33.3109 334.13 33.4639C333.896 33.6136 333.727 33.835 333.623 34.1279C333.522 34.4209 333.471 34.779 333.471 35.2021V38H332.661V30.4023H333.471ZM340.996 32.5605C341.634 32.5605 342.107 32.7038 342.416 32.9902C342.726 33.2767 342.88 33.734 342.88 34.3623V38H342.289L342.133 37.209H342.094C341.944 37.4043 341.788 37.5687 341.625 37.7021C341.463 37.8324 341.274 37.9316 341.059 38C340.847 38.0651 340.587 38.0977 340.278 38.0977C339.952 38.0977 339.663 38.0407 339.409 37.9268C339.158 37.8128 338.959 37.6403 338.813 37.4092C338.67 37.1781 338.598 36.8851 338.598 36.5303C338.598 35.9964 338.81 35.5863 339.233 35.2998C339.656 35.0133 340.301 34.8571 341.166 34.8311L342.089 34.792V34.4648C342.089 34.0026 341.99 33.6787 341.791 33.4932C341.593 33.3076 341.313 33.2148 340.952 33.2148C340.672 33.2148 340.405 33.2555 340.151 33.3369C339.897 33.4183 339.656 33.5143 339.428 33.625L339.179 33.0098C339.42 32.8861 339.697 32.7803 340.009 32.6924C340.322 32.6045 340.65 32.5605 340.996 32.5605ZM342.079 35.3633L341.264 35.3975C340.597 35.4235 340.126 35.5326 339.853 35.7246C339.579 35.9167 339.443 36.1885 339.443 36.54C339.443 36.846 339.536 37.0723 339.721 37.2188C339.907 37.3652 340.152 37.4385 340.458 37.4385C340.934 37.4385 341.323 37.3066 341.625 37.043C341.928 36.7793 342.079 36.3838 342.079 35.8564V35.3633ZM345.927 38L343.896 32.6484H344.765L345.942 35.8857C346.023 36.1071 346.106 36.3512 346.191 36.6182C346.275 36.8851 346.334 37.0999 346.366 37.2627H346.401C346.44 37.0999 346.505 36.8851 346.596 36.6182C346.687 36.348 346.77 36.1038 346.845 35.8857L348.022 32.6484H348.891L346.855 38H345.927ZM350.761 32.6484V38H349.95V32.6484H350.761ZM350.365 30.6465C350.499 30.6465 350.613 30.6904 350.707 30.7783C350.805 30.863 350.854 30.9964 350.854 31.1787C350.854 31.3577 350.805 31.4912 350.707 31.5791C350.613 31.667 350.499 31.7109 350.365 31.7109C350.225 31.7109 350.108 31.667 350.014 31.5791C349.923 31.4912 349.877 31.3577 349.877 31.1787C349.877 30.9964 349.923 30.863 350.014 30.7783C350.108 30.6904 350.225 30.6465 350.365 30.6465ZM357.294 35.3145C357.294 35.7539 357.237 36.1462 357.123 36.4912C357.009 36.8363 356.845 37.1276 356.63 37.3652C356.415 37.6029 356.154 37.7852 355.848 37.9121C355.546 38.0358 355.202 38.0977 354.818 38.0977C354.46 38.0977 354.131 38.0358 353.832 37.9121C353.536 37.7852 353.278 37.6029 353.06 37.3652C352.846 37.1276 352.678 36.8363 352.557 36.4912C352.44 36.1462 352.382 35.7539 352.382 35.3145C352.382 34.7285 352.481 34.2305 352.68 33.8203C352.878 33.4069 353.161 33.0928 353.529 32.8779C353.9 32.6598 354.341 32.5508 354.852 32.5508C355.341 32.5508 355.767 32.6598 356.132 32.8779C356.499 33.096 356.784 33.4118 356.986 33.8252C357.191 34.2354 357.294 34.7318 357.294 35.3145ZM353.221 35.3145C353.221 35.7441 353.278 36.1169 353.392 36.4326C353.506 36.7484 353.682 36.9925 353.92 37.165C354.157 37.3376 354.463 37.4238 354.838 37.4238C355.209 37.4238 355.513 37.3376 355.751 37.165C355.992 36.9925 356.169 36.7484 356.283 36.4326C356.397 36.1169 356.454 35.7441 356.454 35.3145C356.454 34.888 356.397 34.5202 356.283 34.2109C356.169 33.8984 355.993 33.6576 355.756 33.4883C355.518 33.319 355.21 33.2344 354.833 33.2344C354.276 33.2344 353.868 33.4183 353.607 33.7861C353.35 34.154 353.221 34.6634 353.221 35.3145ZM363.314 32.6484V38H362.65L362.533 37.248H362.489C362.378 37.4336 362.235 37.5898 362.059 37.7168C361.883 37.8438 361.685 37.9382 361.463 38C361.245 38.0651 361.013 38.0977 360.765 38.0977C360.342 38.0977 359.987 38.0293 359.701 37.8926C359.414 37.7559 359.198 37.5443 359.051 37.2578C358.908 36.9714 358.837 36.6035 358.837 36.1543V32.6484H359.657V36.0957C359.657 36.5417 359.758 36.8753 359.96 37.0967C360.161 37.3148 360.469 37.4238 360.882 37.4238C361.28 37.4238 361.595 37.349 361.83 37.1992C362.067 37.0495 362.238 36.8298 362.342 36.54C362.447 36.2471 362.499 35.889 362.499 35.4658V32.6484H363.314ZM367.66 32.5508C367.767 32.5508 367.879 32.5573 367.996 32.5703C368.114 32.5801 368.218 32.5947 368.309 32.6143L368.206 33.3662C368.119 33.3434 368.021 33.3255 367.913 33.3125C367.806 33.2995 367.705 33.293 367.611 33.293C367.396 33.293 367.192 33.3369 367 33.4248C366.812 33.5094 366.646 33.6331 366.502 33.7959C366.359 33.9554 366.247 34.1491 366.165 34.377C366.084 34.6016 366.043 34.8522 366.043 35.1289V38H365.228V32.6484H365.902L365.99 33.6348H366.024C366.135 33.4362 366.268 33.2555 366.424 33.0928C366.58 32.9268 366.761 32.7949 366.966 32.6973C367.175 32.5996 367.406 32.5508 367.66 32.5508ZM29.21 51.9902L28.2578 48.875C28.2155 48.7415 28.1748 48.6113 28.1357 48.4844C28.0999 48.3542 28.0658 48.2305 28.0332 48.1133C28.0039 47.9928 27.9762 47.8822 27.9502 47.7812C27.9274 47.6771 27.9079 47.5876 27.8916 47.5127H27.8574C27.8444 47.5876 27.8265 47.6771 27.8037 47.7812C27.7809 47.8822 27.7533 47.9928 27.7207 48.1133C27.6914 48.2337 27.6589 48.3607 27.623 48.4941C27.5872 48.6243 27.5465 48.7562 27.501 48.8896L26.5049 51.9902H25.5918L24.1172 46.6387H24.957L25.7285 49.5928C25.7806 49.7881 25.8294 49.9818 25.875 50.1738C25.9238 50.3626 25.9645 50.5417 25.9971 50.7109C26.0329 50.877 26.0589 51.0218 26.0752 51.1455H26.1143C26.1338 51.0641 26.1549 50.9665 26.1777 50.8525C26.2038 50.7386 26.2314 50.6182 26.2607 50.4912C26.2933 50.361 26.3275 50.2324 26.3633 50.1055C26.3991 49.9753 26.4349 49.8532 26.4707 49.7393L27.457 46.6387H28.3311L29.2832 49.7344C29.332 49.8906 29.3792 50.0534 29.4248 50.2227C29.4736 50.3919 29.5176 50.5563 29.5566 50.7158C29.5957 50.8721 29.6234 51.012 29.6396 51.1357H29.6787C29.6917 51.0251 29.7161 50.8883 29.752 50.7256C29.7878 50.5628 29.8285 50.3838 29.874 50.1885C29.9229 49.9932 29.9733 49.7946 30.0254 49.5928L30.8066 46.6387H31.6318L30.1523 51.9902H29.21ZM34.8104 46.5605C35.4484 46.5605 35.922 46.7038 36.2312 46.9902C36.5405 47.2767 36.6951 47.734 36.6951 48.3623V52H36.1043L35.948 51.209H35.909C35.7592 51.4043 35.603 51.5687 35.4402 51.7021C35.2775 51.8324 35.0887 51.9316 34.8738 52C34.6622 52.0651 34.4018 52.0977 34.0926 52.0977C33.7671 52.0977 33.4773 52.0407 33.2234 51.9268C32.9728 51.8128 32.7742 51.6403 32.6277 51.4092C32.4845 51.1781 32.4129 50.8851 32.4129 50.5303C32.4129 49.9964 32.6245 49.5863 33.0477 49.2998C33.4708 49.0133 34.1154 48.8571 34.9812 48.8311L35.9041 48.792V48.4648C35.9041 48.0026 35.8048 47.6787 35.6062 47.4932C35.4077 47.3076 35.1277 47.2148 34.7664 47.2148C34.4865 47.2148 34.2195 47.2555 33.9656 47.3369C33.7117 47.4183 33.4708 47.5143 33.243 47.625L32.9939 47.0098C33.2348 46.8861 33.5115 46.7803 33.824 46.6924C34.1365 46.6045 34.4653 46.5605 34.8104 46.5605ZM35.8943 49.3633L35.0789 49.3975C34.4116 49.4235 33.9412 49.5326 33.6678 49.7246C33.3943 49.9167 33.2576 50.1885 33.2576 50.54C33.2576 50.846 33.3504 51.0723 33.5359 51.2188C33.7215 51.3652 33.9673 51.4385 34.2732 51.4385C34.7485 51.4385 35.1375 51.3066 35.4402 51.043C35.743 50.7793 35.8943 50.3838 35.8943 49.8564V49.3633ZM39.3707 44.4023V48.3477C39.3707 48.4779 39.3658 48.6374 39.3561 48.8262C39.3463 49.0117 39.3382 49.1761 39.3316 49.3193H39.3658C39.4342 49.2347 39.5335 49.1094 39.6637 48.9434C39.7971 48.7773 39.9094 48.6439 40.0006 48.543L41.7779 46.6484H42.7301L40.5768 48.9336L42.8863 52H41.9098L40.0201 49.4658L39.3707 50.0615V52H38.565V44.4023H39.3707ZM45.7475 51.4336C45.8809 51.4336 46.0176 51.4222 46.1576 51.3994C46.2976 51.3766 46.4115 51.349 46.4994 51.3164V51.9463C46.405 51.9886 46.2732 52.0244 46.1039 52.0537C45.9379 52.083 45.7751 52.0977 45.6156 52.0977C45.3324 52.0977 45.0753 52.0488 44.8441 51.9512C44.613 51.8503 44.4275 51.681 44.2875 51.4434C44.1508 51.2057 44.0824 50.877 44.0824 50.457V47.2832H43.3207V46.8877L44.0873 46.5703L44.4096 45.4082H44.8979V46.6484H46.4652V47.2832H44.8979V50.4326C44.8979 50.7679 44.9743 51.0186 45.1273 51.1846C45.2836 51.3506 45.4903 51.4336 45.7475 51.4336ZM52.2023 46.6484V52H51.5383L51.4211 51.248H51.3771C51.2665 51.4336 51.1232 51.5898 50.9475 51.7168C50.7717 51.8438 50.5731 51.9382 50.3518 52C50.1337 52.0651 49.9009 52.0977 49.6535 52.0977C49.2303 52.0977 48.8755 52.0293 48.5891 51.8926C48.3026 51.7559 48.0861 51.5443 47.9396 51.2578C47.7964 50.9714 47.7248 50.6035 47.7248 50.1543V46.6484H48.5451V50.0957C48.5451 50.5417 48.646 50.8753 48.8479 51.0967C49.0497 51.3148 49.3573 51.4238 49.7707 51.4238C50.1678 51.4238 50.4836 51.349 50.718 51.1992C50.9556 51.0495 51.1265 50.8298 51.2307 50.54C51.3348 50.2471 51.3869 49.889 51.3869 49.4658V46.6484H52.2023ZM59.4285 46.5508C60.0958 46.5508 60.6281 46.7803 61.0252 47.2393C61.4223 47.6982 61.6209 48.3883 61.6209 49.3096C61.6209 49.9183 61.5298 50.4294 61.3475 50.8428C61.1652 51.2562 60.908 51.5687 60.576 51.7803C60.2472 51.9919 59.8582 52.0977 59.409 52.0977C59.1258 52.0977 58.8768 52.0602 58.6619 51.9854C58.4471 51.9105 58.2632 51.8096 58.1102 51.6826C57.9572 51.5557 57.8302 51.4173 57.7293 51.2676H57.6707C57.6805 51.3945 57.6919 51.5475 57.7049 51.7266C57.7212 51.9056 57.7293 52.0618 57.7293 52.1953V54.3926H56.9139V46.6484H57.5828L57.6902 47.4395H57.7293C57.8335 47.2767 57.9604 47.1286 58.1102 46.9951C58.2599 46.8584 58.4422 46.751 58.657 46.6729C58.8751 46.5915 59.1323 46.5508 59.4285 46.5508ZM59.2869 47.2344C58.9158 47.2344 58.6163 47.306 58.3885 47.4492C58.1639 47.5924 57.9995 47.8073 57.8953 48.0938C57.7911 48.377 57.7358 48.7334 57.7293 49.1631V49.3193C57.7293 49.7718 57.7781 50.1543 57.8758 50.4668C57.9767 50.7793 58.1411 51.0169 58.3689 51.1797C58.6001 51.3424 58.9093 51.4238 59.2967 51.4238C59.6287 51.4238 59.9054 51.3343 60.1268 51.1553C60.3481 50.9762 60.5125 50.7272 60.6199 50.4082C60.7306 50.0859 60.7859 49.7165 60.7859 49.2998C60.7859 48.6683 60.6622 48.167 60.4148 47.7959C60.1707 47.4215 59.7947 47.2344 59.2869 47.2344ZM65.2975 46.5508C65.7532 46.5508 66.1438 46.6517 66.4693 46.8535C66.7949 47.0553 67.0439 47.3385 67.2164 47.7031C67.3889 48.0645 67.4752 48.4876 67.4752 48.9727V49.4756H63.7789C63.7887 50.1038 63.9449 50.5824 64.2477 50.9111C64.5504 51.2399 64.9768 51.4043 65.527 51.4043C65.8655 51.4043 66.165 51.3734 66.4254 51.3115C66.6858 51.2497 66.956 51.1585 67.2359 51.0381V51.751C66.9658 51.8714 66.6972 51.9593 66.4303 52.0146C66.1666 52.07 65.8541 52.0977 65.4928 52.0977C64.9785 52.0977 64.5292 51.9935 64.1451 51.7852C63.7643 51.5736 63.468 51.2643 63.2564 50.8574C63.0449 50.4505 62.9391 49.9525 62.9391 49.3633C62.9391 48.7871 63.0351 48.2891 63.2271 47.8691C63.4225 47.446 63.6959 47.1204 64.0475 46.8926C64.4023 46.6647 64.8189 46.5508 65.2975 46.5508ZM65.2877 47.2148C64.8548 47.2148 64.5097 47.3564 64.2525 47.6396C63.9954 47.9229 63.8424 48.3184 63.7936 48.8262H66.6256C66.6223 48.5072 66.5719 48.2272 66.4742 47.9863C66.3798 47.7422 66.235 47.5534 66.0396 47.4199C65.8443 47.2832 65.5937 47.2148 65.2877 47.2148ZM74.8627 46.5508C75.4519 46.5508 75.8962 46.7054 76.1957 47.0146C76.4952 47.3206 76.6449 47.8138 76.6449 48.4941V52H75.8441V48.5332C75.8441 48.1003 75.7497 47.7764 75.5609 47.5615C75.3754 47.3434 75.0987 47.2344 74.7309 47.2344C74.2133 47.2344 73.8373 47.3841 73.6029 47.6836C73.3686 47.9831 73.2514 48.4242 73.2514 49.0068V52H72.4457V48.5332C72.4457 48.2435 72.4034 48.0026 72.3187 47.8105C72.2374 47.6185 72.1137 47.4753 71.9477 47.3809C71.7849 47.2832 71.5782 47.2344 71.3275 47.2344C70.9727 47.2344 70.6879 47.3076 70.473 47.4541C70.2582 47.6006 70.102 47.8187 70.0043 48.1084C69.9099 48.3949 69.8627 48.748 69.8627 49.168V52H69.0521V46.6484H69.7064L69.8285 47.4053H69.8725C69.9799 47.2197 70.115 47.0635 70.2777 46.9365C70.4405 46.8096 70.6228 46.7135 70.8246 46.6484C71.0264 46.5833 71.2413 46.5508 71.4691 46.5508C71.876 46.5508 72.2162 46.6273 72.4896 46.7803C72.7663 46.93 72.9665 47.1595 73.0902 47.4688H73.1342C73.31 47.1595 73.5508 46.93 73.8568 46.7803C74.1628 46.6273 74.4981 46.5508 74.8627 46.5508ZM79.3205 44.4023V46.3018C79.3205 46.5199 79.314 46.7314 79.301 46.9365C79.2912 47.1416 79.2831 47.3011 79.2766 47.415H79.3205C79.467 47.1742 79.6786 46.9707 79.9553 46.8047C80.232 46.6387 80.5852 46.5557 81.0148 46.5557C81.6854 46.5557 82.2193 46.7884 82.6164 47.2539C83.0168 47.7161 83.217 48.4046 83.217 49.3193C83.217 49.9215 83.1258 50.4294 82.9436 50.8428C82.7613 51.2562 82.5041 51.5687 82.1721 51.7803C81.84 51.9919 81.4478 52.0977 80.9953 52.0977C80.5721 52.0977 80.2238 52.0195 79.9504 51.8633C79.6802 51.7038 79.4719 51.5101 79.3254 51.2822H79.2619L79.0959 52H78.51V44.4023H79.3205ZM80.883 47.2344C80.4956 47.2344 80.188 47.3109 79.9602 47.4639C79.7323 47.6136 79.5679 47.8415 79.467 48.1475C79.3693 48.4502 79.3205 48.8343 79.3205 49.2998V49.3438C79.3205 50.0176 79.4328 50.5335 79.6574 50.8916C79.882 51.2464 80.2906 51.4238 80.883 51.4238C81.3811 51.4238 81.7538 51.2415 82.0012 50.877C82.2518 50.5124 82.3771 49.9915 82.3771 49.3145C82.3771 48.6243 82.2534 48.1051 82.0061 47.7568C81.7619 47.4085 81.3876 47.2344 80.883 47.2344ZM86.835 46.5605C87.473 46.5605 87.9466 46.7038 88.2559 46.9902C88.5651 47.2767 88.7197 47.734 88.7197 48.3623V52H88.1289L87.9727 51.209H87.9336C87.7839 51.4043 87.6276 51.5687 87.4648 51.7021C87.3021 51.8324 87.1133 51.9316 86.8984 52C86.6868 52.0651 86.4264 52.0977 86.1172 52.0977C85.7917 52.0977 85.502 52.0407 85.248 51.9268C84.9974 51.8128 84.7988 51.6403 84.6523 51.4092C84.5091 51.1781 84.4375 50.8851 84.4375 50.5303C84.4375 49.9964 84.6491 49.5863 85.0723 49.2998C85.4954 49.0133 86.14 48.8571 87.0059 48.8311L87.9287 48.792V48.4648C87.9287 48.0026 87.8294 47.6787 87.6309 47.4932C87.4323 47.3076 87.1523 47.2148 86.791 47.2148C86.5111 47.2148 86.2441 47.2555 85.9902 47.3369C85.7363 47.4183 85.4954 47.5143 85.2676 47.625L85.0186 47.0098C85.2594 46.8861 85.5361 46.7803 85.8486 46.6924C86.1611 46.6045 86.4899 46.5605 86.835 46.5605ZM87.9189 49.3633L87.1035 49.3975C86.4362 49.4235 85.9658 49.5326 85.6924 49.7246C85.4189 49.9167 85.2822 50.1885 85.2822 50.54C85.2822 50.846 85.375 51.0723 85.5605 51.2188C85.7461 51.3652 85.9919 51.4385 86.2979 51.4385C86.7731 51.4385 87.1621 51.3066 87.4648 51.043C87.7676 50.7793 87.9189 50.3838 87.9189 49.8564V49.3633ZM89.7449 46.6484H90.6141L91.7957 49.7539C91.8641 49.9362 91.9275 50.112 91.9861 50.2812C92.0447 50.4473 92.0968 50.6068 92.1424 50.7598C92.188 50.9128 92.2238 51.0609 92.2498 51.2041H92.284C92.3296 51.0413 92.3947 50.8281 92.4793 50.5645C92.5639 50.2975 92.6551 50.0257 92.7527 49.749L93.8709 46.6484H94.7449L92.4158 52.7861C92.2921 53.1149 92.1473 53.4014 91.9812 53.6455C91.8185 53.8896 91.6199 54.0768 91.3855 54.207C91.1512 54.3405 90.868 54.4072 90.5359 54.4072C90.3829 54.4072 90.2478 54.3975 90.1307 54.3779C90.0135 54.3617 89.9126 54.3421 89.8279 54.3193V53.6699C89.8995 53.6862 89.9858 53.7008 90.0867 53.7139C90.1909 53.7269 90.2983 53.7334 90.409 53.7334C90.6108 53.7334 90.785 53.6943 90.9314 53.6162C91.0812 53.5413 91.2098 53.4307 91.3172 53.2842C91.4246 53.1377 91.5174 52.9635 91.5955 52.7617L91.8885 52.0098L89.7449 46.6484ZM97.8014 46.5605C98.4394 46.5605 98.913 46.7038 99.2223 46.9902C99.5315 47.2767 99.6861 47.734 99.6861 48.3623V52H99.0953L98.9391 51.209H98.9C98.7503 51.4043 98.594 51.5687 98.4313 51.7021C98.2685 51.8324 98.0797 51.9316 97.8648 52C97.6533 52.0651 97.3928 52.0977 97.0836 52.0977C96.7581 52.0977 96.4684 52.0407 96.2145 51.9268C95.9638 51.8128 95.7652 51.6403 95.6188 51.4092C95.4755 51.1781 95.4039 50.8851 95.4039 50.5303C95.4039 49.9964 95.6155 49.5863 96.0387 49.2998C96.4619 49.0133 97.1064 48.8571 97.9723 48.8311L98.8951 48.792V48.4648C98.8951 48.0026 98.7958 47.6787 98.5973 47.4932C98.3987 47.3076 98.1188 47.2148 97.7574 47.2148C97.4775 47.2148 97.2105 47.2555 96.9566 47.3369C96.7027 47.4183 96.4619 47.5143 96.234 47.625L95.985 47.0098C96.2258 46.8861 96.5025 46.7803 96.815 46.6924C97.1275 46.6045 97.4563 46.5605 97.8014 46.5605ZM98.8854 49.3633L98.0699 49.3975C97.4026 49.4235 96.9322 49.5326 96.6588 49.7246C96.3854 49.9167 96.2486 50.1885 96.2486 50.54C96.2486 50.846 96.3414 51.0723 96.527 51.2188C96.7125 51.3652 96.9583 51.4385 97.2643 51.4385C97.7395 51.4385 98.1285 51.3066 98.4313 51.043C98.734 50.7793 98.8854 50.3838 98.8854 49.8564V49.3633ZM103.988 46.5508C104.095 46.5508 104.207 46.5573 104.325 46.5703C104.442 46.5801 104.546 46.5947 104.637 46.6143L104.535 47.3662C104.447 47.3434 104.349 47.3255 104.242 47.3125C104.134 47.2995 104.033 47.293 103.939 47.293C103.724 47.293 103.521 47.3369 103.329 47.4248C103.14 47.5094 102.974 47.6331 102.83 47.7959C102.687 47.9554 102.575 48.1491 102.494 48.377C102.412 48.6016 102.371 48.8522 102.371 49.1289V52H101.556V46.6484H102.23L102.318 47.6348H102.352C102.463 47.4362 102.596 47.2555 102.752 47.0928C102.909 46.9268 103.089 46.7949 103.294 46.6973C103.503 46.5996 103.734 46.5508 103.988 46.5508ZM107.85 46.5605C108.488 46.5605 108.961 46.7038 109.271 46.9902C109.58 47.2767 109.735 47.734 109.735 48.3623V52H109.144L108.988 51.209H108.948C108.799 51.4043 108.642 51.5687 108.48 51.7021C108.317 51.8324 108.128 51.9316 107.913 52C107.702 52.0651 107.441 52.0977 107.132 52.0977C106.807 52.0977 106.517 52.0407 106.263 51.9268C106.012 51.8128 105.814 51.6403 105.667 51.4092C105.524 51.1781 105.452 50.8851 105.452 50.5303C105.452 49.9964 105.664 49.5863 106.087 49.2998C106.51 49.0133 107.155 48.8571 108.021 48.8311L108.944 48.792V48.4648C108.944 48.0026 108.844 47.6787 108.646 47.4932C108.447 47.3076 108.167 47.2148 107.806 47.2148C107.526 47.2148 107.259 47.2555 107.005 47.3369C106.751 47.4183 106.51 47.5143 106.282 47.625L106.033 47.0098C106.274 46.8861 106.551 46.7803 106.863 46.6924C107.176 46.6045 107.505 46.5605 107.85 46.5605ZM108.934 49.3633L108.118 49.3975C107.451 49.4235 106.981 49.5326 106.707 49.7246C106.434 49.9167 106.297 50.1885 106.297 50.54C106.297 50.846 106.39 51.0723 106.575 51.2188C106.761 51.3652 107.007 51.4385 107.313 51.4385C107.788 51.4385 108.177 51.3066 108.48 51.043C108.782 50.7793 108.934 50.3838 108.934 49.8564V49.3633ZM114.139 46.5508C114.773 46.5508 115.254 46.707 115.579 47.0195C115.905 47.3288 116.067 47.8268 116.067 48.5137V52H115.267V48.5674C115.267 48.1214 115.164 47.7878 114.959 47.5664C114.757 47.3451 114.446 47.2344 114.026 47.2344C113.434 47.2344 113.017 47.402 112.776 47.7373C112.535 48.0726 112.415 48.5592 112.415 49.1973V52H111.604V46.6484H112.259L112.381 47.4199H112.425C112.539 47.2311 112.684 47.0732 112.859 46.9463C113.035 46.8161 113.232 46.7184 113.45 46.6533C113.668 46.585 113.898 46.5508 114.139 46.5508ZM126.546 46.5508C127.135 46.5508 127.579 46.7054 127.879 47.0146C128.178 47.3206 128.328 47.8138 128.328 48.4941V52H127.527V48.5332C127.527 48.1003 127.433 47.7764 127.244 47.5615C127.058 47.3434 126.782 47.2344 126.414 47.2344C125.896 47.2344 125.52 47.3841 125.286 47.6836C125.051 47.9831 124.934 48.4242 124.934 49.0068V52H124.129V48.5332C124.129 48.2435 124.086 48.0026 124.002 47.8105C123.92 47.6185 123.796 47.4753 123.63 47.3809C123.468 47.2832 123.261 47.2344 123.01 47.2344C122.656 47.2344 122.371 47.3076 122.156 47.4541C121.941 47.6006 121.785 47.8187 121.687 48.1084C121.593 48.3949 121.546 48.748 121.546 49.168V52H120.735V46.6484H121.389L121.511 47.4053H121.555C121.663 47.2197 121.798 47.0635 121.961 46.9365C122.123 46.8096 122.306 46.7135 122.507 46.6484C122.709 46.5833 122.924 46.5508 123.152 46.5508C123.559 46.5508 123.899 46.6273 124.172 46.7803C124.449 46.93 124.649 47.1595 124.773 47.4688H124.817C124.993 47.1595 125.234 46.93 125.54 46.7803C125.846 46.6273 126.181 46.5508 126.546 46.5508ZM134.612 46.6484V52H133.948L133.83 51.248H133.787C133.676 51.4336 133.533 51.5898 133.357 51.7168C133.181 51.8438 132.982 51.9382 132.761 52C132.543 52.0651 132.31 52.0977 132.063 52.0977C131.64 52.0977 131.285 52.0293 130.998 51.8926C130.712 51.7559 130.496 51.5443 130.349 51.2578C130.206 50.9714 130.134 50.6035 130.134 50.1543V46.6484H130.954V50.0957C130.954 50.5417 131.055 50.8753 131.257 51.0967C131.459 51.3148 131.767 51.4238 132.18 51.4238C132.577 51.4238 132.893 51.349 133.127 51.1992C133.365 51.0495 133.536 50.8298 133.64 50.54C133.744 50.2471 133.796 49.889 133.796 49.4658V46.6484H134.612ZM136.404 51.4922C136.404 51.2643 136.459 51.1032 136.57 51.0088C136.68 50.9111 136.815 50.8623 136.975 50.8623C137.141 50.8623 137.281 50.9111 137.395 51.0088C137.509 51.1032 137.566 51.2643 137.566 51.4922C137.566 51.7168 137.509 51.8812 137.395 51.9854C137.281 52.0863 137.141 52.1367 136.975 52.1367C136.815 52.1367 136.68 52.0863 136.57 51.9854C136.459 51.8812 136.404 51.7168 136.404 51.4922ZM139.23 51.4922C139.23 51.2643 139.286 51.1032 139.396 51.0088C139.507 50.9111 139.642 50.8623 139.802 50.8623C139.968 50.8623 140.108 50.9111 140.222 51.0088C140.336 51.1032 140.393 51.2643 140.393 51.4922C140.393 51.7168 140.336 51.8812 140.222 51.9854C140.108 52.0863 139.968 52.1367 139.802 52.1367C139.642 52.1367 139.507 52.0863 139.396 51.9854C139.286 51.8812 139.23 51.7168 139.23 51.4922ZM142.057 51.4922C142.057 51.2643 142.113 51.1032 142.223 51.0088C142.334 50.9111 142.469 50.8623 142.629 50.8623C142.795 50.8623 142.935 50.9111 143.049 51.0088C143.163 51.1032 143.22 51.2643 143.22 51.4922C143.22 51.7168 143.163 51.8812 143.049 51.9854C142.935 52.0863 142.795 52.1367 142.629 52.1367C142.469 52.1367 142.334 52.0863 142.223 51.9854C142.113 51.8812 142.057 51.7168 142.057 51.4922ZM144.884 51.4922C144.884 51.2643 144.94 51.1032 145.05 51.0088C145.161 50.9111 145.296 50.8623 145.456 50.8623C145.622 50.8623 145.762 50.9111 145.876 51.0088C145.99 51.1032 146.046 51.2643 146.046 51.4922C146.046 51.7168 145.99 51.8812 145.876 51.9854C145.762 52.0863 145.622 52.1367 145.456 52.1367C145.296 52.1367 145.161 52.0863 145.05 51.9854C144.94 51.8812 144.884 51.7168 144.884 51.4922Z" fill="white"/>
</g>
<defs>
<filter id="filter0_d_81_478" x="0" y="0" width="420" height="72" filterUnits="userSpaceOnUse" color-interpolation-filters="sRGB">
<feFlood flood-opacity="0" result="BackgroundImageFix"/>
<feColorMatrix in="SourceAlpha" type="matrix" values="0 0 0 0 0 0 0 0 0 0 0 0 0 0 0 0 0 0 127 0" result="hardAlpha"/>
<feOffset dy="4"/>
<feGaussianBlur stdDeviation="2"/>
<feComposite in2="hardAlpha" operator="out"/>
<feColorMatrix type="matrix" values="0 0 0 0 0 0 0 0 0 0 0 0 0 0 0 0 0 0 0.25 0"/>
<feBlend mode="normal" in2="BackgroundImageFix" result="effect1_dropShadow_81_478"/>
<feBlend mode="normal" in="SourceGraphic" in2="effect1_dropShadow_81_478" result="shape"/>
</filter>
</defs>
</svg>
