<?xml version="1.0" encoding="UTF-8"?>
<svg xmlns="http://www.w3.org/2000/svg" viewBox="0 0 188.32 188.32">
  <defs>
    <style>
      .cls-1 {
        fill: #f4b306;
      }

      .cls-2 {
        fill: #f7fffa;
      }

      .cls-3 {
        fill: #eea47d;
      }

      .cls-4 {
        fill: #fdc59d;
      }

      .cls-5 {
        fill: #6c4b41;
      }

      .cls-6 {
        fill: #bcedf4;
      }

      .cls-7 {
        fill: #4d2a22;
      }

      .cls-8 {
        fill: #4f0200;
      }

      .cls-9 {
        fill: #7c5850;
      }

      .cls-10 {
        fill: #fca691;
        mix-blend-mode: multiply;
        opacity: .61;
      }

      .cls-11 {
        isolation: isolate;
      }
    </style>
  </defs>
  <g class="cls-11">
    <g id="Layer_2" data-name="Layer 2">
      <g id="OBJECTS">
        <g>
          <circle class="cls-6" cx="94.16" cy="94.16" r="94.16" transform="translate(-39 94.16) rotate(-45)"/>
          <ellipse class="cls-7" cx="94.5" cy="148.53" rx="43.28" ry="32.67"/>
          <g>
            <g>
              <path class="cls-1" d="M94.16,188.32c15.53,0,30.17-3.79,43.09-10.45-.91-3.95-3.61-14.21-8.33-20.45-7.96-10.51-52.09-13.64-62.32-1.71-5.31,6.2-9.26,19.26-10.69,24.49,11.69,5.21,24.63,8.12,38.25,8.12Z"/>
              <path class="cls-2" d="M97.73,155.95c-.36-.12-6.39,8.71-9.25,6.93-2.86-1.78-7.36-11.52-5.33-13.42,2.02-1.9,26.67-1.72,27.1,.86,.33,2.01-1.81,14.1-4.9,13.51-3.09-.59-7.61-7.87-7.61-7.87Z"/>
              <g>
                <path class="cls-4" d="M65.53,157.07c-.28,.38-.55,.78-.82,1.2-.04,.07-.08,.14-.13,.2-.24,.38-.48,.77-.72,1.18-.05,.09-.11,.18-.16,.27-.26,.45-.51,.91-.75,1.37-.06,.11-.11,.22-.17,.32-.22,.43-.44,.86-.65,1.31-.03,.07-.07,.14-.1,.21-.23,.49-.46,.99-.69,1.49-.06,.13-.12,.26-.17,.39-.22,.5-.44,1-.65,1.51-.02,.05-.04,.11-.07,.16-.2,.47-.39,.95-.57,1.42-.05,.13-.1,.25-.15,.38-.19,.5-.38,1-.57,1.49-.04,.1-.07,.2-.11,.31-.16,.44-.32,.88-.47,1.31-.03,.1-.07,.19-.1,.29-.17,.49-.33,.97-.49,1.44-.04,.11-.07,.22-.11,.33-.15,.45-.29,.9-.43,1.33,0,.03-.02,.05-.03,.08-.15,.46-.29,.91-.42,1.34-.03,.09-.05,.17-.08,.26-.13,.43-.25,.84-.37,1.24,0,0,0,.02,0,.03-.12,.41-.23,.8-.34,1.17,0,.02-.01,.04-.02,.07-.11,.37-.2,.72-.29,1.04,5,2.23,10.24,4,15.65,5.34,.13-14.86-2.23-25.95-4.12-30.69-.3,.28-.59,.56-.84,.86-.3,.35-.59,.72-.88,1.11-.06,.09-.13,.17-.19,.26Z"/>
                <path class="cls-4" d="M136.83,176.16s-.01-.05-.02-.07c-.08-.31-.16-.64-.25-.98-.01-.05-.03-.1-.04-.15-.09-.34-.19-.68-.29-1.05,0-.01,0-.03-.01-.04-.1-.36-.21-.73-.32-1.1-.03-.09-.05-.18-.08-.26-.11-.38-.23-.76-.36-1.16-.02-.05-.03-.11-.05-.16-.11-.35-.23-.71-.35-1.07-.03-.1-.07-.2-.1-.3-.13-.4-.28-.8-.42-1.21-.03-.09-.07-.19-.1-.28-.13-.37-.27-.74-.42-1.12-.03-.07-.05-.14-.08-.21-.16-.41-.33-.83-.5-1.25-.04-.11-.09-.22-.14-.33-.18-.42-.36-.85-.55-1.27-.02-.04-.04-.08-.05-.12-.18-.4-.36-.79-.55-1.18-.05-.09-.09-.19-.14-.28-.2-.41-.41-.82-.62-1.22-.04-.08-.08-.15-.12-.23-.2-.36-.4-.72-.61-1.07-.04-.06-.07-.13-.11-.19-.23-.39-.47-.76-.71-1.13-.05-.08-.11-.16-.16-.24-.25-.37-.51-.74-.77-1.09,0,0,0,0,0,0-.27-.35-.57-.69-.92-1.02-.06-.06-.14-.12-.21-.18-.3-.28-.63-.56-.98-.82-.05-.04-.11-.08-.16-.12-.4-.29-.82-.58-1.28-.85-.02-.01-.04-.02-.06-.03-.5-.3-1.03-.59-1.59-.87,0,0,0,0,0,0-2.99,7.25-2.4,20.47-1.1,30.42,5.08-1.61,9.99-3.64,14.66-6.05-.11-.48-.25-1.06-.41-1.71Z"/>
              </g>
            </g>
            <polygon class="cls-4" points="100.83 142.02 101.63 151.98 97.53 155.88 93.48 152.18 93 141.93 100.83 142.02"/>
            <polygon class="cls-3" points="100.83 142.02 93 141.93 93.32 148.78 101.4 149.06 100.83 142.02"/>
          </g>
          <g>
            <path class="cls-4" d="M162.23,105.8c-.33,9.55-7.71,17.05-16.46,16.74-8.76-.31-15.58-8.3-15.25-17.85,.33-9.55,7.7-17.05,16.46-16.74,8.76,.31,15.58,8.3,15.25,17.85Z"/>
            <path class="cls-3" d="M158.98,105.47c-.2,5.63-4.54,10.05-9.71,9.87-5.16-.18-9.19-4.89-8.99-10.53,.2-5.63,4.54-10.05,9.71-9.87,5.16,.18,9.19,4.89,8.99,10.53Z"/>
            <path class="cls-4" d="M57.06,100.56c-.33,9.55-7.7,17.05-16.46,16.74-8.76-.31-15.58-8.3-15.25-17.85,.34-9.55,7.71-17.05,16.46-16.74,8.76,.31,15.58,8.3,15.25,17.85Z"/>
            <path class="cls-3" d="M50.26,100.18c-.2,5.63-4.54,10.05-9.71,9.87-5.16-.18-9.19-4.89-8.99-10.53,.2-5.63,4.54-10.05,9.71-9.87,5.16,.18,9.19,4.89,8.99,10.53Z"/>
            <path class="cls-4" d="M105.12,50.39l-18.13-.64c-42.39,2.87-42.9,21.37-43.72,44.7l-.24,6.97c-.82,23.33,17.43,42.9,40.76,43.72l18.13,.64c23.33,.82,42.9-17.43,43.72-40.76l.24-6.97c.82-23.33,6.73-46.52-40.76-47.66Z"/>
            <path class="cls-8" d="M109.26,81.59c1.96-.06,3.93,.18,5.85,.57,.96,.19,1.9,.45,2.82,.75,.46,.15,.92,.31,1.38,.49,.51,.2,.97,.45,1.54,.38,.6-.07,1.19-.72,.76-1.33-.61-.88-1.83-1.16-2.82-1.49s-2.08-.6-3.14-.79c-2.13-.4-4.24-.44-6.4-.28-1.09,.08-1.11,1.74,0,1.71h0Z"/>
            <path class="cls-8" d="M77.16,80.38c-2.14,.15-4.24,.46-6.27,1.15-1.01,.34-2,.74-2.96,1.2-.9,.43-2.24,.92-2.7,1.84-.29,.58,.06,1.34,.76,1.33,.99-.01,1.88-.78,2.74-1.21s1.78-.84,2.7-1.17c1.84-.66,3.78-1.21,5.72-1.43,.46-.05,.86-.36,.86-.86,0-.44-.39-.89-.86-.86h0Z"/>
            <path class="cls-7" d="M82.58,103.94c-2.41,2.98-23.31-2.86-21.61-5.19,1.69-2.34,23.28,3.13,21.61,5.19Z"/>
            <path class="cls-7" d="M104.58,103.94c2.41,2.98,23.31-2.86,21.61-5.19-1.69-2.34-23.28,3.13-21.61,5.19Z"/>
            <path class="cls-8" d="M85.2,109.8s10.37,6.49,15.97-1.19l-15.97,1.19Z"/>
            <path class="cls-5" d="M125.7,25.21c-41.99-9.12-94.29-5.52-90.69,59.02,0,0,2.86,3.08,5.33,8.58,1,2.23,4.16,20.23,4.6-.63,.11-5.47,1.84-11.82,3.48-17.74,26.06,5.08,67.15-10.87,76.01-17.58-5.45,5.84-18.45,16.75-40.67,18.31,0,0,35.35,1.53,50.02-15.86,7.72,10.64,9.42,45.31,11.6,45.31,2.42,0,.72-15.83,10.28-13.96,0,0,10.04-56.77-29.96-65.45Z"/>
            <path class="cls-9" d="M72.9,38.22c3.21,2.27-3.21,6.99-6.42,5.86-3.21-1.13,3.21-8.12,6.42-5.86Z"/>
            <path class="cls-9" d="M69.78,29.43c3.32,4.07-6.13,11.42-11.14,8.63s7.72-12.83,11.14-8.63Z"/>
            <path class="cls-8" d="M94.29,102.29c-.43,.83-.9,1.65-1.3,2.49l.78-.1c-.37-.47-.75-.94-1.16-1.37-.2-.21-.41-.42-.62-.63s-.46-.41-.58-.68c-.14-.31-.65-.22-.72,.09-.09,.36-.11,.75-.16,1.12-.04,.34-.06,.68-.07,1.02s-.02,.68-.01,1.02c0,.38-.04,.81,.14,1.16s.65,.21,.76-.1,.03-.73,.03-1.06,0-.68,0-1.02c.01-.68,.09-1.36,.09-2.04l-.59,.34c.25,.13,.44,.39,.61,.6s.35,.46,.51,.69c.34,.48,.69,.95,1.01,1.45,.2,.31,.66,.34,.86,0,.47-.81,.87-1.66,1.3-2.49,.12-.24,.06-.54-.18-.68-.23-.13-.56-.06-.68,.18h0Z"/>
            <path class="cls-10" d="M73.4,121.35c-.62,3.96-5.33,6.5-10.53,5.69-5.2-.81-8.91-4.68-8.29-8.63,.62-3.96,5.33-6.5,10.53-5.69,5.2,.81,8.91,4.68,8.29,8.63Z"/>
            <path class="cls-10" d="M134.98,116.43c.81,3.92-2.7,7.96-7.85,9.03-5.15,1.07-9.99-1.24-10.8-5.16-.81-3.92,2.7-7.96,7.85-9.03,5.15-1.07,9.99,1.24,10.8,5.16Z"/>
          </g>
        </g>
      </g>
    </g>
  </g>
</svg>