<svg width="63" height="62" viewBox="0 0 63 62" fill="none" xmlns="http://www.w3.org/2000/svg">
<rect width="63" height="61.6483" rx="20" fill="#806CF7"/>
<path d="M30.2917 20.8333H32.7083M31.5 36.5417V36.5538M24.25 22.0417C24.25 21.4007 24.5046 20.786 24.9578 20.3328C25.411 19.8796 26.0257 19.625 26.6667 19.625H36.3333C36.9743 19.625 37.589 19.8796 38.0422 20.3328C38.4954 20.786 38.75 21.4007 38.75 22.0417V38.9583C38.75 39.5993 38.4954 40.214 38.0422 40.6672C37.589 41.1204 36.9743 41.375 36.3333 41.375H26.6667C26.0257 41.375 25.411 41.1204 24.9578 40.6672C24.5046 40.214 24.25 39.5993 24.25 38.9583V22.0417Z" stroke="#F2F3F4" stroke-width="2" stroke-linecap="round" stroke-linejoin="round"/>
</svg>
