<svg width="63" height="62" viewBox="0 0 63 62" fill="none" xmlns="http://www.w3.org/2000/svg">
<rect width="63" height="61.6483" rx="20" fill="#F7C233"/>
<path d="M27.875 23.0417H25.4583C24.8174 23.0417 24.2027 23.2963 23.7495 23.7495C23.2962 24.2027 23.0416 24.8174 23.0416 25.4583V39.9583C23.0416 40.5993 23.2962 41.214 23.7495 41.6672C24.2027 42.1204 24.8174 42.375 25.4583 42.375H37.5416C38.1826 42.375 38.7973 42.1204 39.2505 41.6672C39.7037 41.214 39.9583 40.5993 39.9583 39.9583V25.4583C39.9583 24.8174 39.7037 24.2027 39.2505 23.7495C38.7973 23.2963 38.1826 23.0417 37.5416 23.0417H35.125M27.875 23.0417C27.875 22.4007 28.1296 21.786 28.5828 21.3328C29.036 20.8796 29.6507 20.625 30.2916 20.625H32.7083C33.3492 20.625 33.9639 20.8796 34.4171 21.3328C34.8703 21.786 35.125 22.4007 35.125 23.0417M27.875 23.0417C27.875 23.6826 28.1296 24.2973 28.5828 24.7505C29.036 25.2037 29.6507 25.4583 30.2916 25.4583H32.7083C33.3492 25.4583 33.9639 25.2037 34.4171 24.7505C34.8703 24.2973 35.125 23.6826 35.125 23.0417M33.9166 30.2917H30.8958C30.4151 30.2917 29.9541 30.4826 29.6142 30.8225C29.2743 31.1624 29.0833 31.6235 29.0833 32.1042C29.0833 32.5849 29.2743 33.0459 29.6142 33.3858C29.9541 33.7257 30.4151 33.9167 30.8958 33.9167H32.1041C32.5848 33.9167 33.0458 34.1076 33.3858 34.4475C33.7257 34.7874 33.9166 35.2485 33.9166 35.7292C33.9166 36.2099 33.7257 36.6709 33.3858 37.0108C33.0458 37.3507 32.5848 37.5417 32.1041 37.5417H29.0833M31.5 37.5417V38.75M31.5 29.0833V30.2917" stroke="#F2F3F4" stroke-width="2" stroke-linecap="round" stroke-linejoin="round"/>
</svg>
