<svg width="63" height="62" viewBox="0 0 63 62" fill="none" xmlns="http://www.w3.org/2000/svg">
<rect width="63" height="61.6483" rx="20" fill="#806CF7"/>
<path d="M37.5417 27.6667V24.0417C37.5417 23.7212 37.4144 23.4139 37.1878 23.1873C36.9612 22.9607 36.6538 22.8334 36.3334 22.8334H24.25C23.6091 22.8334 22.9944 23.088 22.5412 23.5412C22.088 23.9944 21.8334 24.6091 21.8334 25.25M21.8334 25.25C21.8334 25.891 22.088 26.5057 22.5412 26.9589C22.9944 27.4121 23.6091 27.6667 24.25 27.6667H38.75C39.0705 27.6667 39.3779 27.794 39.6045 28.0206C39.8311 28.2472 39.9584 28.5546 39.9584 28.875V32.5M21.8334 25.25V39.75C21.8334 40.391 22.088 41.0057 22.5412 41.4589C22.9944 41.9121 23.6091 42.1667 24.25 42.1667H38.75C39.0705 42.1667 39.3779 42.0394 39.6045 41.8128C39.8311 41.5862 39.9584 41.2788 39.9584 40.9584V37.3334M41.1667 32.5V37.3334H36.3334C35.6924 37.3334 35.0777 37.0788 34.6245 36.6255C34.1713 36.1723 33.9167 35.5576 33.9167 34.9167C33.9167 34.2758 34.1713 33.6611 34.6245 33.2079C35.0777 32.7547 35.6924 32.5 36.3334 32.5H41.1667Z" stroke="#F2F3F4" stroke-width="2" stroke-linecap="round" stroke-linejoin="round"/>
</svg>
