<svg width="65" height="18" viewBox="0 0 65 18" fill="none" xmlns="http://www.w3.org/2000/svg">
<rect x="0.5" y="0.699997" width="64" height="16.6" rx="4.5" fill="white" stroke="#878787"/>
<path d="M20.5961 5.366V7.877H21.7301C22.3241 7.877 22.7921 7.826 23.1341 7.724C23.4521 7.628 23.6651 7.427 23.7731 7.121C23.8271 6.977 23.8541 6.8 23.8541 6.59C23.8541 6.194 23.7491 5.9 23.5391 5.708C23.3591 5.552 23.0111 5.447 22.4951 5.393C22.2671 5.375 21.9821 5.366 21.6401 5.366H20.5961ZM19.9391 11V4.889H21.7481C22.7441 4.889 23.4461 5.015 23.8541 5.267C24.2621 5.513 24.4661 5.945 24.4661 6.563C24.4661 7.109 24.3251 7.523 24.0431 7.805C23.7851 8.057 23.3141 8.222 22.6301 8.3C22.3121 8.336 21.9341 8.354 21.4961 8.354H20.5781V11H19.9391ZM25.9786 7.643C25.8106 7.979 25.7266 8.384 25.7266 8.858C25.7266 9.242 25.7806 9.578 25.8886 9.866C25.9966 10.196 26.1886 10.424 26.4646 10.55C26.6086 10.622 26.7736 10.658 26.9596 10.658C27.3256 10.658 27.6106 10.532 27.8146 10.28C27.9946 10.058 28.1086 9.761 28.1566 9.389C28.1806 9.245 28.1926 9.068 28.1926 8.858C28.1926 8.492 28.1386 8.159 28.0306 7.859C27.9106 7.529 27.7186 7.301 27.4546 7.175C27.2926 7.109 27.1276 7.076 26.9596 7.076C26.4916 7.076 26.1646 7.265 25.9786 7.643ZM28.2916 7.22C28.6276 7.604 28.7956 8.15 28.7956 8.858C28.7956 9.566 28.6306 10.118 28.3006 10.514C27.9766 10.904 27.5296 11.099 26.9596 11.099C26.3896 11.099 25.9396 10.904 25.6096 10.514C25.2856 10.124 25.1236 9.575 25.1236 8.867C25.1236 8.153 25.2886 7.604 25.6186 7.22C25.9486 6.83 26.3956 6.635 26.9596 6.635C27.5176 6.635 27.9616 6.83 28.2916 7.22ZM29.9399 11V6.725H30.5249V11H29.9399ZM29.9309 5.816V5.069H30.5159V5.816H29.9309ZM31.7888 11V6.725H32.3648V6.86V7.121V7.418V7.535C32.4788 7.229 32.6888 6.998 32.9948 6.842C33.2828 6.704 33.5708 6.635 33.8588 6.635C34.1828 6.635 34.4468 6.698 34.6508 6.824C34.8608 6.956 35.0048 7.109 35.0828 7.283C35.1728 7.493 35.2328 7.7 35.2628 7.904C35.2748 8.072 35.2808 8.18 35.2808 8.228V8.561V11H34.6958V8.489C34.6958 8.153 34.6598 7.868 34.5878 7.634C34.5098 7.412 34.3658 7.262 34.1558 7.184C34.0538 7.142 33.9248 7.121 33.7688 7.121C33.3548 7.121 33.0368 7.232 32.8148 7.454C32.6228 7.646 32.4908 7.94 32.4188 8.336C32.3888 8.528 32.3738 8.72 32.3738 8.912V11H31.7888ZM38.5559 10.865C38.3459 11.003 38.0999 11.072 37.8179 11.072C37.4459 11.072 37.1759 10.961 37.0079 10.739C36.8459 10.511 36.7649 10.145 36.7649 9.641V7.148H36.1349V6.725H36.8099V5.366L37.3679 5.213V6.725H38.2949V7.148H37.3679V9.911C37.3679 10.385 37.5599 10.622 37.9439 10.622C38.0699 10.622 38.2379 10.574 38.4479 10.478L38.5559 10.865ZM41.9386 7.697C41.7706 7.289 41.4136 7.085 40.8676 7.085C40.1656 7.085 39.8146 7.334 39.8146 7.832C39.8146 8.012 39.8836 8.159 40.0216 8.273C40.1296 8.375 40.3126 8.45 40.5706 8.498C40.6666 8.528 40.7866 8.555 40.9306 8.579C41.4286 8.669 41.7946 8.81 42.0286 9.002C42.2626 9.188 42.3796 9.455 42.3796 9.803C42.3796 10.667 41.8156 11.099 40.6876 11.099C40.3276 11.099 40.0126 11.027 39.7426 10.883C39.4306 10.715 39.2206 10.439 39.1126 10.055L39.5626 9.884C39.6646 10.154 39.8056 10.349 39.9856 10.469C40.1716 10.589 40.4266 10.649 40.7506 10.649C41.4766 10.649 41.8396 10.406 41.8396 9.92C41.8396 9.656 41.7556 9.467 41.5876 9.353C41.4196 9.245 41.0686 9.137 40.5346 9.029C40.2646 8.969 40.0156 8.882 39.7876 8.768C39.5776 8.672 39.4246 8.501 39.3286 8.255C39.2806 8.123 39.2566 7.979 39.2566 7.823C39.2566 7.457 39.4006 7.169 39.6886 6.959C39.9766 6.743 40.3576 6.635 40.8316 6.635C41.2216 6.635 41.5336 6.701 41.7676 6.833C42.0076 6.959 42.1996 7.172 42.3436 7.472L41.9386 7.697Z" fill="black"/>
</svg>
