<svg width="59" height="59" viewBox="0 0 59 59" fill="none" xmlns="http://www.w3.org/2000/svg">
<g filter="url(#filter0_d_276_101)">
<rect x="5" y="5" width="45" height="45" rx="10" fill="#FFA843"/>
</g>
<path d="M17.8333 21.4583V20.25C17.8333 19.6091 18.0879 18.9944 18.5411 18.5412C18.9943 18.088 19.609 17.8333 20.2499 17.8333H22.6666M17.8333 33.5417V34.75C17.8333 35.3909 18.0879 36.0056 18.5411 36.4588C18.9943 36.9121 19.609 37.1667 20.2499 37.1667H22.6666M32.3333 17.8333H34.7499C35.3909 17.8333 36.0055 18.088 36.4588 18.5412C36.912 18.9944 37.1666 19.6091 37.1666 20.25V21.4583M32.3333 37.1667H34.7499C35.3909 37.1667 36.0055 36.9121 36.4588 36.4588C36.912 36.0056 37.1666 35.3909 37.1666 34.75V33.5417M25.0833 26.2917V28.7083M35.9583 26.2917V28.7083M19.0416 26.2917H20.2499V28.7083H19.0416V26.2917ZM29.9166 26.2917H31.1249V28.7083H29.9166V26.2917Z" stroke="#F2F3F4" stroke-width="2" stroke-linecap="round" stroke-linejoin="round"/>
<defs>
<filter id="filter0_d_276_101" x="0.5" y="0.5" width="58" height="58" filterUnits="userSpaceOnUse" color-interpolation-filters="sRGB">
<feFlood flood-opacity="0" result="BackgroundImageFix"/>
<feColorMatrix in="SourceAlpha" type="matrix" values="0 0 0 0 0 0 0 0 0 0 0 0 0 0 0 0 0 0 127 0" result="hardAlpha"/>
<feOffset dx="2" dy="2"/>
<feGaussianBlur stdDeviation="3.25"/>
<feColorMatrix type="matrix" values="0 0 0 0 0 0 0 0 0 0 0 0 0 0 0 0 0 0 0.15 0"/>
<feBlend mode="normal" in2="BackgroundImageFix" result="effect1_dropShadow_276_101"/>
<feBlend mode="normal" in="SourceGraphic" in2="effect1_dropShadow_276_101" result="shape"/>
</filter>
</defs>
</svg>
