<svg width="17" height="17" viewBox="0 0 17 17" fill="none" xmlns="http://www.w3.org/2000/svg">
<path d="M8.7234 11.0075L12.3845 6.99831C12.4452 6.93246 12.4934 6.85412 12.5263 6.7678C12.5592 6.68149 12.5762 6.5889 12.5762 6.49539C12.5762 6.40189 12.5592 6.3093 12.5263 6.22299C12.4934 6.13667 12.4452 6.05833 12.3845 5.99248C12.2631 5.86055 12.0989 5.7865 11.9277 5.7865C11.7565 5.7865 11.5923 5.86055 11.4708 5.99248L8.23093 9.49873L5.02342 5.99248C4.90201 5.86055 4.73778 5.7865 4.56659 5.7865C4.3954 5.7865 4.23117 5.86055 4.10976 5.99248C4.04853 6.05808 3.99983 6.13631 3.96646 6.22264C3.93309 6.30897 3.91572 6.40168 3.91537 6.49539C3.91572 6.58911 3.93309 6.68182 3.96646 6.76815C3.99983 6.85448 4.04853 6.93271 4.10976 6.99831L7.77086 11.0075C7.83154 11.0794 7.90519 11.1368 7.98716 11.176C8.06912 11.2153 8.15764 11.2355 8.24713 11.2355C8.33662 11.2355 8.42514 11.2153 8.50711 11.176C8.58907 11.1368 8.66272 11.0794 8.7234 11.0075Z" fill="black" fill-opacity="0.27"/>
</svg>
