<svg width="22" height="20" viewBox="0 0 22 20" fill="none" xmlns="http://www.w3.org/2000/svg">
<path d="M19.25 17.5L13.75 12.5M2.75 8.33333C2.75 9.09938 2.91597 9.85792 3.23844 10.5657C3.56091 11.2734 4.03356 11.9164 4.6294 12.4581C5.22524 12.9998 5.93261 13.4295 6.71111 13.7226C7.48962 14.0158 8.32402 14.1667 9.16667 14.1667C10.0093 14.1667 10.8437 14.0158 11.6222 13.7226C12.4007 13.4295 13.1081 12.9998 13.7039 12.4581C14.2998 11.9164 14.7724 11.2734 15.0949 10.5657C15.4174 9.85792 15.5833 9.09938 15.5833 8.33333C15.5833 7.56729 15.4174 6.80875 15.0949 6.10101C14.7724 5.39328 14.2998 4.75022 13.7039 4.20854C13.1081 3.66687 12.4007 3.23719 11.6222 2.94404C10.8437 2.65088 10.0093 2.5 9.16667 2.5C8.32402 2.5 7.48962 2.65088 6.71111 2.94404C5.93261 3.23719 5.22524 3.66687 4.6294 4.20854C4.03356 4.75022 3.56091 5.39328 3.23844 6.10101C2.91597 6.80875 2.75 7.56729 2.75 8.33333Z" stroke="#A19999" stroke-width="2" stroke-linecap="round" stroke-linejoin="round"/>
</svg>
