<svg width="63" height="62" viewBox="0 0 63 62" fill="none" xmlns="http://www.w3.org/2000/svg">
<rect width="63" height="61.6483" rx="20" fill="#238BF8"/>
<path d="M34.2841 20.1992V24.7138C34.2841 25.0132 34.4056 25.3002 34.6219 25.5119C34.8383 25.7236 35.1316 25.8425 35.4375 25.8425H40.0512M34.2841 20.1992H26.2103C25.5985 20.1992 25.0117 20.437 24.5791 20.8603C24.1465 21.2837 23.9034 21.8578 23.9034 22.4565V38.2578C23.9034 38.8565 24.1465 39.4306 24.5791 39.854C25.0117 40.2773 25.5985 40.5151 26.2103 40.5151H37.7444C38.3562 40.5151 38.9429 40.2773 39.3755 39.854C39.8081 39.4306 40.0512 38.8565 40.0512 38.2578V25.8425M34.2841 20.1992L40.0512 25.8425M28.5171 26.9712H29.6705M28.5171 31.4858H35.4375M28.5171 36.0005H35.4375" stroke="#F2F3F4" stroke-width="2" stroke-linecap="round" stroke-linejoin="round"/>
</svg>
