<svg width="63" height="62" viewBox="0 0 63 62" fill="none" xmlns="http://www.w3.org/2000/svg">
<rect width="63" height="61.6483" rx="20" fill="#806CF7"/>
<path d="M35.3333 21.625L30.5 26.4583L25.6667 21.625M19.625 28.875C19.625 28.2341 19.8796 27.6194 20.3328 27.1662C20.786 26.7129 21.4007 26.4583 22.0417 26.4583H38.9583C39.5993 26.4583 40.214 26.7129 40.6672 27.1662C41.1204 27.6194 41.375 28.2341 41.375 28.875V39.75C41.375 40.3909 41.1204 41.0056 40.6672 41.4588C40.214 41.9121 39.5993 42.1667 38.9583 42.1667H22.0417C21.4007 42.1667 20.786 41.9121 20.3328 41.4588C19.8796 41.0056 19.625 40.3909 19.625 39.75V28.875Z" stroke="#F2F3F4" stroke-width="2" stroke-linecap="round" stroke-linejoin="round"/>
</svg>
