<svg width="63" height="62" viewBox="0 0 63 62" fill="none" xmlns="http://www.w3.org/2000/svg">
<rect width="63" height="61.6483" rx="20" fill="#806CF7"/>
<path d="M37.5417 28.875V26.4583C37.5417 25.8174 37.2871 25.2027 36.8338 24.7495C36.3806 24.2962 35.7659 24.0416 35.125 24.0416H23.0417C22.4007 24.0416 21.786 24.2962 21.3328 24.7495C20.8796 25.2027 20.625 25.8174 20.625 26.4583V33.7083C20.625 34.3492 20.8796 34.9639 21.3328 35.4171C21.786 35.8703 22.4007 36.125 23.0417 36.125H25.4583M25.4583 31.2916C25.4583 30.6507 25.7129 30.036 26.1662 29.5828C26.6194 29.1296 27.2341 28.875 27.875 28.875H39.9583C40.5993 28.875 41.214 29.1296 41.6672 29.5828C42.1204 30.036 42.375 30.6507 42.375 31.2916V38.5416C42.375 39.1826 42.1204 39.7973 41.6672 40.2505C41.214 40.7037 40.5993 40.9583 39.9583 40.9583H27.875C27.2341 40.9583 26.6194 40.7037 26.1662 40.2505C25.7129 39.7973 25.4583 39.1826 25.4583 38.5416V31.2916ZM31.5 34.9166C31.5 35.5576 31.7546 36.1723 32.2078 36.6255C32.661 37.0787 33.2757 37.3333 33.9167 37.3333C34.5576 37.3333 35.1723 37.0787 35.6255 36.6255C36.0787 36.1723 36.3333 35.5576 36.3333 34.9166C36.3333 34.2757 36.0787 33.661 35.6255 33.2078C35.1723 32.7546 34.5576 32.5 33.9167 32.5C33.2757 32.5 32.661 32.7546 32.2078 33.2078C31.7546 33.661 31.5 34.2757 31.5 34.9166Z" stroke="#F2F3F4" stroke-width="2" stroke-linecap="round" stroke-linejoin="round"/>
</svg>
